<svg width="494" height="566" viewBox="0 0 494 566" fill="none" xmlns="http://www.w3.org/2000/svg">
<path d="M463.498 232.298V381.118H0V170.518C6.10694 -52.9282 190.618 -9.42891 319.368 39.1173C425.789 79.2431 463.53 129.836 463.498 232.298Z" fill="#3C68FF"/>
<path d="M463.439 389.16L463.278 510.078C463.236 541.091 438.461 566.209 407.934 566.209H241.562C195.687 566.207 150.076 559.166 106.272 545.326C98.0763 542.737 91.0561 540.458 86.6407 538.906C34.7476 520.653 0.605453 519.115 0.605453 426.08H129.3C155.378 426.078 181.37 423.034 206.764 417.006L264.427 403.319L282.857 398.943C312.638 391.874 343.147 388.466 373.729 388.795L463.439 389.16Z" fill="#4059B1"/>
<path d="M387.235 381.118H261.614C262.428 343.815 290.237 313.862 324.424 313.862C358.612 313.862 386.421 343.821 387.235 381.118Z" fill="#4059B1"/>
<path d="M78.8661 381.836C105.57 381.836 127.217 343.934 127.217 297.179C127.217 250.424 105.57 212.521 78.8661 212.521C52.1624 212.521 30.5148 250.424 30.5148 297.179C30.5148 343.934 52.1624 381.836 78.8661 381.836Z" fill="#4059B1"/>
<path d="M463.498 381.118V389.142L373.729 388.795C343.147 388.466 312.638 391.874 282.857 398.943L264.427 403.319L206.764 417.006C181.37 423.034 155.378 426.078 129.3 426.08H0.611409C0.611409 426.08 0.424786 407.89 0.424786 381.114L463.498 381.118Z" fill="#4059B1"/>
<path d="M125.72 381.118H0V296.608C38.8236 296.848 49.8324 338.571 49.8324 338.571C49.8324 338.571 73.5534 324.456 98.4536 338.339C123.354 352.222 125.72 381.118 125.72 381.118Z" fill="#4059B1"/>
<path d="M492.252 567.718C492.252 535.774 472.633 515.929 437.107 515.929C401.581 515.929 330.539 559.832 330.539 567.718H492.252Z" fill="#B6FDF1" stroke="white" stroke-width="2" stroke-miterlimit="10"/>
<path d="M2.62455 567.718C2.62455 535.774 33.7608 509.88 72.1655 509.88C110.57 509.88 141.706 535.774 141.706 567.718H2.62455Z" fill="#B6FDF1" stroke="white" stroke-width="2" stroke-miterlimit="10"/>
<path d="M122.792 567.718C122.792 559.082 130.451 539.912 154.188 539.912C171.526 539.912 234.514 565.721 234.514 567.718H122.792Z" fill="#B6FDF1" stroke="white" stroke-width="2" stroke-miterlimit="10"/>
<path d="M103.88 100.114C120.327 100.114 133.66 86.573 133.66 69.8688C133.66 53.1646 120.327 39.6232 103.88 39.6232C87.4323 39.6232 74.0992 53.1646 74.0992 69.8688C74.0992 86.573 87.4323 100.114 103.88 100.114Z" fill="white"/>
<path d="M155.652 67.921C155.662 76.253 153.778 84.4749 150.146 91.9461" stroke="white" stroke-width="3" stroke-miterlimit="10" stroke-linecap="round"/>
<path d="M74.5558 100.268C73.2001 98.9391 71.9333 97.5198 70.7638 96.0194" stroke="white" stroke-width="3" stroke-miterlimit="10" stroke-linecap="round"/>
<path d="M143.698 82.1627C138.429 99.5499 122.496 112.187 103.635 112.187C94.8154 112.202 86.2176 109.378 79.0765 104.121" stroke="white" stroke-width="3" stroke-miterlimit="10" stroke-linecap="round"/>
<path d="M143.868 57.6678C144.985 61.5516 145.549 65.5772 145.546 69.6229" stroke="white" stroke-width="3" stroke-miterlimit="10" stroke-linecap="round"/>
<path d="M448.346 142.543H189.706C189.706 142.543 184.743 118.393 221.67 125.404C268.217 134.236 332.723 144.221 337.152 100.526C341.228 60.3274 387.451 56.3672 420.521 73.6213C463.439 96.0192 448.346 142.543 448.346 142.543Z" fill="white"/>
</svg>
