<svg width="800" height="721" viewBox="0 0 800 721" fill="none" xmlns="http://www.w3.org/2000/svg">
<path d="M659.999 318.717V496.635H105.877V244.858C113.178 -22.2767 333.765 29.7276 487.688 87.7655C614.916 135.737 660.037 196.221 659.999 318.717Z" fill="#3C68FF"/>
<path d="M659.928 506.248L659.735 650.808C659.685 687.886 630.066 717.915 593.571 717.915H394.669C339.825 717.912 285.296 709.495 232.928 692.948C223.13 689.853 214.737 687.129 209.458 685.273C147.419 663.452 106.601 661.612 106.601 550.387H260.458C291.635 550.385 322.709 546.746 353.068 539.539L422.005 523.176L444.039 517.945C479.642 509.493 516.117 505.42 552.677 505.812L659.928 506.248Z" fill="#4059B1"/>
<path d="M568.825 496.634H418.642C419.615 452.038 452.861 416.228 493.733 416.228C534.605 416.228 567.851 452.045 568.825 496.634Z" fill="#4059B1"/>
<path d="M200.163 497.493C232.088 497.493 257.968 452.18 257.968 396.283C257.968 340.386 232.088 295.073 200.163 295.073C168.239 295.073 142.359 340.386 142.359 396.283C142.359 452.18 168.239 497.493 200.163 497.493Z" fill="#4059B1"/>
<path d="M659.999 496.634V506.226L552.678 505.812C516.117 505.419 479.642 509.493 444.039 517.944L422.005 523.175L353.068 539.539C322.709 546.745 291.635 550.385 260.458 550.386H106.608C106.608 550.386 106.385 528.64 106.385 496.63L659.999 496.634Z" fill="#4059B1"/>
<path d="M256.179 496.635H105.877V395.601C152.292 395.888 165.453 445.768 165.453 445.768C165.453 445.768 193.812 428.894 223.581 445.491C253.35 462.088 256.179 496.635 256.179 496.635Z" fill="#4059B1"/>
<path d="M694.375 719.718C694.375 681.529 670.919 657.803 628.448 657.803C585.976 657.803 501.044 710.29 501.044 719.718H694.375Z" fill="#B6FDF1" stroke="white" stroke-width="2" stroke-miterlimit="10"/>
<path d="M109.015 719.717C109.015 681.528 146.239 650.571 192.153 650.571C238.066 650.571 275.29 681.528 275.29 719.717H109.015Z" fill="#B6FDF1" stroke="white" stroke-width="2" stroke-miterlimit="10"/>
<path d="M252.678 719.718C252.678 709.393 261.835 686.475 290.213 686.475C310.941 686.475 386.243 717.331 386.243 719.718H252.678Z" fill="#B6FDF1" stroke="white" stroke-width="2" stroke-miterlimit="10"/>
<path d="M230.068 160.689C249.73 160.689 265.67 144.5 265.67 124.529C265.67 104.559 249.73 88.3702 230.068 88.3702C210.405 88.3702 194.465 104.559 194.465 124.529C194.465 144.5 210.405 160.689 230.068 160.689Z" fill="white"/>
<path d="M291.962 122.201C291.974 132.162 289.722 141.991 285.38 150.923" stroke="white" stroke-width="3" stroke-miterlimit="10" stroke-linecap="round"/>
<path d="M195.01 160.872C193.39 159.284 191.875 157.587 190.477 155.793" stroke="white" stroke-width="3" stroke-miterlimit="10" stroke-linecap="round"/>
<path d="M277.671 139.227C271.372 160.014 252.324 175.121 229.776 175.121C219.231 175.14 208.952 171.764 200.415 165.479" stroke="white" stroke-width="3" stroke-miterlimit="10" stroke-linecap="round"/>
<path d="M277.875 109.943C279.209 114.586 279.885 119.399 279.881 124.236" stroke="white" stroke-width="3" stroke-miterlimit="10" stroke-linecap="round"/>
<path d="M641.884 211.413H332.675C332.675 211.413 326.741 182.541 370.889 190.923C426.536 201.481 503.655 213.419 508.95 161.181C513.823 113.123 569.083 108.388 608.619 129.016C659.928 155.793 641.884 211.413 641.884 211.413Z" fill="white"/>
</svg>
