<svg width="800" height="722" viewBox="0 0 800 722" fill="none" xmlns="http://www.w3.org/2000/svg">
<path d="M671.994 320.072V497.576H91V246.384C98.655 -20.1296 329.939 31.7537 491.327 89.6569C624.725 137.517 672.034 197.861 671.994 320.072Z" fill="#FFE43B"/>
<path d="M671.919 507.167L671.718 651.391C671.665 688.383 640.61 718.342 602.344 718.342H393.797C336.293 718.339 279.12 709.941 224.212 693.433C213.939 690.345 205.139 687.627 199.604 685.776C134.556 664.005 91.759 662.17 91.759 551.203H253.077C285.767 551.202 318.347 547.57 350.179 540.38L422.459 524.055L445.561 518.836C482.89 510.404 521.134 506.34 559.468 506.732L671.919 507.167Z" fill="#ECD231"/>
<path d="M576.398 497.576H418.932C419.952 453.083 454.811 417.357 497.665 417.357C540.519 417.357 575.378 453.09 576.398 497.576Z" fill="#ECD231"/>
<path d="M189.858 498.432C223.331 498.432 250.467 453.225 250.467 397.458C250.467 341.691 223.331 296.483 189.858 296.483C156.385 296.483 129.25 341.691 129.25 397.458C129.25 453.225 156.385 498.432 189.858 498.432Z" fill="#ECD231"/>
<path d="M671.994 497.576V507.146L559.468 506.732C521.134 506.34 482.89 510.404 445.56 518.836L422.458 524.055L350.178 540.381C318.347 547.57 285.766 551.202 253.077 551.203H91.7662C91.7662 551.203 91.5322 529.507 91.5322 497.571L671.994 497.576Z" fill="#ECD231"/>
<path d="M248.59 497.576H91V396.777C139.665 397.063 153.465 446.828 153.465 446.828C153.465 446.828 183.199 429.993 214.411 446.551C245.624 463.11 248.59 497.576 248.59 497.576Z" fill="#ECD231"/>
<path d="M708.037 720.142C708.037 682.041 683.444 658.371 638.913 658.371C594.381 658.371 505.33 710.735 505.33 720.142H708.037Z" fill="#1E2833" stroke="white" stroke-width="2" stroke-miterlimit="10"/>
<path d="M94.29 720.141C94.29 682.041 133.319 651.156 181.459 651.156C229.6 651.156 268.629 682.041 268.629 720.141H94.29Z" fill="#1E2833" stroke="white" stroke-width="2" stroke-miterlimit="10"/>
<path d="M244.919 720.141C244.919 709.84 254.521 686.976 284.275 686.976C306.008 686.976 384.962 717.76 384.962 720.141H244.919Z" fill="#1E2833" stroke="white" stroke-width="2" stroke-miterlimit="10"/>
<path d="M221.213 162.41C241.829 162.41 258.542 146.259 258.542 126.335C258.542 106.411 241.829 90.26 221.213 90.26C200.596 90.26 183.883 106.411 183.883 126.335C183.883 146.259 200.596 162.41 221.213 162.41Z" fill="white"/>
<path d="M286.108 124.012C286.121 133.95 283.76 143.757 279.208 152.668" stroke="white" stroke-width="3" stroke-miterlimit="10" stroke-linecap="round"/>
<path d="M184.455 162.594C182.756 161.009 181.168 159.316 179.702 157.526" stroke="white" stroke-width="3" stroke-miterlimit="10" stroke-linecap="round"/>
<path d="M271.124 140.999C264.52 161.737 244.548 176.809 220.906 176.809C209.851 176.828 199.073 173.46 190.122 167.189" stroke="white" stroke-width="3" stroke-miterlimit="10" stroke-linecap="round"/>
<path d="M271.338 111.783C272.737 116.415 273.445 121.216 273.441 126.042" stroke="white" stroke-width="3" stroke-miterlimit="10" stroke-linecap="round"/>
<path d="M653 213.017H328.796C328.796 213.017 322.574 184.212 368.863 192.574C427.209 203.108 508.067 215.018 513.619 162.901C518.728 114.955 576.669 110.231 618.122 130.811C671.919 157.526 653 213.017 653 213.017Z" fill="white"/>
</svg>
