<svg width="690" height="553" viewBox="0 0 690 553" fill="none" xmlns="http://www.w3.org/2000/svg">
<g clip-path="url(#clip0_432_18229)">
<path d="M568.448 226.766V370.761H102V166.99C108.146 -49.212 293.831 -7.12319 423.4 39.849C530.498 78.6738 568.48 127.626 568.448 226.766Z" fill="#DBE5E5"/>
<path d="M568.388 378.542L568.226 495.539C568.184 525.548 543.251 549.851 512.53 549.851H345.099C298.932 549.849 253.031 543.036 208.948 529.645C200.7 527.14 193.636 524.935 189.192 523.433C136.969 505.772 102.609 504.284 102.609 414.265H232.123C258.367 414.264 284.524 411.318 310.08 405.485L368.11 392.242L386.657 388.008C416.627 381.168 447.331 377.871 478.107 378.189L568.388 378.542Z" fill="#BECDC8"/>
<path d="M491.699 370.762H365.278C366.098 334.668 394.083 305.686 428.489 305.686C462.894 305.686 490.88 334.674 491.699 370.762Z" fill="#BECDC8"/>
<path d="M181.368 371.456C208.242 371.456 230.027 334.783 230.027 289.543C230.027 244.304 208.242 207.631 181.368 207.631C154.494 207.631 132.709 244.304 132.709 289.543C132.709 334.783 154.494 371.456 181.368 371.456Z" fill="#BECDC8"/>
<path d="M568.448 370.762V378.525L478.107 378.189C447.331 377.871 416.627 381.168 386.657 388.009L368.11 392.242L310.08 405.486C284.524 411.318 258.367 414.264 232.123 414.265H102.615C102.615 414.265 102.428 396.665 102.428 370.758L568.448 370.762Z" fill="#BECDC8"/>
<path d="M228.52 370.761H102V288.991C141.071 289.223 152.149 329.593 152.149 329.593C152.149 329.593 176.021 315.936 201.08 329.369C226.139 342.802 228.52 370.761 228.52 370.761Z" fill="white"/>
<path d="M597.384 551.311C597.384 520.403 577.64 501.201 541.888 501.201C506.136 501.201 434.642 543.68 434.642 551.311H597.384Z" fill="#E5F1EF" stroke="white" stroke-width="2" stroke-miterlimit="10"/>
<path d="M104.641 551.311C104.641 520.403 135.976 495.348 174.625 495.348C213.274 495.348 244.608 520.403 244.608 551.311H104.641Z" fill="#E5F1EF" stroke="white" stroke-width="2" stroke-miterlimit="10"/>
<path d="M225.573 551.311C225.573 542.954 233.282 524.406 257.169 524.406C274.618 524.406 338.006 549.379 338.006 551.311H225.573Z" fill="#E5F1EF" stroke="white" stroke-width="2" stroke-miterlimit="10"/>
<path d="M206.541 98.8687C223.092 98.8687 236.51 85.7664 236.51 69.6038C236.51 53.4412 223.092 40.3389 206.541 40.3389C189.989 40.3389 176.571 53.4412 176.571 69.6038C176.571 85.7664 189.989 98.8687 206.541 98.8687Z" fill="white"/>
<path d="M258.642 67.7192C258.652 75.7811 256.756 83.7364 253.102 90.9654" stroke="white" stroke-width="3" stroke-miterlimit="10" stroke-linecap="round"/>
<path d="M177.03 99.017C175.666 97.7313 174.391 96.358 173.214 94.9062" stroke="white" stroke-width="3" stroke-miterlimit="10" stroke-linecap="round"/>
<path d="M246.612 81.499C241.309 98.3225 225.276 110.549 206.295 110.549C197.419 110.564 188.766 107.832 181.58 102.745" stroke="white" stroke-width="3" stroke-miterlimit="10" stroke-linecap="round"/>
<path d="M246.784 57.7983C247.907 61.5562 248.476 65.4512 248.472 69.3658" stroke="white" stroke-width="3" stroke-miterlimit="10" stroke-linecap="round"/>
<path d="M553.199 139.922H292.913C292.913 139.922 287.918 116.555 325.081 123.338C371.924 131.884 436.84 141.545 441.298 99.2668C445.4 60.3717 491.917 56.54 525.197 73.2346C568.388 94.9063 553.199 139.922 553.199 139.922Z" fill="white"/>
<rect x="232" y="90.8599" width="235" height="220.685" fill="#FDFDFD"/>
<path d="M466.572 90.5576H231.753V307.162H466.572V90.5576Z" stroke="#66B0F0" stroke-width="3" stroke-miterlimit="10"/>
<path d="M349.162 90.5576H231.753V307.162H349.162V90.5576Z" stroke="#66B0F0" stroke-width="3" stroke-miterlimit="10"/>
<path d="M466.572 90.5576H349.162V307.162H466.572V90.5576Z" stroke="#66B0F0" stroke-width="3" stroke-miterlimit="10"/>
<path d="M444.906 111.511H373.309V181.39H444.906V111.511Z" stroke="#66B0F0" stroke-width="3" stroke-miterlimit="10"/>
<path d="M420.075 145.117L411.751 151.259" stroke="#66B0F0" stroke-width="3" stroke-miterlimit="10" stroke-linecap="round"/>
<path d="M400.153 159.823L373.309 179.635V165.07L444.888 113.266V126.813L425.595 141.045" stroke="#66B0F0" stroke-width="3" stroke-miterlimit="10" stroke-linecap="round"/>
<path d="M231.753 90.5576H349.162V107.317L231.753 90.5576Z" fill="#66B0F0"/>
<path d="M378.488 229C377.679 229 376.923 228.579 376.51 227.877L359.339 198.571C358.476 197.096 359.573 195.236 361.317 195.236C362.126 195.236 362.881 195.657 363.295 196.359L380.465 225.666C381.329 227.158 380.232 229 378.488 229Z" stroke="#66B0F0" stroke-width="3" stroke-miterlimit="10"/>
<path d="M324.727 111.511H253.131V181.39H324.727V111.511Z" stroke="#66B0F0" stroke-width="3" stroke-miterlimit="10"/>
<path d="M253.131 165.07L324.71 113.266" stroke="#66B0F0" stroke-width="3" stroke-miterlimit="10" stroke-linecap="round"/>
<path d="M319.531 229C320.34 229 321.095 228.579 321.509 227.877L338.68 198.571C339.543 197.096 338.446 195.236 336.702 195.236C335.893 195.236 335.138 195.657 334.724 196.359L317.553 225.666C316.69 227.158 317.787 229 319.531 229Z" stroke="#66B0F0" stroke-width="3" stroke-miterlimit="10"/>
<path d="M650.219 518.011L45.354 551.353V503.919H650.219V518.011Z" fill="#D0F0E4"/>
<path d="M622.656 467.155L76.7471 500.497V453.063H622.656V467.155Z" fill="#D0F0E4"/>
<path d="M587.505 416.474L106.216 449.816V402.382H587.505V416.474Z" fill="#D0F0E4"/>
<path d="M559.798 366.144L139.048 399.487V352.052H559.798V366.144Z" fill="#D0F0E4"/>
<path d="M45.354 503.919H650.219V549.598" stroke="#66B0F0" stroke-width="3" stroke-miterlimit="10"/>
<path d="M76.7471 452.887H622.656V500.515" stroke="#66B0F0" stroke-width="3" stroke-miterlimit="10"/>
<path d="M106.216 402.207H587.505V449.816" stroke="#66B0F0" stroke-width="3" stroke-miterlimit="10"/>
<path d="M139.228 351.876H559.798V399.486" stroke="#66B0F0" stroke-width="3" stroke-miterlimit="10"/>
<path d="M522.04 318.587L176.824 347.805V306.232H522.04V318.587Z" fill="#D0F0E4"/>
<path d="M176.968 306.074H522.04V347.805" stroke="#66B0F0" stroke-width="3" stroke-miterlimit="10"/>
<path d="M139.084 401.452V291.912" stroke="#66B0F0" stroke-width="3" stroke-miterlimit="10"/>
<path d="M231.987 217.593L20.8115 386.43C13.4217 393.643 9.26831 403.417 9.26831 413.613C9.26831 434.847 26.9067 452.94 48.6625 452.94" stroke="#66B0F0" stroke-width="3" stroke-miterlimit="10"/>
<path d="M76.2078 500.515V342.032" stroke="#66B0F0" stroke-width="3" stroke-miterlimit="10"/>
<path d="M559.798 401.803V291.912" stroke="#66B0F0" stroke-width="3" stroke-miterlimit="10"/>
<path d="M466.895 217.593L678.088 386.43C685.478 393.643 689.632 403.417 689.632 413.613C689.632 434.847 671.993 452.94 650.237 452.94" stroke="#66B0F0" stroke-width="3" stroke-miterlimit="10"/>
<path d="M622.692 500.515V342.032" stroke="#66B0F0" stroke-width="3" stroke-miterlimit="10"/>
<path d="M594.014 552.319C594.014 552.319 617.55 511.097 603.256 510.869C596.585 510.763 589.753 533.068 592.342 552.319H594.014Z" fill="#3FB1B5"/>
<path d="M592.989 552.09C592.989 552.09 601.727 513.501 622.836 519.73C643.944 525.96 607.912 552.09 607.912 552.09" stroke="#FFCF2D" stroke-width="3" stroke-miterlimit="10" stroke-linecap="round"/>
<path d="M564.742 552.757C557.425 552.091 553.289 539.315 561.955 535.051C574.416 528.926 578.317 541.719 575.854 542.14C573.391 542.579 569.921 526.399 580.673 526.838C591.425 527.277 591.82 552.091 591.82 552.091" stroke="#FFCF2D" stroke-width="3" stroke-miterlimit="10" stroke-linecap="round"/>
<path d="M601.835 552.091C601.835 552.091 613.073 525.452 624.022 520.134" stroke="#FFCF2D" stroke-width="3" stroke-miterlimit="10" stroke-linecap="round"/>
<path d="M589.86 538.262C589.86 538.262 587.217 523.96 587.109 514.554" stroke="#FFCF2D" stroke-width="3" stroke-miterlimit="10"/>
<path d="M593.061 520.924C592.539 522.187 588.512 525.328 588.512 525.328C588.512 525.328 587.865 520.327 588.386 519.063C588.907 517.8 590.382 517.203 591.658 517.712C592.953 518.221 593.582 519.66 593.061 520.924Z" stroke="#FFCF2D" stroke-width="3" stroke-miterlimit="10"/>
<path d="M591.712 510.868C591.191 512.132 587.163 515.273 587.163 515.273C587.163 515.273 586.516 510.272 587.038 509.008C587.559 507.745 589.033 507.148 590.31 507.657C591.605 508.184 592.234 509.605 591.712 510.868Z" stroke="#FFCF2D" stroke-width="3" stroke-miterlimit="10"/>
<path d="M582.435 522.029C583.19 523.17 587.757 525.504 587.757 525.504C587.757 525.504 587.415 520.485 586.66 519.344C585.905 518.204 584.341 517.888 583.172 518.625C582.003 519.379 581.68 520.889 582.435 522.029Z" stroke="#FFCF2D" stroke-width="3" stroke-miterlimit="10"/>
<path d="M70.7239 553.038C70.7239 553.038 56.268 540.297 56.5557 531.155C56.8793 520.696 67.1279 525.75 67.6673 521.977C68.2247 518.221 56.8434 492.53 72.6838 492.723C88.5241 492.916 81.1523 517.554 85.4496 519.836C89.7468 522.099 96.8669 519.397 94.943 529.365C93.0191 539.35 77.0169 552.915 77.0169 552.915L70.7239 553.038Z" fill="#3FB1B5"/>
<path d="M27.3202 552.722C17.9526 552.722 10.7427 536.016 25.1806 531.593C39.6185 527.171 41.2008 540.491 38.0543 541C34.9078 541.508 33.3435 515.413 59.3246 518.958C87.6791 522.819 70.3464 552.722 70.3464 552.722C70.3464 552.722 87.0678 525.276 71.6949 493.126" stroke="#FFCF2D" stroke-width="3" stroke-miterlimit="10" stroke-linecap="round"/>
<path d="M89.9805 552.722C89.9805 552.722 104.652 522.749 118.731 532.295C132.809 541.842 99.7616 552.722 99.7616 552.722" stroke="#FFCF2D" stroke-width="3" stroke-miterlimit="10" stroke-linecap="round"/>
<path d="M95.2666 552.459C95.2666 552.459 109.525 533.857 118.928 532.488" stroke="#FFCF2D" stroke-width="3" stroke-miterlimit="10" stroke-linecap="round"/>
<path d="M77.2687 552.547C77.2687 552.547 84.9821 535.015 91.8145 524.626" stroke="#FFCF2D" stroke-width="3" stroke-miterlimit="10" stroke-linecap="round"/>
<path d="M93.6305 535.787C92.1201 536.805 85.3776 537.419 85.3776 537.419C85.3776 537.419 88.3803 531.488 89.8726 530.47C91.383 529.452 93.4327 529.821 94.4755 531.295C95.5184 532.769 95.1408 534.787 93.6305 535.787Z" stroke="#FFCF2D" stroke-width="3" stroke-miterlimit="10"/>
<path d="M99.5998 523.819C98.0895 524.837 91.347 525.451 91.347 525.451C91.347 525.451 94.3496 519.52 95.842 518.502C97.3523 517.484 99.402 517.853 100.445 519.327C101.488 520.801 101.11 522.819 99.5998 523.819Z" stroke="#FFCF2D" stroke-width="3" stroke-miterlimit="10"/>
<path d="M102.099 513.659C101.128 515.168 95.1767 518.327 95.1767 518.327C95.1767 518.327 95.5184 511.728 96.5073 510.219C97.4782 508.71 99.5279 508.254 101.074 509.201C102.62 510.149 103.07 512.149 102.099 513.659Z" stroke="#FFCF2D" stroke-width="3" stroke-miterlimit="10"/>
<path d="M81.1523 529.505C81.1344 531.295 84.4067 537.086 84.4067 537.086C84.4067 537.086 87.751 531.33 87.769 529.558C87.787 527.768 86.3126 526.311 84.4786 526.311C82.6627 526.294 81.1703 527.715 81.1523 529.505Z" stroke="#FFCF2D" stroke-width="3" stroke-miterlimit="10"/>
<path d="M87.8409 517.677C87.8229 519.467 91.0953 525.258 91.0953 525.258C91.0953 525.258 94.4396 519.502 94.4575 517.73C94.4755 515.94 93.0012 514.483 91.1672 514.483C89.3332 514.483 87.8589 515.905 87.8409 517.677Z" stroke="#FFCF2D" stroke-width="3" stroke-miterlimit="10"/>
<path d="M519.289 552.757H670.825" stroke="#66B0F0" stroke-width="3" stroke-miterlimit="10"/>
<path d="M4 552.757H369.605" stroke="#66B0F0" stroke-width="3" stroke-miterlimit="10"/>
<path d="M336.343 215.838C336.343 216.926 336.217 217.997 335.983 219.05C335.929 219.26 335.875 219.471 335.821 219.682C335.246 221.787 334.203 223.788 332.711 225.49C332.693 225.508 332.675 225.543 332.657 225.56C332.495 225.754 332.315 225.929 332.135 226.122C332.099 226.175 332.045 226.21 332.009 226.245C331.416 226.842 330.751 227.403 330.032 227.912C328.773 228.807 327.442 229.474 326.058 229.948C325.842 230.018 325.626 230.088 325.411 230.158C323.469 230.72 321.437 230.895 319.459 230.685C319.244 230.667 319.028 230.632 318.812 230.597C316.708 230.281 314.677 229.562 312.861 228.421C312.645 228.281 312.429 228.14 312.213 228C311.422 227.456 310.685 226.824 310.002 226.122C309.804 225.911 309.606 225.718 309.427 225.49C309.049 225.052 308.671 224.578 308.348 224.086L307.215 222.419L308.222 225.49L308.42 226.122L310.308 231.931L310.505 232.562L312.213 237.827L312.393 238.371L312.591 239.003L312.861 239.81L314.479 244.812L314.677 245.443L316.565 251.252L316.762 251.884L318.65 257.692L318.794 258.149L318.848 258.324L319.441 260.132L319.549 260.465C319.531 260.395 319.495 260.325 319.441 260.254C319.316 260.079 319.1 259.921 318.794 259.781C317.769 259.289 315.72 258.921 312.843 258.71C312.627 258.693 312.411 258.675 312.195 258.657C310.469 258.552 308.492 258.482 306.244 258.447C306.028 258.447 305.813 258.447 305.597 258.447C303.763 258.429 301.785 258.447 299.645 258.5C299.43 258.5 299.214 258.517 298.998 258.517C297.11 258.57 295.132 258.64 293.047 258.728C292.831 258.745 292.615 258.745 292.399 258.763C290.494 258.851 288.516 258.956 286.448 259.079C286.232 259.096 286.017 259.096 285.801 259.114C283.877 259.237 281.899 259.359 279.849 259.517C279.634 259.535 279.418 259.552 279.202 259.57C277.26 259.71 275.282 259.868 273.251 260.044C273.053 260.061 272.855 260.079 272.657 260.096C272.639 260.096 272.621 260.096 272.603 260.096C270.59 260.272 268.594 260.447 266.652 260.64C266.436 260.658 266.221 260.676 266.005 260.711C263.973 260.904 261.977 261.114 260.053 261.342C259.838 261.36 259.622 261.395 259.406 261.413C257.356 261.641 255.361 261.886 253.455 262.15C253.239 262.185 253.023 262.202 252.807 262.237C250.722 262.518 248.744 262.799 246.856 263.08C246.64 263.115 246.425 263.15 246.209 263.185C244.159 263.501 242.253 263.834 240.473 264.15C240.401 264.168 240.329 264.185 240.257 264.185C240.042 264.22 239.826 264.273 239.61 264.308C238.801 264.466 238.028 264.624 237.291 264.782C235.96 265.063 234.756 265.344 233.659 265.624C233.443 265.677 233.227 265.73 233.012 265.8C229.236 266.8 227.096 267.783 227.096 268.66V243.46H207.264C207.048 243.46 206.833 243.46 206.617 243.443C204.531 243.372 202.535 242.986 200.665 242.355C200.45 242.284 200.234 242.197 200.018 242.127C198.058 241.372 196.242 240.337 194.624 239.055C194.444 238.915 194.247 238.757 194.067 238.599C193.995 238.547 193.941 238.494 193.869 238.424C193.725 238.301 193.563 238.16 193.42 238.02C193.294 237.915 193.186 237.792 193.06 237.669C191.55 236.195 190.273 234.493 189.302 232.598C189.194 232.387 189.086 232.176 188.996 231.966C188.133 230.158 187.558 228.21 187.306 226.157C187.27 225.947 187.252 225.736 187.234 225.525C187.18 224.929 187.145 224.332 187.145 223.718C187.145 222.367 187.288 221.015 187.558 219.717C187.594 219.506 187.648 219.296 187.702 219.085C188.205 217.032 189.05 215.084 190.201 213.276C190.309 213.118 190.417 212.943 190.525 212.785L190.615 212.645L193.402 208.556L194.049 207.608L194.588 206.836L195.02 206.204L198.993 200.396L199.425 199.764L200.018 198.904L200.665 197.956L203.398 193.955L203.83 193.323L206.617 189.235L207.264 188.287L207.786 187.515L208.217 186.883L212.191 181.074L212.622 180.443L212.73 180.285C212.892 180.057 213.054 179.846 213.216 179.618C213.431 179.337 213.647 179.074 213.863 178.793C215.121 177.249 216.524 175.862 218.07 174.634C218.34 174.423 218.61 174.213 218.879 174.002C219.185 173.774 219.509 173.546 219.814 173.335C220.03 173.195 220.246 173.055 220.461 172.914C222.313 171.703 224.327 170.721 226.413 169.966C226.629 169.896 226.844 169.808 227.06 169.738C228.984 169.089 230.98 168.65 233.012 168.422C233.227 168.404 233.443 168.369 233.659 168.351C234.558 168.264 235.475 168.229 236.392 168.229H286.79L286.844 168.211L288.498 167.579L292.381 166.105L293.029 165.86L298.98 163.596L299.627 163.35L303.817 161.771L305.471 161.139L305.579 161.086L306.226 160.841L307.341 160.419L307.736 161.139L308.096 161.771L311.35 167.579L311.71 168.211L312.177 169.053L312.825 170.212L314.964 174.02L315.324 174.651L318.578 180.46L318.776 180.829L318.92 181.092L319.423 181.969L322.174 186.901L322.534 187.532L325.375 192.604L325.788 193.341L326.022 193.745L326.148 193.973L329.402 199.781L329.762 200.413L331.973 204.362L332.621 205.52L333.016 206.222L333.376 206.853L334.437 208.749C335.138 210.012 335.641 211.328 335.947 212.662C336.001 212.873 336.037 213.083 336.073 213.294C336.271 214.101 336.343 214.979 336.343 215.838Z" fill="#FE5244"/>
<g opacity="0.2">
<path d="M194.139 207.59V238.546C194.067 238.494 194.013 238.441 193.941 238.371C193.797 238.248 193.635 238.108 193.491 237.967V208.538L194.139 207.59Z" fill="white"/>
<path d="M207.336 188.269V243.407C207.12 243.407 206.905 243.407 206.689 243.39V189.217L207.336 188.269Z" fill="white"/>
<path d="M200.737 197.921V242.284C200.522 242.214 200.306 242.126 200.09 242.056V198.869L200.737 197.921Z" fill="white"/>
<path d="M220.533 172.879V243.39H219.886V173.318C220.102 173.177 220.318 173.019 220.533 172.879Z" fill="white"/>
<path d="M213.935 178.775V243.39H213.287V179.6C213.503 179.319 213.719 179.056 213.935 178.775Z" fill="white"/>
<path d="M233.731 168.334V265.589C233.515 265.642 233.299 265.695 233.083 265.765V168.387C233.299 168.369 233.515 168.352 233.731 168.334Z" fill="white"/>
<path d="M227.132 169.72V243.408H226.485V169.931C226.701 169.861 226.916 169.79 227.132 169.72Z" fill="white"/>
<path d="M240.311 168.176V264.15C240.096 264.185 239.88 264.238 239.664 264.273V168.176H240.311Z" fill="white"/>
<path d="M253.509 168.176V262.114C253.293 262.149 253.077 262.167 252.861 262.202V168.176H253.509Z" fill="white"/>
<path d="M246.91 168.176V263.044C246.694 263.08 246.479 263.115 246.263 263.15V168.176H246.91Z" fill="white"/>
<path d="M266.706 168.176V260.623C266.49 260.64 266.274 260.658 266.059 260.693V168.176H266.706Z" fill="white"/>
<path d="M260.107 168.176V261.307C259.892 261.325 259.676 261.36 259.46 261.377V168.176H260.107Z" fill="white"/>
<path d="M279.903 168.176V259.5C279.688 259.517 279.472 259.535 279.256 259.552V168.176H279.903Z" fill="white"/>
<path d="M273.305 168.176V260.026C273.107 260.044 272.909 260.061 272.711 260.079C272.693 260.079 272.675 260.079 272.657 260.079V168.176H273.305Z" fill="white"/>
<path d="M286.484 168.176V259.078C286.268 259.096 286.052 259.096 285.837 259.114V168.176H286.484Z" fill="white"/>
<path d="M299.681 163.333V258.517C299.466 258.517 299.25 258.535 299.034 258.535V163.578L299.681 163.333Z" fill="white"/>
<path d="M293.083 165.824V258.727C292.867 258.745 292.651 258.745 292.435 258.763V166.07L293.083 165.824Z" fill="white"/>
<path d="M312.879 170.176V228.421C312.663 228.28 312.447 228.14 312.231 228V169.036L312.879 170.176Z" fill="white"/>
<path d="M312.879 239.81V258.71C312.663 258.692 312.447 258.675 312.231 258.657V237.809L312.411 238.353L312.609 238.985L312.879 239.81Z" fill="white"/>
<path d="M306.28 160.735V160.823L305.633 161.069V160.735H306.28Z" fill="white"/>
<path d="M306.28 160.823V258.465C306.064 258.465 305.848 258.465 305.633 258.465V161.069L306.28 160.823Z" fill="white"/>
<path d="M326.076 193.71V229.948C325.86 230.018 325.644 230.088 325.429 230.158V192.569L325.842 193.306L326.076 193.71Z" fill="white"/>
<path d="M319.477 260.132V260.273C319.351 260.097 319.136 259.939 318.83 259.799V258.148L318.884 258.324L319.477 260.132Z" fill="white"/>
<path d="M319.477 181.934V230.667C319.262 230.65 319.046 230.614 318.83 230.579V180.793L318.974 181.057L319.477 181.934Z" fill="white"/>
<path d="M332.657 205.467V225.56C332.495 225.753 332.315 225.929 332.135 226.122C332.099 226.174 332.045 226.21 332.009 226.245V204.326L332.657 205.467Z" fill="white"/>
<path d="M240.545 264.115C240.473 264.132 240.401 264.15 240.329 264.15C240.114 264.185 239.898 264.238 239.682 264.273C238.873 264.431 238.1 264.589 237.363 264.747H227.132V264.115H240.545Z" fill="white"/>
<path d="M316.798 251.866H227.132V251.234H316.583L316.798 251.866Z" fill="white"/>
<path d="M318.884 258.306H227.132V257.674H318.686L318.83 258.131L318.884 258.306Z" fill="white"/>
<path d="M314.695 245.425H227.132V244.811H314.497L314.695 245.425Z" fill="white"/>
<path d="M310.523 232.562H189.392C189.284 232.351 189.176 232.141 189.086 231.93H310.326L310.523 232.562Z" fill="white"/>
<path d="M312.609 239.003H194.696C194.516 238.862 194.319 238.704 194.139 238.546C194.067 238.493 194.013 238.441 193.941 238.371H312.393L312.609 239.003Z" fill="white"/>
<path d="M336.001 219.05C335.947 219.26 335.893 219.471 335.839 219.682H187.648C187.684 219.471 187.738 219.26 187.792 219.05H336.001Z" fill="white"/>
<path d="M308.438 226.122H187.378C187.342 225.911 187.324 225.7 187.306 225.49H308.222L308.438 226.122Z" fill="white"/>
<path d="M332.729 225.49C332.711 225.507 332.693 225.542 332.675 225.56C332.513 225.753 332.333 225.929 332.153 226.122H310.02C309.822 225.911 309.624 225.718 309.444 225.49H332.729Z" fill="white"/>
<path d="M333.412 206.801H194.678L195.11 206.169H333.052L333.412 206.801Z" fill="white"/>
<path d="M336.109 213.241H190.291C190.399 213.083 190.507 212.908 190.615 212.75L190.705 212.609H335.983C336.037 212.82 336.073 213.031 336.109 213.241Z" fill="white"/>
<path d="M329.798 200.361H199.083L199.497 199.746H329.456L329.798 200.361Z" fill="white"/>
<path d="M322.588 187.497H207.857L208.289 186.865H322.228L322.588 187.497Z" fill="white"/>
<path d="M326.202 193.938H203.47L203.902 193.306H325.842L326.076 193.709L326.202 193.938Z" fill="white"/>
<path d="M315.36 174.616H218.124C218.394 174.406 218.663 174.195 218.933 173.984H315L315.36 174.616Z" fill="white"/>
<path d="M318.974 181.057H212.263L212.694 180.425H318.614L318.83 180.793L318.974 181.057Z" fill="white"/>
<path d="M308.15 161.736H303.871L305.525 161.104H307.79L308.15 161.736Z" fill="white"/>
<path d="M311.764 168.176H286.916L288.57 167.544H311.404L311.764 168.176Z" fill="white"/>
</g>
<path d="M274.294 272.837C243.871 275.136 227.186 272.328 227.168 268.607C227.168 265.94 247.252 262.237 272.711 260.079C299.591 257.815 318.758 257.92 319.585 260.465C320.736 264.01 305.795 270.45 274.294 272.837Z" fill="#E57281"/>
<path d="M272.873 238.687L283.23 259.272" stroke="white" stroke-width="3" stroke-miterlimit="10"/>
<path d="M269.439 246.724C270.323 246.724 271.039 246.025 271.039 245.162C271.039 244.3 270.323 243.601 269.439 243.601C268.555 243.601 267.839 244.3 267.839 245.162C267.839 246.025 268.555 246.724 269.439 246.724Z" stroke="white" stroke-width="2" stroke-miterlimit="10"/>
<path d="M286.862 168.194L309.444 227.105" stroke="white" stroke-width="2" stroke-miterlimit="10"/>
<path d="M187.306 220.647C191.873 218.067 198.454 220.84 201.996 226.841C205.538 232.826 204.711 239.775 200.144 242.355" stroke="white" stroke-width="2" stroke-miterlimit="10" stroke-linecap="round"/>
<path d="M335.785 219.857C334.886 222.998 332.926 225.876 330.05 227.912C325.77 230.948 320.43 231.474 315.845 229.842C314.821 225.911 317.805 221.208 323.019 218.839C327.838 216.663 333.052 217.19 335.785 219.857Z" stroke="white" stroke-width="2" stroke-miterlimit="10"/>
<path d="M272.873 259.676L272.657 168.176" stroke="white" stroke-width="3" stroke-miterlimit="10"/>
<path d="M278.141 188.831C279.025 188.831 279.742 188.131 279.742 187.269C279.742 186.406 279.025 185.707 278.141 185.707C277.258 185.707 276.541 186.406 276.541 187.269C276.541 188.131 277.258 188.831 278.141 188.831Z" stroke="white" stroke-width="2" stroke-miterlimit="10"/>
<path d="M278.141 208.099C279.025 208.099 279.742 207.4 279.742 206.537C279.742 205.675 279.025 204.976 278.141 204.976C277.258 204.976 276.541 205.675 276.541 206.537C276.541 207.4 277.258 208.099 278.141 208.099Z" stroke="white" stroke-width="2" stroke-miterlimit="10"/>
<path d="M278.141 227.368C279.025 227.368 279.742 226.669 279.742 225.806C279.742 224.943 279.025 224.244 278.141 224.244C277.258 224.244 276.541 224.943 276.541 225.806C276.541 226.669 277.258 227.368 278.141 227.368Z" stroke="white" stroke-width="2" stroke-miterlimit="10"/>
<path d="M249.445 167.878L272.801 180.952L285.243 167.72" stroke="white" stroke-width="2" stroke-miterlimit="10"/>
<path d="M327.227 402.487L285.657 402.505L288.444 393.818H327.047L327.227 402.487Z" fill="white" stroke="#FE5244" stroke-width="2" stroke-miterlimit="10"/>
<path d="M336.936 302.038C343.373 312.427 345.225 324.922 342.096 336.662L328.647 387.079L326.849 393.818H288.462L291.303 384.991L307.287 334.433L261.528 261.149C265.088 260.763 268.828 260.395 272.693 260.079C288.552 258.745 301.713 258.236 310.02 258.552L336.936 302.038Z" fill="white" stroke="#9A3B82" stroke-width="3" stroke-miterlimit="10" stroke-linecap="round"/>
<path d="M383.108 402.487L327.227 402.505L327.047 393.765L327.083 393.818L357.829 379.902C375.179 385.149 382.677 392.783 385.841 397.696C387.172 399.785 385.626 402.487 383.108 402.487Z" fill="white" stroke="#FE5244" stroke-width="2" stroke-miterlimit="10"/>
<path d="M357.828 379.902L327.083 393.818L245.346 284.629C242.649 281.032 240.545 277.101 239.071 272.942C238.136 270.31 237.452 267.59 237.039 264.817C245.328 263.045 258.147 261.307 272.711 260.079C276.379 259.763 279.885 259.5 283.229 259.289L290.529 271.082L357.828 379.902Z" fill="white" stroke="#9A3B82" stroke-width="3" stroke-miterlimit="10" stroke-linecap="round"/>
<path d="M267.803 270.59L339.974 387.307" stroke="#9A3B82" stroke-width="3" stroke-miterlimit="10" stroke-linecap="round"/>
<path d="M262.696 266.063C262.696 266.063 262.157 278.944 250.758 283.489" stroke="#9A3B82" stroke-width="3" stroke-miterlimit="10" stroke-linecap="round"/>
<path d="M310.038 258.552L314.173 265.256C309.408 267.327 301.551 269.468 290.511 271.065C285.711 271.766 280.299 272.363 274.275 272.819C271.237 273.048 268.342 273.223 265.591 273.363C254.372 273.907 245.453 273.662 239.053 272.942C238.118 270.31 237.434 267.59 237.021 264.817C237.021 264.817 254.983 261.483 273.538 260.009C292.094 258.535 310.038 258.552 310.038 258.552Z" fill="#9A3B82"/>
<path d="M226.682 268.765C226.682 266.098 245.975 262.202 272.711 259.921C299.591 257.622 319.243 257.92 320.07 260.465" stroke="white" stroke-width="2" stroke-miterlimit="10" stroke-linecap="round"/>
<path d="M274.563 168.194H250.416L253.742 151.083H274.563V168.194Z" fill="#FFCF2D"/>
<path d="M256.421 168.194H250.416L253.742 151.083H274.563V157.12L256.421 168.194Z" fill="#E57281"/>
<path d="M253.652 153.645C253.652 153.645 256.961 135.289 257.392 134.254C258.129 132.499 273.358 126.848 275.696 128.937C278.033 131.025 273.305 132.885 275.84 132.692C278.375 132.499 286.016 126.954 289.217 131.183C291.159 133.763 284.902 137.483 280.892 138.238C276.883 138.992 265.609 144.889 265.339 146.977C265.07 149.065 261.456 153.242 253.652 153.645Z" fill="white" stroke="#FFCF2D" stroke-width="2" stroke-miterlimit="10"/>
<path d="M280.892 137.922V153.47C280.892 155.892 278.878 157.84 276.415 157.84H270.715C267.749 157.84 265.357 155.488 265.357 152.593V151.066H262.588C261.689 151.066 260.88 150.715 260.287 150.136C259.694 149.557 259.334 148.767 259.334 147.89C259.334 146.135 260.79 144.713 262.588 144.713H265.717C266.544 142.186 268.72 140.221 271.507 139.694L280.892 137.922Z" fill="#FFCF2D"/>
<path d="M264.71 148.575C264.71 147.135 263.829 146.064 262.373 146.292" stroke="#E57281" stroke-miterlimit="10" stroke-linecap="round"/>
<path d="M275.031 143.556C275.031 143.556 276.901 142.52 279.004 142.327" stroke="#E57281" stroke-miterlimit="10" stroke-linecap="round"/>
<path d="M277.62 146.943C278.017 146.943 278.339 146.432 278.339 145.802C278.339 145.172 278.017 144.661 277.62 144.661C277.223 144.661 276.901 145.172 276.901 145.802C276.901 146.432 277.223 146.943 277.62 146.943Z" fill="#E57281"/>
<path d="M263.739 224.104L259.496 225.684L259.119 225.824L256.206 226.894V219.068H220.983L228.822 206.064L229.146 205.52L233.012 204.099L233.767 203.818L236.733 202.712L237.309 202.502L241.876 200.799L242.631 200.519L245.544 199.448L246.263 199.185L249.391 198.027C249.463 197.992 249.535 197.974 249.607 197.957C249.841 197.886 250.075 197.834 250.308 197.816C250.596 197.781 250.884 197.781 251.153 197.799C252.016 197.869 252.826 198.237 253.455 198.816C253.886 199.203 254.228 199.694 254.444 200.255L263.739 224.104Z" fill="white"/>
<path d="M258.291 208.977L254.857 200.115C254.623 199.518 254.264 198.992 253.832 198.588C253.113 197.904 252.142 197.483 251.135 197.412C250.812 197.395 250.488 197.395 250.182 197.447C249.877 197.483 249.571 197.57 249.283 197.676L246.155 198.834L245.4 199.115L242.523 200.185L241.768 200.466L237.273 202.133L236.518 202.414L233.623 203.484L232.868 203.765L229.469 205.029L229.146 205.573L228.822 206.117L233.191 204.502L233.947 204.221L242.055 201.22L242.811 200.94L249.301 198.535L249.535 198.448C249.643 198.413 249.751 198.378 249.859 198.342C250.075 198.29 250.272 198.255 250.488 198.237C250.596 198.237 250.686 198.22 250.794 198.22C252.214 198.22 253.563 199.062 254.102 200.448L263.218 223.929L259.712 225.227L259.334 225.368L258.957 225.508L256.188 226.526V227.368L259.244 226.245L264.243 224.385L258.291 208.977Z" fill="#3FB1B5"/>
<path d="M263.739 224.105L259.478 225.684L249.625 200.326C249.176 199.185 249.769 197.904 250.938 197.466C252.106 197.027 253.419 197.606 253.868 198.747L263.739 224.105Z" fill="#3FB1B5"/>
<path d="M259.244 226.175L249.247 200.449C248.726 199.097 249.427 197.588 250.794 197.079C251.459 196.834 252.196 196.851 252.843 197.132C253.491 197.413 253.994 197.939 254.246 198.588L264.243 224.315L259.244 226.175ZM251.765 197.711C251.549 197.711 251.315 197.746 251.099 197.834C250.128 198.185 249.643 199.255 250.021 200.185L259.73 225.175L263.236 223.876L253.527 198.887C253.347 198.43 253.005 198.062 252.538 197.869C252.286 197.764 252.016 197.711 251.765 197.711Z" fill="#3FB1B5"/>
<path d="M244.573 202.993C244.141 202.993 243.674 202.835 243.242 202.537C242.631 202.115 242.145 201.466 241.84 200.694C241.534 199.922 241.462 199.097 241.642 198.395C241.822 197.64 242.271 197.096 242.883 196.868C244.123 196.412 245.598 197.377 246.245 199.062C246.317 199.272 246.227 199.501 246.011 199.571C245.795 199.641 245.562 199.553 245.49 199.343C245.004 198.114 243.943 197.325 243.152 197.605C242.793 197.746 242.523 198.079 242.415 198.571C242.289 199.115 242.343 199.764 242.595 200.396C242.847 201.027 243.242 201.554 243.71 201.887C244.141 202.186 244.573 202.273 244.932 202.133C245.148 202.063 245.382 202.15 245.454 202.361C245.526 202.572 245.436 202.8 245.22 202.87C245.004 202.958 244.788 202.993 244.573 202.993Z" fill="#3FB1B5"/>
<path d="M235.637 206.169C235.205 206.169 234.738 206.011 234.306 205.713C233.695 205.292 233.209 204.642 232.904 203.87C232.598 203.098 232.526 202.273 232.706 201.571C232.886 200.817 233.335 200.273 233.947 200.045C234.558 199.816 235.259 199.939 235.906 200.378C236.518 200.799 237.003 201.448 237.309 202.221C237.381 202.431 237.291 202.659 237.075 202.73C236.859 202.8 236.626 202.712 236.554 202.501C236.302 201.87 235.906 201.343 235.439 201.01C235.007 200.711 234.576 200.624 234.216 200.764C233.857 200.904 233.587 201.238 233.479 201.729C233.353 202.273 233.407 202.923 233.659 203.554C233.911 204.186 234.306 204.713 234.774 205.046C235.205 205.344 235.637 205.432 235.996 205.292C236.212 205.221 236.446 205.309 236.518 205.52C236.59 205.73 236.5 205.959 236.284 206.029C236.068 206.134 235.852 206.169 235.637 206.169Z" fill="#3FB1B5"/>
<path d="M256.242 243.39C258.764 243.39 260.809 237.945 260.809 231.229C260.809 224.512 258.764 219.067 256.242 219.067C253.719 219.067 251.675 224.512 251.675 231.229C251.675 237.945 253.719 243.39 256.242 243.39Z" fill="#73325A"/>
<path d="M272.639 221.559V234.721C272.639 235.774 272.082 236.756 271.165 237.318L265.411 240.652H253.329C252.304 238.424 251.657 235.037 251.657 231.264C251.657 228.544 251.998 226.017 252.556 223.998H264.135L262.355 219.401C261.833 218.085 263.092 216.751 264.477 217.119L270.338 218.629C271.704 218.98 272.639 220.173 272.639 221.559Z" fill="#FFCF2D"/>
<path d="M272.316 230.614C272.316 231.667 271.758 232.65 270.841 233.211L265.411 236.546" stroke="#73325A" stroke-width="4" stroke-miterlimit="10" stroke-linecap="round"/>
<path d="M272.316 225.753C272.316 226.806 271.758 227.789 270.841 228.351L265.411 231.685" stroke="#73325A" stroke-width="4" stroke-miterlimit="10" stroke-linecap="round"/>
<path d="M272.316 221.19C272.316 222.243 271.758 223.226 270.841 223.788L265.411 227.122" stroke="#73325A" stroke-width="4" stroke-miterlimit="10" stroke-linecap="round"/>
<path d="M266.832 222.314L264.117 223.964" stroke="#73325A" stroke-width="4" stroke-miterlimit="10" stroke-linecap="round"/>
<path d="M260.809 231.229C260.809 235.019 260.161 238.406 259.136 240.635H253.329C252.304 238.406 251.657 235.019 251.657 231.229C251.657 228.509 251.998 225.981 252.556 223.963H259.892C260.467 225.981 260.809 228.509 260.809 231.229Z" fill="#E57281"/>
<path d="M234.54 197.518L221.612 218.769" stroke="white" stroke-width="5" stroke-miterlimit="10"/>
<path d="M256.08 218.769C253.563 218.769 251.513 224.753 251.513 231.562C251.513 238.371 253.563 243.881 256.08 243.881H227.132" stroke="white" stroke-width="5" stroke-miterlimit="10" stroke-linecap="round"/>
<path d="M287.455 145.415L304.5 166.07L294.827 175.652L273.413 159.331C272.783 158.735 273.287 157.155 274.581 155.19C275.516 153.751 276.865 152.119 278.501 150.504C280.137 148.89 281.791 147.539 283.248 146.608C285.225 145.345 286.826 144.836 287.455 145.415Z" fill="#3FB1B5" stroke="#3FB1B5" stroke-width="2" stroke-miterlimit="10" stroke-linecap="round"/>
<path d="M301.465 172.659C304.134 170.015 305.477 167.083 304.465 166.11C303.454 165.138 300.47 166.493 297.802 169.138C295.133 171.782 293.789 174.714 294.801 175.687C295.813 176.659 298.796 175.304 301.465 172.659Z" fill="white" stroke="#3FB1B5" stroke-width="3" stroke-miterlimit="10"/>
<path d="M291.59 164.649V165.982C291.59 167.07 288.75 167.597 287.976 166.807L281.252 159.928C280.748 159.402 280.461 158.717 280.461 157.998V154.032C280.461 153.014 280.946 152.066 281.773 151.452L284.165 149.68C284.74 149.241 285.459 149.013 286.178 149.013H292.669C294.467 149.013 296.121 149.978 296.948 151.522L302.666 162.034H294.233C292.777 162.051 291.59 163.21 291.59 164.649Z" fill="#FFCF2D"/>
<path d="M302.54 162.051H294.431C292.957 162.051 291.752 163.227 291.752 164.666V166C291.752 167.088 289.235 167.614 288.462 166.825L281 159.244" stroke="#73325A" stroke-miterlimit="10" stroke-linecap="round"/>
<path d="M283.751 162.052C283.248 161.543 282.978 160.876 282.978 160.174V156.313C282.978 155.313 283.445 154.383 284.255 153.786L286.592 152.049C287.167 151.628 287.851 151.399 288.57 151.399H293.137" stroke="#73325A" stroke-miterlimit="10" stroke-linecap="round"/>
<path d="M286.34 164.719C285.837 164.21 285.567 163.543 285.567 162.841V158.981C285.567 157.98 286.035 157.05 286.844 156.454L289.181 154.716C289.756 154.295 290.44 154.067 291.159 154.067H295.24" stroke="#73325A" stroke-miterlimit="10" stroke-linecap="round"/>
<path d="M289.163 166.93C288.696 166.456 288.444 165.842 288.444 165.192V161.613C288.444 160.7 288.875 159.823 289.631 159.279L291.788 157.664C292.31 157.278 292.957 157.067 293.604 157.067H296.337" stroke="#73325A" stroke-miterlimit="10" stroke-linecap="round"/>
<path d="M428.292 298.44H498.738C512.978 298.44 526.283 305.284 534.338 316.726L566.612 363.125C569.273 366.898 566.864 372.04 562.171 372.04H526.247L511.899 353.737C510.209 351.42 506.469 352.438 506.236 355.281L503.341 389.747H426.512L420.039 354.702C419.644 351.964 416.012 351.122 414.376 353.386L401.196 369.952H358.242L391.757 318.113C399.686 305.864 413.477 298.44 428.292 298.44Z" fill="white" stroke="#3FB1B5" stroke-width="3" stroke-miterlimit="10" stroke-linecap="round"/>
<path d="M471.21 316.34L482.628 353.351H454.417L466.949 316.34H471.21Z" fill="#FE5244"/>
<g opacity="0.2">
<path d="M462.113 330.643V353.351H461.357V332.871L461.609 332.117L462.113 330.643Z" fill="white"/>
<path d="M470.15 316.428H469.395V353.351H470.15V316.428Z" fill="white"/>
<path d="M478.187 338.943V353.351H477.432V336.486L478.187 338.943Z" fill="white"/>
<path d="M481.153 348.56H456.035L456.287 347.805H480.92L481.153 348.56Z" fill="white"/>
<path d="M478.726 340.716H458.696L458.948 339.961H478.492L478.726 340.716Z" fill="white"/>
<path d="M476.317 332.872H461.357L461.609 332.117H476.083L476.317 332.872Z" fill="white"/>
<path d="M473.89 325.027H464.018L464.27 324.272H473.656L473.89 325.027Z" fill="white"/>
<path d="M471.462 317.183H466.68L466.931 316.428H471.246L471.462 317.183Z" fill="white"/>
</g>
<path d="M476.317 315.954L480.92 320.78L495.753 298.44H482.61L476.317 315.954Z" fill="white" stroke="#3FB1B5" stroke-width="3" stroke-miterlimit="10" stroke-linecap="round"/>
<path d="M462.67 315.954L458.049 320.78L441.975 298.44H456.359L462.67 315.954Z" fill="white" stroke="#3FB1B5" stroke-width="3" stroke-miterlimit="10" stroke-linecap="round"/>
<path d="M572.258 376.287C572.258 385.026 565.875 393.309 555.95 394.731L515.261 400.575L506.325 401.856V368.092L509.076 367.46L548.776 358.264C556.435 356.492 564.419 359.493 568.878 365.828C571.197 369.092 572.258 372.725 572.258 376.287Z" fill="#A0505A"/>
<path d="M515.261 400.574L506.325 401.856V368.092L509.076 367.46L515.261 400.574Z" fill="#73325A"/>
<path d="M506.325 410.489H420.794V360.388C420.794 356.492 424.031 353.351 428.004 353.351H499.097C503.089 353.351 506.307 356.509 506.307 360.388V410.489H506.325Z" fill="#FFCF2D"/>
<path d="M468.837 385.921H458.283C457.204 385.921 456.341 385.079 456.341 384.026V379.709C456.341 378.656 457.204 377.813 458.283 377.813H468.837C469.916 377.813 470.779 378.656 470.779 379.709V384.026C470.779 385.079 469.898 385.921 468.837 385.921Z" stroke="white" stroke-width="2" stroke-miterlimit="10"/>
<path d="M450.839 409.946L541.386 396.732C559.007 394.117 574.883 407.436 574.883 424.845C574.883 440.551 561.848 453.274 545.755 453.274H451.432L450.839 409.946Z" fill="#0096A0"/>
<path d="M438.595 461.013L384.097 471.279C377.157 472.718 370.181 467.067 369.875 459.767L369.066 440.358C368.652 430.53 378.308 424.616 387.406 428.828L438.595 461.013Z" fill="white" stroke="#FE5244" stroke-width="3" stroke-miterlimit="10"/>
<path d="M387.783 470.577C381.077 471.946 374.298 466.453 373.975 459.346L373.129 440.498C372.698 430.952 382.012 425.266 390.822 429.372" stroke="#FE5244" stroke-width="3" stroke-miterlimit="10"/>
<path d="M387.406 428.811L438.595 461.013L426.926 463.206L387.406 428.811Z" fill="#FE5244"/>
<path d="M407.13 442.92L400.387 456.029L393.717 440.621L386.003 457.924" stroke="#FE5244" stroke-width="3" stroke-miterlimit="10" stroke-linejoin="round"/>
<path d="M385.626 438.217L393.177 456.608L400.567 441.92L406.303 454.169" stroke="#FE5244" stroke-width="3" stroke-miterlimit="10" stroke-linejoin="round"/>
<path d="M480.92 436.953C477.899 434.531 469.161 440.042 461.393 449.255C453.626 458.468 449.778 467.909 452.799 470.331C452.349 470.068 395.586 435.321 360.364 411.613C351.41 405.593 346.681 395.942 346.681 386.167C346.681 379.358 348.982 372.496 353.747 366.758C365.686 352.386 387.801 351.42 401.016 364.687L480.92 436.953Z" fill="#3FB1B5"/>
<path d="M472.307 458.019C480.071 448.805 483.916 439.369 480.895 436.944C477.873 434.518 469.129 440.021 461.365 449.235C453.6 458.449 449.755 467.885 452.777 470.311C455.798 472.736 464.542 467.233 472.307 458.019Z" fill="#FE5244" stroke="white" stroke-width="3" stroke-miterlimit="10"/>
<path d="M505.912 467.278L495.807 484.019C490.683 492.495 479.104 492.653 473.8 484.3L456.79 457.556C458.247 455.204 460.045 452.747 462.113 450.29C465.852 445.851 469.826 442.271 473.278 440.024L500.356 450.08C506.973 452.554 509.706 460.978 505.912 467.278Z" fill="white" stroke="#FE5244" stroke-width="3" stroke-miterlimit="10"/>
<path d="M497.497 448.992C503.754 451.361 505.966 459.275 502.388 465.33L492.858 481.387C488.04 489.529 477.126 489.67 472.109 481.668" stroke="#FE5244" stroke-width="3" stroke-miterlimit="10"/>
<path d="M464.27 457.573L478.043 450.764L473.907 466.962L490.377 457.099" stroke="#FE5244" stroke-width="3" stroke-miterlimit="10" stroke-linejoin="round"/>
<path d="M479.14 473.455L483.419 454.59L469.376 461.346L471.534 448.816" stroke="#FE5244" stroke-width="3" stroke-miterlimit="10" stroke-linejoin="round"/>
<path d="M489.874 301.476C489.802 302.599 489.298 303.599 488.507 304.319C487.716 305.038 486.673 305.477 485.522 305.477H481.549L481.297 309.566C481.081 312.935 477.647 316.375 474.069 316.375H464.018C460.458 316.375 457.006 312.935 456.79 309.566L456.539 305.477H452.511C451.36 305.477 450.3 305.038 449.526 304.319C448.735 303.599 448.232 302.599 448.16 301.458C448.016 299.002 450.084 296.966 452.601 296.966H455.999L455.622 290.736C455.55 289.42 456.611 288.314 457.959 288.314H480.146C481.495 288.314 482.556 289.42 482.484 290.736L482.106 296.966H485.54C488.022 296.984 490.017 299.037 489.874 301.476Z" fill="#A0505A"/>
<path d="M482.088 296.966H485.702C485.702 296.966 489.154 284.735 485.828 281.593C482.502 278.452 462.076 271.222 455.478 275.732C450.659 279.031 453.284 296.966 453.284 296.966H455.945C455.945 296.966 466.679 289.455 468.369 290.105C470.06 290.754 463.515 293.913 464.827 294.527C469.736 296.826 478.564 288.49 480.596 288.49C482.628 288.49 482.088 296.966 482.088 296.966Z" fill="#73325A"/>
<path d="M477.539 300.003C477.539 300.003 475.184 298.142 472.163 299.353" stroke="#73325A" stroke-miterlimit="10" stroke-linecap="round"/>
<path d="M472.721 310.005C472.721 310.005 471.426 312.708 467.506 311.304" stroke="#73325A" stroke-miterlimit="10" stroke-linecap="round"/>
<path d="M459.631 299.388C459.631 299.388 464.396 298.352 465.834 301.23C466.715 303.003 466.284 309.198 467.309 309.268C468.333 309.338 469.88 309.268 469.88 309.268" stroke="#73325A" stroke-miterlimit="10" stroke-linecap="round"/>
<path d="M474.321 304.775C474.788 304.775 475.166 304.162 475.166 303.406C475.166 302.65 474.788 302.038 474.321 302.038C473.854 302.038 473.476 302.65 473.476 303.406C473.476 304.162 473.854 304.775 474.321 304.775Z" fill="#73325A"/>
<path d="M463.389 304.775C463.856 304.775 464.234 304.162 464.234 303.406C464.234 302.65 463.856 302.038 463.389 302.038C462.922 302.038 462.544 302.65 462.544 303.406C462.544 304.162 462.922 304.775 463.389 304.775Z" fill="#73325A"/>
<path d="M455.118 302.108C455.01 300.388 453.554 299.055 451.792 299.055" stroke="#73325A" stroke-miterlimit="10" stroke-linecap="round"/>
<path d="M482.717 302.196C482.825 300.371 484.372 298.949 486.224 298.949" stroke="#73325A" stroke-miterlimit="10" stroke-linecap="round"/>
<path d="M216.883 336.17C216.883 335.029 216.829 333.924 216.739 332.888C215.643 332.415 208.72 329.168 206.976 323.324C206.976 323.324 201.726 333.696 193.923 332.502C193.905 332.502 193.887 332.502 193.869 332.485C193.869 332.485 193.869 332.485 193.851 332.485L191.963 331.537C191.927 331.52 191.909 331.502 191.873 331.502C189.734 330.502 187.27 331.8 186.839 333.976C186.335 332.608 185.976 331.151 185.76 329.624C184.375 319.411 190.147 310.865 199.73 310.865C208.469 310.865 216.865 318.885 218.196 327.361C218.735 330.572 218.178 333.573 216.883 336.17Z" fill="#FFCF2D"/>
<path d="M188.385 337.398C187.54 342.242 169.021 335.486 164.903 343.576C162.224 348.858 166.36 355.228 154.726 355.772C140.864 356.404 135.236 363.809 137.484 380.972L175.35 361.37L185.922 352.174L190.525 338.364L188.385 337.398Z" fill="#FFCF2D"/>
<path d="M209.961 348.805V353.614L198.256 360.528L185.922 352.192L190.525 338.381L209.961 348.805Z" fill="#E57281"/>
<path d="M192.646 339.469L198.256 360.528L209.961 353.614V348.805L192.646 339.469Z" fill="#9A3B82"/>
<path d="M216.883 336.275C216.883 344.12 211.723 350.49 205.358 350.49C200.144 350.49 195.523 346.225 194.013 340.364L188.745 337.732C188.151 337.433 187.666 336.995 187.324 336.451C186.983 335.924 186.803 335.292 186.803 334.643C186.803 332.046 189.608 330.379 191.981 331.555L193.941 332.52V332.502C201.744 333.678 206.994 323.324 206.994 323.324C208.738 329.168 215.661 332.397 216.757 332.888C216.847 333.959 216.883 335.082 216.883 336.275Z" fill="#E57281"/>
<path d="M216.847 334.643C216.847 334.643 213.953 333.468 212.173 335.222C209.961 337.399 210.446 343.646 210.446 343.646" stroke="#9A3B82" stroke-miterlimit="10" stroke-linecap="round"/>
<path d="M206.455 334.275C206.455 334.275 204.064 334.099 201.69 335.328" stroke="#9A3B82" stroke-miterlimit="10" stroke-linecap="round"/>
<path d="M192.305 336.013C192.107 334.854 191.244 333.906 190.093 333.555" stroke="#9A3B82" stroke-miterlimit="10" stroke-linecap="round"/>
<path d="M205.669 338.503C205.872 337.774 205.671 337.086 205.221 336.966C204.77 336.847 204.241 337.342 204.038 338.072C203.835 338.802 204.036 339.49 204.487 339.609C204.937 339.728 205.467 339.233 205.669 338.503Z" fill="#9A3B82"/>
<path d="M214.479 338.854C214.682 338.125 214.481 337.437 214.03 337.318C213.58 337.198 213.051 337.693 212.848 338.423C212.645 339.153 212.846 339.841 213.297 339.96C213.747 340.079 214.277 339.584 214.479 338.854Z" fill="#9A3B82"/>
<path d="M209.565 345.752C209.565 345.752 206.455 346.56 205.556 343.997" stroke="#9A3B82" stroke-miterlimit="10" stroke-linecap="round"/>
<path d="M162.907 361.423H232.939C242.541 361.423 251.261 366.951 255.145 375.532L268.378 402.101L149.584 458.239L111.305 442.235L132.144 382.71C136.746 369.952 149.063 361.423 162.907 361.423Z" fill="white" stroke="#FE5244" stroke-width="2" stroke-miterlimit="10"/>
<path d="M195.739 373.145L189.931 369.794L197.986 360.844H198.562L206.725 369.197L201.061 372.549L225.37 421.44L179.215 443.463L195.739 373.145Z" fill="#FE5244"/>
<g opacity="0.2">
<path d="M186.101 414.157V434.057H185.382V417.21L186.101 414.157Z" fill="white"/>
<path d="M193.671 381.885V434.04H192.952V384.938L193.401 383.043L193.563 382.341L193.671 381.885Z" fill="white"/>
<path d="M193.671 365.617V371.952L192.952 371.549V366.424L193.671 365.617Z" fill="white"/>
<path d="M201.259 363.616V432.952L200.539 433.285V362.879L201.259 363.616Z" fill="white"/>
<path d="M208.846 388.202V429.319L208.127 429.67V386.763L208.846 388.202Z" fill="white"/>
<path d="M216.434 403.452V425.704L215.715 426.055V401.996L216.434 403.452Z" fill="white"/>
<path d="M224.003 418.702V422.089L223.284 422.423V417.263L224.003 418.702Z" fill="white"/>
<path d="M198.759 434.145L197.285 434.847H181.247L181.409 434.145H198.759Z" fill="white"/>
<path d="M214.258 426.739L212.784 427.441H182.973L183.153 426.739H214.258Z" fill="white"/>
<path d="M224.669 420.036H184.717L184.879 419.334H224.327L224.669 420.036Z" fill="white"/>
<path d="M221.001 412.648H186.461L186.623 411.946H220.641L221.001 412.648Z" fill="white"/>
<path d="M217.315 405.242H188.187L188.367 404.54H216.973L217.315 405.242Z" fill="white"/>
<path d="M213.629 397.837H189.931L190.093 397.135H213.287L213.629 397.837Z" fill="white"/>
<path d="M209.961 390.449H191.675L191.837 389.747H209.601L209.961 390.449Z" fill="white"/>
<path d="M206.275 383.043H193.401L193.563 382.341H205.933L206.275 383.043Z" fill="white"/>
<path d="M202.607 375.638H195.145L195.307 374.936H202.248L202.607 375.638Z" fill="white"/>
<path d="M205.79 368.25H191.316L191.945 367.547H205.106L205.79 368.25Z" fill="white"/>
</g>
<path d="M160.408 399.504L154.762 418.106" stroke="#FE5244" stroke-width="2" stroke-miterlimit="10"/>
<path d="M219.85 361.388L206.527 368.829L198.562 360.844H197.986L190.111 369.443L175.349 361.388L186.101 352.192L198.256 360.528L209.961 353.614L219.85 361.388Z" fill="white" stroke="#FE5244" stroke-width="2" stroke-miterlimit="10" stroke-linejoin="round"/>
<path d="M291.159 383.184L277.206 426.459H192.341L206.293 383.184H291.159Z" fill="#3FB1B5"/>
<path d="M237.47 426.459L251.423 383.184" stroke="white" stroke-width="3" stroke-miterlimit="10"/>
<path d="M207.893 383.184C207.893 383.184 218.519 377.024 233.91 377.972C249.301 378.902 251.459 383.184 251.459 383.184H207.893Z" fill="white" stroke="#3FB1B5" stroke-width="2" stroke-miterlimit="10" stroke-linecap="round"/>
<path d="M288.084 383.184C288.084 383.184 268.054 374.55 251.459 383.184H288.084Z" fill="white" stroke="#3FB1B5" stroke-width="2" stroke-miterlimit="10" stroke-linecap="round"/>
<path d="M249.247 471.699L208.001 503.498C203.075 507.288 202.427 514.343 206.581 518.923L234.917 550.3C234.917 550.3 237.614 548.352 236.715 540.526C235.457 529.698 238.513 519.572 238.513 519.572L299.555 477.087C308.995 470.524 314.676 459.959 314.838 448.64C315.072 433.268 295.977 425.476 284.92 436.409L249.247 471.699Z" fill="#E57281"/>
<path d="M238.495 519.555C238.495 519.555 235.457 529.68 236.697 540.508C237.596 548.352 234.899 550.3 234.899 550.3L206.563 518.923C202.409 514.325 203.075 507.288 207.983 503.498L221.216 493.284C221.612 493.003 222.008 492.705 222.403 492.407L239.232 479.421L249.229 471.699C249.229 471.699 248.672 484.527 254.857 508.166L238.495 519.555Z" fill="white" stroke="#9A3B82" stroke-width="3" stroke-miterlimit="10" stroke-linecap="round"/>
<path d="M237.362 541.561C237.704 544.597 237.488 546.791 237.075 548.335C236.985 548.704 236.877 549.019 236.751 549.318C236.05 551.125 235.133 551.722 235.133 551.722L205.754 519.204C201.942 514.975 202.05 508.745 205.7 504.656C206.149 504.147 206.671 503.656 207.246 503.217L208.199 502.48L216.47 496.11C215.93 499.62 218.25 505.498 222.709 511.044C228.354 518.063 235.852 521.801 239.124 519.871C238.603 521.731 236.212 531.541 237.362 541.561Z" fill="#FFCF2D"/>
<path d="M237.093 548.335C237.003 548.703 236.895 549.019 236.769 549.318L207.606 517.028C205.448 514.641 204.423 511.57 204.711 508.394C204.837 507.078 205.178 505.797 205.718 504.638C206.167 504.13 206.689 503.638 207.264 503.199L208.217 502.462C206.725 504.13 205.808 506.2 205.61 508.464C205.34 511.395 206.293 514.238 208.289 516.449L237.093 548.335Z" fill="white"/>
<path d="M237.938 525.206C237.938 525.206 230.027 522.135 228.966 525.206C227.923 528.277 237.344 530.225 237.344 530.225L237.938 525.206Z" fill="white"/>
<path d="M288.444 430.057V526.206C276.99 537.56 261.779 531.453 261.779 531.453C248.348 493.724 249.247 472.77 249.247 472.77L239.25 480.474C213.683 464.891 211.597 429.039 211.543 428.179L253.203 408.507C269.511 400.803 288.444 412.385 288.444 430.057Z" fill="#E57281"/>
<path d="M253.221 408.489C269.511 400.802 288.444 412.384 288.444 430.038V526.188C276.99 537.542 261.779 531.435 261.779 531.435C248.366 493.705 249.247 472.735 249.247 472.735" stroke="#9A3B82" stroke-width="3" stroke-miterlimit="10" stroke-linecap="round"/>
<path d="M239.25 480.456L222.421 493.442C192.251 516.729 147.876 495.758 147.876 458.222L211.543 428.143C211.543 428.143 211.543 428.143 211.543 428.161C211.597 429.038 213.701 464.89 239.25 480.456Z" fill="#FE5244"/>
<g opacity="0.2">
<path d="M155.823 454.484V483.632C155.571 483.281 155.338 482.93 155.104 482.579V454.817L155.823 454.484Z" fill="white"/>
<path d="M163.411 450.904V491.915C163.177 491.705 162.925 491.494 162.691 491.284V451.237L163.411 450.904Z" fill="white"/>
<path d="M170.98 447.324V497.18C170.747 497.04 170.495 496.917 170.261 496.777V447.658L170.98 447.324Z" fill="white"/>
<path d="M178.568 443.744V500.585C178.334 500.497 178.082 500.427 177.849 500.339V444.095L178.568 443.744Z" fill="white"/>
<path d="M186.155 440.164V502.55C185.922 502.515 185.67 502.462 185.436 502.427V440.515L186.155 440.164Z" fill="white"/>
<path d="M193.725 436.566V503.217C193.491 503.217 193.24 503.217 193.006 503.199V436.917L193.725 436.566Z" fill="white"/>
<path d="M201.313 432.987V502.655C201.079 502.691 200.827 502.726 200.593 502.761V433.338L201.313 432.987Z" fill="white"/>
<path d="M208.9 429.407V500.778C208.666 500.865 208.415 500.936 208.181 501.023V429.758L208.9 429.407Z" fill="white"/>
<path d="M216.47 450.623V497.391C216.236 497.531 215.984 497.654 215.75 497.777V448.57C215.786 448.693 215.822 448.816 215.876 448.921C215.948 449.149 216.038 449.395 216.11 449.623C216.236 449.956 216.362 450.29 216.47 450.623Z" fill="white"/>
<path d="M224.057 465.715V492.196L223.338 492.758V464.627C223.572 464.978 223.806 465.346 224.057 465.715Z" fill="white"/>
<path d="M231.645 474.665V486.633H231.267L230.926 486.896V473.963C231.159 474.209 231.393 474.437 231.645 474.665Z" fill="white"/>
<path d="M209.026 500.725C208.972 500.743 208.936 500.76 208.882 500.778C208.648 500.866 208.397 500.936 208.163 501.024C207.713 501.164 207.264 501.304 206.796 501.445H181.229C180.474 501.234 179.719 500.988 178.963 500.743H209.026V500.725Z" fill="white"/>
<path d="M222.583 493.319L222.421 493.442C222.169 493.635 221.918 493.828 221.666 494.022H166.072C165.748 493.793 165.442 493.565 165.137 493.319H222.583Z" fill="white"/>
<path d="M232.166 485.932L231.627 486.335V486.634H158.125C157.927 486.406 157.729 486.16 157.549 485.932H232.166Z" fill="white"/>
<path d="M237.344 479.228H153.108C152.982 479 152.856 478.754 152.731 478.526H236.338C236.661 478.772 237.003 479 237.344 479.228Z" fill="white"/>
<path d="M228.858 471.822H149.962C149.89 471.594 149.818 471.348 149.746 471.12H228.247C228.426 471.366 228.642 471.594 228.858 471.822Z" fill="white"/>
<path d="M223.212 464.435H148.29C148.254 464.206 148.236 463.961 148.2 463.732H222.763C222.924 463.961 223.068 464.189 223.212 464.435Z" fill="white"/>
<path d="M219.149 457.029H150.447L151.939 456.327H218.825C218.915 456.555 219.023 456.801 219.149 457.029Z" fill="white"/>
<path d="M216.128 449.623H166.108L167.6 448.921H215.894C215.948 449.167 216.038 449.395 216.128 449.623Z" fill="white"/>
<path d="M213.899 442.235H181.75L183.243 441.533H213.719C213.791 441.761 213.845 441.99 213.899 442.235Z" fill="white"/>
<path d="M212.352 434.83H197.411L198.903 434.127H212.244C212.28 434.356 212.316 434.584 212.352 434.83Z" fill="white"/>
</g>
<path d="M211.543 428.161C211.597 429.038 213.683 464.89 239.25 480.474" stroke="white" stroke-width="3" stroke-miterlimit="10"/>
<path d="M288.444 491.845V526.206C276.99 537.56 261.779 531.453 261.779 531.453C255.9 514.922 252.771 501.602 251.099 491.863H288.444V491.845Z" fill="white"/>
<path d="M261.761 531.435C255.882 514.904 252.753 501.585 251.081 491.845H288.426V526.206" stroke="#9A3B82" stroke-width="3" stroke-miterlimit="10" stroke-linecap="round"/>
<path d="M315.288 551.353H262.157C259.676 551.353 257.788 549.195 258.183 546.808L258.273 546.282L258.597 544.386L260.898 530.628C260.898 530.628 277.098 536.998 289.037 525.17C289.037 525.17 292.777 534.577 308.383 541.491C312.051 543.123 313.777 545.545 314.587 547.598C314.712 547.896 314.802 548.194 314.892 548.475C315.378 550.125 315.288 551.353 315.288 551.353Z" fill="#FFCF2D"/>
<path d="M314.892 548.458H262.157C260.844 548.458 259.604 547.896 258.759 546.913C258.579 546.703 258.417 546.492 258.291 546.264L258.615 544.369C258.669 545.088 258.956 545.79 259.46 546.352C260.143 547.124 261.132 547.58 262.175 547.58H314.604C314.712 547.878 314.82 548.177 314.892 548.458Z" fill="white"/>
<path d="M297.272 534.91C291.374 539.017 282.294 537.841 281.683 536.068C281.054 534.314 290.475 533.032 291.716 529.382C293.029 530.979 294.719 532.91 297.272 534.91Z" fill="white"/>
<path d="M249.247 472.752C249.247 452.132 254.821 440.164 254.821 440.164" stroke="#9A3B82" stroke-width="3" stroke-miterlimit="10" stroke-linecap="round"/>
<path d="M198.256 408.12L124.466 425.055C115.116 427.196 108.518 435.338 108.518 444.71C108.518 459.608 124.502 469.383 138.239 462.873L209.637 429.039C210.86 428.459 211.831 427.442 212.316 426.196L220.228 406.383C220.551 405.593 219.868 404.751 218.987 404.874L217.728 405.049C215.733 405.33 213.935 406.401 212.766 408.015L209.547 412.718C208.954 413.578 207.965 414.087 206.904 414.087H199.371C197.842 414.087 196.746 412.63 197.213 411.209L198.256 408.12Z" fill="#E57281"/>
<path d="M197.537 408.296L124.466 425.231C115.116 427.372 108.518 435.514 108.518 444.885C108.518 459.784 124.502 469.559 138.239 463.048L209.637 429.214C210.86 428.635 211.831 427.617 212.316 426.371L220.228 406.559C220.551 405.769 219.868 404.927 218.987 405.05L217.728 405.225C215.733 405.506 213.935 406.576 212.766 408.191L209.547 412.894C208.954 413.754 207.965 414.263 206.904 414.263H198.652C197.123 414.263 196.026 412.806 196.494 411.385L197.537 408.296Z" stroke="white" stroke-width="3" stroke-miterlimit="10"/>
<path d="M200.45 419.879H211.471C213.287 419.879 214.941 418.913 215.822 417.351" stroke="white" stroke-width="2" stroke-miterlimit="10" stroke-linecap="round"/>
<path d="M197.932 426.197H208.954C210.77 426.197 212.424 425.231 213.305 423.669" stroke="white" stroke-width="2" stroke-miterlimit="10" stroke-linecap="round"/>
</g>
<defs>
<clipPath id="clip0_432_18229">
<rect width="690" height="553" fill="white"/>
</clipPath>
</defs>
</svg>
