<svg width="800" height="720" viewBox="0 0 800 720" fill="none" xmlns="http://www.w3.org/2000/svg">
<path d="M620.522 536.062C618.609 600.717 611.627 662.404 595.56 718.345L24.9622 719.715C8.89945 663.774 0 600.781 0 536.062C0 280.31 138.91 73 310.259 73C481.608 73 628.397 269.336 620.522 536.062Z" fill="#1E2833"/>
<path d="M800 719.26L59.7246 719.715C89.0446 691.204 133.974 710.201 133.974 710.201C133.974 710.201 120.624 651.506 178.584 633.849C200.259 627.249 217.689 628.137 231.341 632.327C241.594 635.46 252.575 635.294 262.728 631.852C272.88 628.409 281.69 621.866 287.908 613.148C301.756 593.896 327.333 576.525 374.563 576.525C414.873 576.525 446.019 598.683 480.478 620.476C490.113 608.179 506.494 600.118 525.047 600.118C554.714 600.118 578.73 620.713 578.73 646.118C578.731 651.063 577.813 655.964 576.024 660.575C603.162 664.423 634.6 662.333 672.624 650.181C778.608 616.286 800 719.26 800 719.26Z" fill="#FDFDFD"/>
<path d="M692.741 699.344H3.16846" stroke="#66B0F0" stroke-width="3" stroke-miterlimit="10"/>
<path d="M63.4014 711.848H458.285" stroke="#66B0F0" stroke-width="3" stroke-miterlimit="10"/>
<path d="M657.207 544.19H546.923C541.703 544.19 537.462 548.436 537.462 553.661V699.344H666.644V553.661C666.667 548.436 662.426 544.19 657.207 544.19Z" fill="#D0F0E4"/>
<path d="M657.207 544.19H546.923C541.703 544.19 537.462 548.436 537.462 553.661V699.344H666.644V553.661C666.667 548.436 662.426 544.19 657.207 544.19Z" stroke="#FFCF2D" stroke-width="2" stroke-miterlimit="10"/>
<path d="M681.743 380.521H522.596V699.32H681.743V380.521Z" stroke="#FFCF2D" stroke-width="2" stroke-miterlimit="10"/>
<path d="M685.914 340.608H140.132V380.522H716.601" stroke="#FFCF2D" stroke-width="2" stroke-miterlimit="10"/>
<path d="M657.207 455.451H547.133C541.913 455.451 537.672 451.205 537.672 445.98V407.069C537.672 401.843 541.913 397.598 547.133 397.598H657.207C662.426 397.598 666.667 401.843 666.667 407.069V446.003C666.667 451.228 662.426 455.451 657.207 455.451Z" stroke="#FFCF2D" stroke-width="2" stroke-miterlimit="10"/>
<path d="M657.207 525.901H547.133C541.913 525.901 537.672 521.656 537.672 516.43V477.519C537.672 472.294 541.913 468.048 547.133 468.048H657.207C662.426 468.048 666.667 472.294 666.667 477.519V516.43C666.667 521.656 662.426 525.901 657.207 525.901Z" stroke="#FFCF2D" stroke-width="2" stroke-miterlimit="10"/>
<path d="M602.542 433.616C606.724 433.616 610.115 430.222 610.115 426.035C610.115 421.848 606.724 418.453 602.542 418.453C598.36 418.453 594.969 421.848 594.969 426.035C594.969 430.222 598.36 433.616 602.542 433.616Z" stroke="#66B0F0" stroke-width="2" stroke-miterlimit="10"/>
<path d="M602.542 504.276C606.724 504.276 610.115 500.882 610.115 496.695C610.115 492.508 606.724 489.113 602.542 489.113C598.36 489.113 594.969 492.508 594.969 496.695C594.969 500.882 598.36 504.276 602.542 504.276Z" stroke="#66B0F0" stroke-width="2" stroke-miterlimit="10"/>
<path d="M649.82 592.711L649.657 593.715L649.587 594.298L647.164 609.764L646.908 611.42L645.813 618.465L645.416 620.938L644.391 627.47L644.135 629.126L641.642 645.129V645.199L641.385 646.855L641.246 647.602L638.869 662.905L638.612 664.561L637.494 671.77V671.793L637.098 674.266L636.096 680.611L635.84 682.267L633.346 698.34L633.323 698.433L633.207 699.18L633.183 699.343H567.707L567.684 699.157L567.567 698.503L567.544 698.293L565.028 682.244L564.771 680.564L563.793 674.336L563.42 671.84L562.278 664.515L562.022 662.858L559.645 647.672L559.505 646.809L559.249 645.176V645.153L556.732 629.08L556.476 627.423L555.474 621.008L555.101 618.535L553.983 611.374L553.727 609.717L551.327 594.368L551.07 592.711H649.82Z" fill="white"/>
<path d="M633.812 700.067H567.077L566.798 698.341L550.208 591.989H650.658L633.812 700.067ZM568.312 698.621H632.554L648.958 593.459H551.885L568.312 698.621Z" fill="#66B0F0"/>
<path d="M650.729 592.712C650.729 593.039 650.682 593.388 650.566 593.715C649.774 596.164 646.139 598.427 640.43 600.294C640.01 600.433 639.591 600.55 639.172 600.69C635.49 601.787 631.086 602.743 626.123 603.466C625.657 603.536 625.191 603.606 624.702 603.676C620.321 604.283 615.544 604.726 610.488 604.982C609.975 605.006 609.486 605.029 608.973 605.052C606.2 605.169 603.334 605.239 600.422 605.239C598.185 605.239 595.971 605.192 593.804 605.122C593.268 605.099 592.732 605.076 592.197 605.052C586.371 604.819 580.872 604.329 575.886 603.629C575.28 603.536 574.697 603.466 574.115 603.373C565.657 602.09 558.853 600.2 554.682 597.937C552.258 596.631 550.744 595.208 550.255 593.715L550.115 592.735C550.115 585.83 572.624 580.255 600.399 580.255C628.01 580.255 650.426 585.784 650.682 592.642C650.729 592.642 650.729 592.665 650.729 592.712Z" fill="#66B0F0"/>
<path d="M633.369 698.363V699.297L633.206 699.18L633.183 699.32H632.577L625.144 689.709L624.375 688.706L616.896 679.048L616.127 678.045L608.647 668.387L607.878 667.384L600.398 657.726L599.629 656.723L592.15 647.065L591.381 646.062L583.925 636.405L583.156 635.401L575.676 625.744L574.907 624.741L567.451 615.083L566.682 614.08L559.225 604.422L558.456 603.419L551.303 594.181L551.187 593.505C551.653 594.974 553.144 596.374 555.521 597.657L559.202 602.416L559.971 603.419L567.451 613.077L568.22 614.08L575.699 623.738L576.468 624.741L583.948 634.398L584.717 635.401L592.196 645.059L592.965 646.062L600.445 655.72L601.214 656.723L608.694 666.381L609.463 667.384L616.942 677.042L617.711 678.045L625.191 687.703L625.96 688.706L633.393 698.317L633.369 698.363Z" fill="#66B0F0"/>
<path d="M636.096 680.611L635.84 682.267L633.37 679.072L632.601 678.068L625.121 668.411L624.352 667.408L616.873 657.75L616.104 656.747L608.624 647.089L607.855 646.086L600.376 636.428L599.607 635.425L592.197 625.861L591.428 624.858L583.948 615.2L583.179 614.197L575.7 604.539L574.931 603.536L574.604 603.116C575.164 603.209 575.746 603.279 576.329 603.373L576.445 603.536L583.925 613.194L584.694 614.197L592.173 623.854L592.942 624.858L600.422 634.515L601.191 635.518L608.671 645.176L609.44 646.179L616.919 655.837L617.688 656.84L625.168 666.498L625.937 667.501L633.416 677.159L634.185 678.162L636.096 680.611Z" fill="#66B0F0"/>
<path d="M638.869 662.905L638.612 664.561L633.369 657.796L632.601 656.793L625.121 647.135L624.352 646.132L616.872 636.475L616.103 635.471L608.624 625.814L607.855 624.811L600.375 615.153L599.606 614.15L592.313 604.725C592.849 604.749 593.362 604.772 593.897 604.795L600.375 613.147L601.144 614.15L608.624 623.808L609.393 624.811L616.872 634.468L617.641 635.471L625.121 645.129L625.89 646.132L633.369 655.79L634.138 656.793L638.869 662.905Z" fill="#66B0F0"/>
<path d="M641.641 645.199L641.385 646.855L640.849 646.155L633.369 636.498L632.6 635.495L625.121 625.837L624.352 624.834L616.872 615.176L616.103 614.173L608.81 604.748C609.299 604.725 609.812 604.702 610.301 604.678L616.872 613.17L617.641 614.173L625.121 623.831L625.89 624.834L633.369 634.492L634.138 635.495L641.618 645.152L641.641 645.199Z" fill="#66B0F0"/>
<path d="M584.414 698.97L583.948 699.32L583.925 699.343H583.156L575.7 689.732L574.931 688.729L567.474 679.071L566.705 678.092L563.793 674.336L563.42 671.84L567.474 677.089L568.243 678.092L575.7 687.726L576.469 688.729L583.948 698.387L584.414 698.97Z" fill="#66B0F0"/>
<path d="M567.916 698.97L567.683 699.157L567.567 698.504L567.916 698.97Z" fill="#66B0F0"/>
<path d="M600.888 698.97L600.422 699.32L600.398 699.343H599.629L592.196 689.732L591.427 688.729L583.948 679.071L583.179 678.092L575.699 668.434L574.93 667.454V667.431L567.474 657.796L566.705 656.793L559.645 647.672L559.505 646.809L559.249 645.176L559.994 646.156L567.474 655.814L568.243 656.793L575.699 666.451L576.468 667.454L583.948 677.089L584.717 678.092L592.196 687.726L592.965 688.729L600.422 698.387L600.888 698.97Z" fill="#66B0F0"/>
<path d="M617.362 698.97L616.896 699.32L616.873 699.343H616.104L608.671 689.732L607.902 688.729L600.422 679.071L599.653 678.091L592.197 668.434L591.428 667.454L583.948 657.796L583.179 656.793L575.7 647.159L574.931 646.156L567.474 636.498L566.706 635.518L559.226 625.86L558.457 624.881L555.474 621.008L555.102 618.535L559.226 623.877L559.995 624.881L567.474 634.515L568.243 635.518L575.7 645.152L576.469 646.156L583.948 655.813L584.717 656.793L592.197 666.451L592.966 667.454L600.422 677.088L601.191 678.091L608.671 687.726L609.44 688.729L616.896 698.387L617.362 698.97Z" fill="#66B0F0"/>
<path d="M644.391 627.47L644.135 629.127L641.618 625.861L640.849 624.858L633.369 615.2L632.601 614.197L625.121 604.539L624.352 603.536L624.259 603.419C624.725 603.349 625.191 603.279 625.634 603.209L625.89 603.536L633.369 613.194L634.138 614.197L641.618 623.854L642.387 624.858L644.391 627.47Z" fill="#66B0F0"/>
<path d="M647.164 609.765L646.907 611.421L641.618 604.586L640.849 603.583L638.496 600.527C638.915 600.41 639.334 600.27 639.731 600.13L641.618 602.58L642.387 603.583L647.164 609.765Z" fill="#66B0F0"/>
<path d="M650.496 593.085L649.843 593.925L649.657 593.692C649.773 593.365 649.82 593.038 649.82 592.712C649.82 592.665 649.82 592.642 649.82 592.595L649.843 592.572L650.496 593.085Z" fill="#66B0F0"/>
<path d="M645.813 618.466L645.416 620.939L642.387 624.881L641.618 625.861L634.139 635.519L633.37 636.499L625.913 646.156L625.144 647.16L617.665 656.794L616.896 657.797L609.439 667.455L608.671 668.435L601.191 678.092L600.422 679.072L592.966 688.73L592.197 689.733L584.74 699.344H583.971L583.948 699.321L583.505 698.971L583.948 698.388L591.428 688.73L592.197 687.727L599.653 678.092L600.422 677.089L607.902 667.455L608.671 666.452L616.127 656.794L616.896 655.814L624.376 646.156L625.144 645.153L632.601 635.519L633.37 634.516L640.849 624.881L641.618 623.878L645.813 618.466Z" fill="#66B0F0"/>
<path d="M649.587 594.298L642.387 603.606L641.618 604.609L634.139 614.267L633.37 615.27L625.89 624.928L625.121 625.931L617.641 635.589L616.872 636.592L609.439 646.156L608.67 647.159L601.191 656.817L600.422 657.82L592.942 667.478L592.173 668.481L584.694 678.139L583.925 679.142L576.445 688.8L575.676 689.803L568.243 699.414H567.684L567.661 699.227L567.567 698.574L567.474 698.457L567.544 698.364L574.954 688.8L575.723 687.797L583.202 678.139L583.971 677.136L591.451 667.478L592.22 666.475L599.7 656.817L600.468 655.814L607.948 646.156L608.717 645.153L616.197 635.496L616.966 634.492L624.445 624.835L625.214 623.832L632.694 614.174L633.463 613.171L640.919 603.513L641.688 602.51L645.346 597.774C647.746 596.491 649.261 595.092 649.75 593.599L649.587 594.298Z" fill="#66B0F0"/>
<path d="M626.215 603.187L625.889 603.606L625.12 604.609L617.641 614.267L616.872 615.27L609.392 624.928L608.623 625.931L601.143 635.589L600.375 636.592L592.895 646.25L592.126 647.253L584.646 656.911L583.877 657.914L576.398 667.571L575.629 668.575L568.149 678.232L567.38 679.235L564.934 682.385L564.677 680.728L566.611 678.232L567.38 677.229L574.837 667.571L575.605 666.568L583.085 656.911L583.854 655.908L591.31 646.25L592.079 645.247L599.559 635.589L600.328 634.586L607.808 624.928L608.577 623.925L616.056 614.267L616.825 613.264L624.305 603.606L624.421 603.443C624.817 603.396 625.214 603.326 625.586 603.28C625.843 603.233 626.029 603.21 626.215 603.187Z" fill="#66B0F0"/>
<path d="M608.484 604.82L601.19 614.221L600.421 615.224L592.942 624.882L592.173 625.885L584.693 635.542L583.924 636.545L576.445 646.203L575.676 647.206L568.196 656.864L567.427 657.867L562.231 664.586L561.975 662.929L566.658 656.864L567.427 655.861L574.907 646.203L575.676 645.2L583.155 635.542L583.924 634.539L591.404 624.882L592.173 623.878L599.652 614.221L600.421 613.218L606.899 604.866C607.412 604.866 607.948 604.843 608.484 604.82Z" fill="#66B0F0"/>
<path d="M637.493 671.794L637.097 674.267L634.138 678.092L633.369 679.072L625.913 688.73L625.144 689.733L617.688 699.344H616.919L616.895 699.321L616.453 698.971L616.895 698.388L624.375 688.73L625.144 687.727L632.6 678.092L633.369 677.089L637.493 671.794Z" fill="#66B0F0"/>
<path d="M641.245 647.603L634.138 656.794L633.369 657.797L625.913 667.455L625.144 668.435L617.664 678.092L616.895 679.072L609.439 688.73L608.67 689.733L601.213 699.344H600.445L600.421 699.321L599.979 698.971L600.421 698.388L607.901 688.73L608.67 687.727L616.126 678.092L616.895 677.089L624.375 667.455L625.144 666.452L632.6 656.794L633.369 655.814L640.849 646.157L641.618 645.153L641.641 645.13V645.2L641.385 646.856L641.245 647.603Z" fill="#66B0F0"/>
<path d="M592.01 604.796L584.717 614.22L583.948 615.223L576.468 624.881L575.699 625.884L568.22 635.542L567.451 636.545L559.971 646.203L559.482 646.856L559.225 645.246L559.202 645.223L559.225 645.2L566.682 635.565L567.451 634.562L574.907 624.905L575.676 623.901L583.156 614.244L583.925 613.241L590.496 604.749C591.031 604.749 591.521 604.773 592.01 604.796Z" fill="#66B0F0"/>
<path d="M576.584 603.466L576.491 603.606L575.722 604.609L568.243 614.267L567.474 615.27L559.994 624.928L559.225 625.931L556.732 629.15L556.476 627.494L558.456 624.928L559.225 623.925L566.681 614.267L567.45 613.264L574.93 603.606L575.186 603.28C575.559 603.326 575.955 603.396 576.351 603.443L576.584 603.466Z" fill="#66B0F0"/>
<path d="M562.371 600.527L559.994 603.583L559.225 604.586L553.959 611.374L553.703 609.718L558.457 603.583L559.225 602.58L561.136 600.13C561.532 600.27 561.952 600.41 562.371 600.527Z" fill="#66B0F0"/>
<path d="M654.62 579.018H633.113V572.463H646.162C650.24 572.463 653.641 575.262 654.62 579.018Z" fill="white" stroke="#FFCF2D" stroke-width="3" stroke-miterlimit="10"/>
<path d="M646.302 572.463C640.197 572.533 634.861 576.615 633.23 582.517L628.267 600.55C627.568 600.667 626.845 600.783 626.123 600.876C625.657 600.946 625.191 601.016 624.702 601.086C620.321 601.693 615.544 602.136 610.488 602.393C609.975 602.416 609.486 602.439 608.973 602.463C606.2 602.579 603.334 602.649 600.422 602.649C598.185 602.649 595.971 602.603 593.804 602.533C593.268 602.509 592.732 602.486 592.197 602.463C591.987 602.463 591.777 602.439 591.567 602.439L597.066 582.517C598.697 576.569 604.103 572.463 610.278 572.463H646.302V572.463Z" fill="white" stroke="#FFCF2D" stroke-width="3" stroke-miterlimit="10"/>
<path d="M631.575 183.752L686.589 340.608H485.128L538.674 183.752H631.575Z" fill="#FFCF2D"/>
<path d="M585.555 165.066C585.555 158.534 590.845 153.239 597.369 153.239H604.196C610.72 153.239 616.01 158.534 616.01 165.066V318.12" stroke="#66B0F0" stroke-width="2" stroke-miterlimit="10"/>
<path d="M631.877 335.616V340.351H582.06V335.616C582.06 331.58 583.434 327.848 585.741 324.885C588.933 320.779 593.943 318.12 599.535 318.12H614.378C614.611 318.12 614.868 318.12 615.101 318.143C624.444 318.516 631.877 326.191 631.877 335.616Z" fill="white" stroke="#FE5244" stroke-width="2" stroke-miterlimit="10"/>
<path d="M642.946 184.404H527.676V180.788C527.676 172.134 534.689 165.135 543.311 165.135H627.311C635.956 165.135 642.946 172.157 642.946 180.788V184.404Z" fill="#FE5244"/>
<path d="M642.946 181.512H527.676" stroke="white" stroke-miterlimit="10" stroke-linecap="round"/>
<path d="M630.899 184.404C630.899 188.533 628.336 191.893 625.144 191.893H544.476C541.307 191.893 538.72 188.533 538.72 184.404H630.899Z" fill="white"/>
<path d="M616.009 322.692C616.009 330.18 609.182 336.269 600.77 336.269C593.198 336.269 586.906 331.347 585.741 324.885C588.933 320.779 593.943 318.12 599.535 318.12H614.378C614.611 318.12 614.868 318.12 615.101 318.143C615.706 319.566 616.009 321.106 616.009 322.692Z" fill="white" stroke="#FE5244" stroke-width="2" stroke-miterlimit="10"/>
<path d="M601.19 314.924V322.249C601.19 323.742 599.816 324.955 598.138 324.955C596.46 324.955 595.085 323.742 595.085 322.249V314.924H595.132C595.412 316.207 596.647 317.187 598.115 317.187C599.583 317.187 600.818 316.207 601.097 314.924H601.19Z" fill="#FE5244"/>
<path d="M600.538 314.667C600.538 314.831 600.515 314.994 600.491 315.157C600.282 316.324 599.303 317.187 598.115 317.187C596.95 317.187 595.971 316.324 595.738 315.157C595.715 314.994 595.691 314.831 595.691 314.667C595.691 313.268 596.763 312.148 598.115 312.148C599.443 312.148 600.538 313.291 600.538 314.667Z" fill="white" stroke="#FE5244" stroke-width="2" stroke-miterlimit="10"/>
<path d="M521.175 234.279H513.206V340.608H521.175V234.279Z" fill="#3FB1B5"/>
<path d="M509.874 340.608H496.219C494.774 340.608 493.609 339.442 493.609 337.995V258.96C493.609 257.514 494.774 256.348 496.219 256.348H509.874C511.318 256.348 512.483 257.514 512.483 258.96V337.995C512.483 339.442 511.318 340.608 509.874 340.608Z" fill="white" stroke="#FFCF2D" stroke-width="2" stroke-miterlimit="10"/>
<path d="M553.796 338.905H538.114C536.973 338.905 535.994 338.088 535.784 336.969L521.711 263.766C521.431 262.296 522.549 260.943 524.041 260.943H539.722C540.864 260.943 541.843 261.76 542.052 262.879L556.126 336.082C556.406 337.552 555.287 338.905 553.796 338.905Z" stroke="#66B0F0" stroke-width="2" stroke-miterlimit="10"/>
<path d="M490.487 340.608H416.623C414.899 340.608 413.5 339.208 413.5 337.482V322.342C413.5 320.616 414.899 319.216 416.623 319.216H490.487C492.212 319.216 493.61 320.616 493.61 322.342V337.482C493.61 339.208 492.212 340.608 490.487 340.608Z" fill="#FE5244"/>
<path d="M213.88 81.1082V129.35C213.88 138.798 206.214 146.473 196.777 146.473H143.348C152.785 146.473 160.451 138.821 160.451 129.35V81.1082H213.88Z" fill="white" stroke="#FFCF2D" stroke-width="2" stroke-miterlimit="10"/>
<path d="M189.204 76.4426H184.893V86.7302H189.204V76.4426Z" fill="#FE5244"/>
<path d="M198.338 99.444C197.732 99.444 197.127 99.2107 196.637 98.7675L194.843 97.1812C194.284 96.6913 193.538 96.6913 192.979 97.1812L191.278 98.6975C190.276 99.584 188.878 99.584 187.853 98.6975L186.292 97.3212C185.732 96.8313 184.987 96.8313 184.428 97.3212L182.983 98.6042C181.981 99.4907 180.583 99.4907 179.558 98.6042L178.369 97.5545C177.81 97.0646 177.064 97.0646 176.505 97.5545L175.224 98.6975C174.222 99.584 172.824 99.584 171.798 98.6975L170.61 97.6478C170.051 97.1579 169.305 97.1579 168.746 97.6478C168.513 97.8577 168.14 97.8344 167.93 97.6011C167.721 97.3678 167.744 96.9946 167.977 96.7846C168.979 95.8982 170.377 95.8982 171.402 96.7846L172.591 97.8344C173.15 98.3243 173.895 98.3243 174.455 97.8344L175.736 96.6913C176.738 95.8049 178.136 95.8049 179.162 96.6913L180.35 97.7411C180.909 98.231 181.655 98.231 182.214 97.7411L183.659 96.458C184.661 95.5716 186.059 95.5716 187.084 96.458L188.645 97.8344C189.204 98.3243 189.95 98.3243 190.509 97.8344L192.21 96.3181C193.212 95.4316 194.61 95.4316 195.635 96.3181L197.43 97.9044C197.989 98.3943 198.734 98.3943 199.294 97.9044L201.158 96.2481C202.16 95.3616 203.558 95.3616 204.583 96.2481C204.816 96.458 204.839 96.8313 204.63 97.0646C204.42 97.2979 204.047 97.3212 203.814 97.1112C203.255 96.6213 202.509 96.6213 201.95 97.1112L200.086 98.7675C199.527 99.2107 198.944 99.444 198.338 99.444Z" fill="#FFCF2D"/>
<path d="M198.338 109.032C197.732 109.032 197.126 108.799 196.637 108.356L194.843 106.769C194.283 106.279 193.538 106.279 192.979 106.769L191.278 108.286C190.276 109.172 188.878 109.172 187.852 108.286L186.291 106.909C185.732 106.419 184.986 106.419 184.427 106.909L182.982 108.192C181.98 109.079 180.582 109.079 179.557 108.192L178.369 107.143C177.81 106.653 177.064 106.653 176.505 107.143L175.223 108.286C174.221 109.172 172.823 109.172 171.798 108.286L170.61 107.236C170.05 106.746 169.305 106.746 168.745 107.236C168.512 107.446 168.14 107.423 167.93 107.189C167.72 106.956 167.743 106.583 167.976 106.373C168.978 105.486 170.376 105.486 171.402 106.373L172.59 107.423C173.149 107.912 173.895 107.912 174.454 107.423L175.736 106.279C176.738 105.393 178.136 105.393 179.161 106.279L180.349 107.329C180.909 107.819 181.654 107.819 182.213 107.329L183.658 106.046C184.66 105.16 186.058 105.16 187.083 106.046L188.645 107.423C189.204 107.912 189.949 107.912 190.509 107.423L192.21 105.906C193.212 105.02 194.61 105.02 195.635 105.906L197.429 107.493C197.988 107.982 198.734 107.982 199.293 107.493L201.157 105.836C202.159 104.95 203.557 104.95 204.582 105.836C204.816 106.046 204.839 106.419 204.629 106.653C204.419 106.886 204.047 106.909 203.814 106.699C203.254 106.209 202.509 106.209 201.949 106.699L200.085 108.356C199.526 108.822 198.944 109.032 198.338 109.032Z" fill="#FFCF2D"/>
<path d="M198.338 118.62C197.732 118.62 197.126 118.387 196.637 117.943L194.843 116.357C194.283 115.867 193.538 115.867 192.979 116.357L191.278 117.873C190.276 118.76 188.878 118.76 187.852 117.873L186.291 116.497C185.732 116.007 184.986 116.007 184.427 116.497L182.982 117.78C181.98 118.666 180.582 118.666 179.557 117.78L178.369 116.73C177.81 116.24 177.064 116.24 176.505 116.73L175.223 117.873C174.221 118.76 172.823 118.76 171.798 117.873L170.61 116.824C170.05 116.334 169.305 116.334 168.745 116.824C168.512 117.034 168.14 117.01 167.93 116.777C167.72 116.544 167.743 116.17 167.976 115.96C168.978 115.074 170.376 115.074 171.402 115.96L172.59 117.01C173.149 117.5 173.895 117.5 174.454 117.01L175.736 115.867C176.738 114.981 178.136 114.981 179.161 115.867L180.349 116.917C180.909 117.407 181.654 117.407 182.213 116.917L183.658 115.634C184.66 114.747 186.058 114.747 187.083 115.634L188.645 117.01C189.204 117.5 189.949 117.5 190.509 117.01L192.21 115.494C193.212 114.607 194.61 114.607 195.635 115.494L197.429 117.08C197.988 117.57 198.734 117.57 199.293 117.08L201.157 115.424C202.159 114.537 203.557 114.537 204.582 115.424C204.816 115.634 204.839 116.007 204.629 116.24C204.419 116.474 204.047 116.497 203.814 116.287C203.254 115.797 202.509 115.797 201.949 116.287L200.085 117.943C199.526 118.41 198.944 118.62 198.338 118.62Z" fill="#FFCF2D"/>
<path d="M198.338 128.231C197.732 128.231 197.126 127.998 196.637 127.554L194.843 125.968C194.283 125.478 193.538 125.478 192.979 125.968L191.278 127.484C190.276 128.371 188.878 128.371 187.852 127.484L186.291 126.108C185.732 125.618 184.986 125.618 184.427 126.108L182.982 127.391C181.98 128.278 180.582 128.278 179.557 127.391L178.369 126.341C177.81 125.851 177.064 125.851 176.505 126.341L175.223 127.484C174.221 128.371 172.823 128.371 171.798 127.484L170.61 126.435C170.05 125.945 169.305 125.945 168.745 126.435C168.512 126.645 168.14 126.621 167.93 126.388C167.72 126.155 167.743 125.781 167.976 125.572C168.978 124.685 170.376 124.685 171.402 125.572L172.59 126.621C173.149 127.111 173.895 127.111 174.454 126.621L175.736 125.478C176.738 124.592 178.136 124.592 179.161 125.478L180.349 126.528C180.909 127.018 181.654 127.018 182.213 126.528L183.658 125.245C184.66 124.358 186.058 124.358 187.083 125.245L188.645 126.621C189.204 127.111 189.949 127.111 190.509 126.621L192.21 125.105C193.212 124.218 194.61 124.218 195.635 125.105L197.429 126.691C197.988 127.181 198.734 127.181 199.293 126.691L201.157 125.035C202.159 124.149 203.557 124.149 204.582 125.035C204.816 125.245 204.839 125.618 204.629 125.851C204.419 126.085 204.047 126.108 203.814 125.898C203.254 125.408 202.509 125.408 201.949 125.898L200.085 127.554C199.526 127.998 198.944 128.231 198.338 128.231Z" fill="#FFCF2D"/>
<path d="M268.894 81.1086H231.519V118.527H268.894V81.1086Z" fill="#66B0F0"/>
<path d="M239.735 79.5083L237.025 76.1516L227.148 84.1434L229.858 87.5002L239.735 79.5083Z" fill="#FFCF2D"/>
<path d="M270.833 87.4956L273.542 84.1389L263.665 76.1471L260.955 79.5038L270.833 87.4956Z" fill="#FFCF2D"/>
<path d="M260.995 89.9731H238.323V91.3728H260.995V89.9731Z" fill="white"/>
<path d="M260.995 96.0149H238.323V97.4146H260.995V96.0149Z" fill="white"/>
<path d="M260.995 102.08H238.323V103.48H260.995V102.08Z" fill="white"/>
<path d="M260.995 108.122H238.323V109.522H260.995V108.122Z" fill="white"/>
<path d="M411.753 340.608H324.63L341.5 303.283L343.97 297.801H392.413L399.217 312.848L411.753 340.608Z" fill="white" stroke="#66B0F0" stroke-width="2" stroke-miterlimit="10"/>
<path d="M399.217 312.848L341.5 303.284L343.97 297.802H392.413L399.217 312.848Z" fill="#66B0F0"/>
<path d="M470.868 297.801H265.795C258.269 297.801 252.187 291.689 252.187 284.178V150.159C252.187 142.624 258.292 136.535 265.795 136.535H470.868C478.394 136.535 484.476 142.647 484.476 150.159V284.154C484.476 291.689 478.371 297.801 470.868 297.801Z" fill="white" stroke="#66B0F0" stroke-width="2" stroke-miterlimit="10"/>
<path d="M409.423 288.33H327.216C323.209 288.33 319.97 285.087 319.97 281.075V271.114C319.97 267.101 323.209 263.859 327.216 263.859H409.423C413.43 263.859 416.669 267.101 416.669 271.114V281.075C416.669 285.087 413.407 288.33 409.423 288.33Z" fill="#66B0F0"/>
<path d="M387.846 281.681H382.3C380.925 281.681 379.807 280.562 379.807 279.185V274.846C379.807 273.47 380.925 272.35 382.3 272.35H387.846C389.22 272.35 390.339 273.47 390.339 274.846V279.185C390.339 280.562 389.22 281.681 387.846 281.681Z" fill="white"/>
<path d="M394.906 280.958L392.855 279.652C392.296 279.302 391.946 278.672 391.946 277.996V276.036C391.946 275.359 392.296 274.73 392.855 274.38L394.906 273.073C395.395 272.77 396.024 273.12 396.024 273.68V280.328C396.047 280.912 395.395 281.261 394.906 280.958Z" fill="white"/>
<path d="M366.828 279.489H366.315C364.288 279.489 362.634 277.832 362.634 275.803V273.633C362.634 273.447 362.797 273.283 362.983 273.283H370.137C370.323 273.283 370.486 273.447 370.486 273.633V275.803C370.51 277.832 368.855 279.489 366.828 279.489ZM363.333 273.983V275.803C363.333 277.436 364.661 278.789 366.315 278.789H366.828C368.459 278.789 369.811 277.459 369.811 275.803V273.983H363.333Z" fill="white"/>
<path d="M366.572 283.524C366.385 283.524 366.222 283.361 366.222 283.174V280.538C366.222 280.352 366.385 280.188 366.572 280.188C366.758 280.188 366.921 280.352 366.921 280.538V283.174C366.921 283.361 366.758 283.524 366.572 283.524Z" fill="white"/>
<path d="M368.412 283.525H364.754C364.567 283.525 364.404 283.361 364.404 283.175C364.404 282.988 364.567 282.825 364.754 282.825H368.412C368.599 282.825 368.762 282.988 368.762 283.175C368.762 283.361 368.599 283.525 368.412 283.525Z" fill="white"/>
<path d="M366.735 277.855H366.409C365.244 277.855 364.312 276.922 364.312 275.756V271.51C364.312 270.344 365.244 269.411 366.409 269.411H366.735C367.9 269.411 368.832 270.344 368.832 271.51V275.756C368.832 276.922 367.9 277.855 366.735 277.855Z" fill="white"/>
<path d="M345.298 275.22L345.275 275.243C344.832 275.779 344.972 276.596 345.555 277.086L347.698 278.812C348.281 279.279 349.12 279.232 349.562 278.695L349.586 278.672C350.028 278.135 350.867 278.112 351.426 278.602L353.36 280.352C353.966 280.912 353.966 281.845 353.36 282.265C351.333 283.688 348.7 283.174 346.533 281.425L343.271 278.789C341.104 277.016 340.056 274.543 341.011 272.257C341.314 271.557 342.223 271.37 342.875 271.86L344.995 273.4C345.578 273.866 345.718 274.683 345.298 275.22Z" fill="white"/>
<path d="M350.983 276.573C350.797 276.573 350.657 276.433 350.634 276.246C350.517 274.566 349.073 273.283 347.395 273.4C347.209 273.4 347.046 273.26 347.022 273.073C346.999 272.887 347.162 272.724 347.348 272.7C349.422 272.56 351.193 274.147 351.333 276.199C351.356 276.386 351.216 276.549 350.983 276.573C351.007 276.573 351.007 276.573 350.983 276.573Z" fill="white"/>
<path d="M353.175 276.223C352.988 276.223 352.848 276.083 352.825 275.896C352.732 274.496 352.103 273.19 351.031 272.257C349.959 271.324 348.608 270.857 347.21 270.951C347.023 270.951 346.86 270.811 346.837 270.624C346.813 270.437 346.976 270.274 347.163 270.251C348.747 270.157 350.285 270.671 351.497 271.72C352.709 272.77 353.408 274.24 353.524 275.826C353.547 276.059 353.384 276.223 353.175 276.223C353.198 276.223 353.198 276.223 353.175 276.223Z" fill="white"/>
<path d="M431.978 149.156C433.316 149.156 434.401 148.069 434.401 146.73C434.401 145.39 433.316 144.303 431.978 144.303C430.64 144.303 429.555 145.39 429.555 146.73C429.555 148.069 430.64 149.156 431.978 149.156Z" stroke="#FFCF2D" stroke-width="2" stroke-miterlimit="10"/>
<path d="M441.881 149.155C443.22 149.155 444.305 148.069 444.305 146.729C444.305 145.389 443.22 144.303 441.881 144.303C440.543 144.303 439.458 145.389 439.458 146.729C439.458 148.069 440.543 149.155 441.881 149.155Z" stroke="#FFCF2D" stroke-width="2" stroke-miterlimit="10"/>
<path d="M451.808 149.155C453.146 149.155 454.231 148.069 454.231 146.729C454.231 145.389 453.146 144.303 451.808 144.303C450.469 144.303 449.384 145.389 449.384 146.729C449.384 148.069 450.469 149.155 451.808 149.155Z" stroke="#FFCF2D" stroke-width="2" stroke-miterlimit="10"/>
<path d="M359.698 257.887H286.673C284.436 257.887 282.642 256.067 282.642 253.851V214.707C282.642 212.468 284.459 210.671 286.673 210.671H359.698C361.935 210.671 363.729 212.491 363.729 214.707V253.851C363.729 256.067 361.935 257.887 359.698 257.887Z" stroke="#66B0F0" stroke-width="2" stroke-miterlimit="10"/>
<path d="M451.808 257.887H378.782C376.545 257.887 374.751 256.067 374.751 253.851V214.707C374.751 212.468 376.568 210.671 378.782 210.671H451.808C454.045 210.671 455.839 212.491 455.839 214.707V253.851C455.839 256.067 454.045 257.887 451.808 257.887Z" fill="#3FB1B5"/>
<path d="M438.013 257.77H390.292C395.115 251.822 402.478 247.996 410.727 247.996H417.578C425.826 248.019 433.189 251.822 438.013 257.77Z" fill="#FE5244"/>
<path d="M412.661 248.019C412.195 251.542 409.189 254.248 405.554 254.248C402.875 254.248 400.545 252.778 399.31 250.608C402.758 248.952 406.626 248.019 410.704 248.019H412.661V248.019Z" fill="white"/>
<path d="M426.758 249.652C425.71 252.335 423.123 254.225 420.071 254.225C416.436 254.225 413.43 251.519 412.964 247.996H417.601C420.816 248.019 423.892 248.579 426.758 249.652Z" fill="white"/>
<path d="M421.515 237.615V248.206C421.515 249.862 418.207 251.192 414.152 251.192C413.407 251.192 412.684 251.145 412.008 251.075C408.979 250.702 406.789 249.559 406.789 248.206V237.615H421.515Z" fill="#A0505A"/>
<path d="M420.537 239.784C420.537 244.38 416.529 249.955 412.008 251.052C408.979 250.679 406.789 249.535 406.789 248.182V237.592H420.304L420.537 239.784Z" fill="#73325A"/>
<path d="M425.29 236.262V236.519C425.29 238.315 423.822 239.785 422.027 239.785H418.905C417.484 242.841 414.385 244.94 410.796 244.94H410.19C406.183 244.94 402.944 241.698 402.944 237.685V230.197C407.581 230.5 413.476 226.441 413.476 226.441C415.41 233.929 420.932 233.836 423.495 233.346C424.544 233.883 425.29 235.002 425.29 236.262Z" fill="#A0505A"/>
<path d="M420.7 237.405C420.514 237.405 420.351 237.242 420.351 237.055C420.351 235.562 421.562 234.349 423.054 234.349C423.24 234.349 423.403 234.513 423.403 234.699C423.403 234.886 423.24 235.049 423.054 235.049C421.958 235.049 421.05 235.936 421.05 237.055C421.05 237.242 420.887 237.405 420.7 237.405Z" fill="#73325A"/>
<path d="M421.515 239.784H422.028C423.822 239.784 425.29 238.315 425.29 236.518V236.262C425.29 234.979 424.568 233.882 423.496 233.346C422.797 233.486 421.841 233.579 420.816 233.509C418.16 233.299 414.874 231.853 413.476 226.441C413.476 226.441 407.581 230.5 402.944 230.197C402.082 230.15 401.267 229.94 400.544 229.52C396.7 227.327 405.997 217.063 416.669 218.603C425.197 219.839 425.01 230.057 424.847 232.483C425.267 232.436 425.686 232.413 426.106 232.413C432.35 232.413 437.407 237.218 437.407 243.167C437.407 247.039 435.263 250.445 432.024 252.335C428.925 250.282 425.36 248.882 421.515 248.299V239.784Z" fill="#FFCF2D"/>
<path d="M407.651 237.662C407.604 237.662 407.558 237.662 407.534 237.638C407.348 237.568 407.255 237.358 407.325 237.195C407.325 237.172 408.024 235.282 406.859 233.253C405.857 231.503 403.643 231.806 403.55 231.83C403.364 231.853 403.177 231.736 403.154 231.526C403.131 231.34 403.247 231.153 403.457 231.13C403.573 231.106 406.23 230.733 407.488 232.903C408.816 235.212 408.024 237.358 408 237.428C407.907 237.568 407.791 237.662 407.651 237.662Z" fill="#73325A"/>
<path d="M415.597 233.229C415.527 233.229 415.457 233.206 415.387 233.159C413.36 231.596 410.657 231.783 410.634 231.783C410.447 231.806 410.284 231.643 410.261 231.457C410.238 231.27 410.401 231.107 410.587 231.083C410.704 231.083 413.57 230.873 415.807 232.6C415.97 232.716 415.993 232.926 415.877 233.089C415.783 233.183 415.69 233.229 415.597 233.229Z" fill="#73325A"/>
<path d="M406.439 238.455C406.439 238.455 406.999 242.141 410.797 238.548C410.797 238.548 408.14 238.898 406.439 238.455Z" fill="white"/>
<path d="M412.288 235.352C412.558 235.352 412.777 234.861 412.777 234.256C412.777 233.65 412.558 233.159 412.288 233.159C412.017 233.159 411.798 233.65 411.798 234.256C411.798 234.861 412.017 235.352 412.288 235.352Z" fill="#73325A"/>
<path d="M405.018 235.166C405.25 235.166 405.437 234.758 405.437 234.256C405.437 233.753 405.25 233.346 405.018 233.346C404.786 233.346 404.599 233.753 404.599 234.256C404.599 234.758 404.786 235.166 405.018 235.166Z" fill="#73325A"/>
<path d="M450.899 204.396H377.873C375.636 204.396 373.842 202.577 373.842 200.361V161.216C373.842 158.977 375.66 157.181 377.873 157.181H450.899C453.136 157.181 454.93 159 454.93 161.216V200.361C454.93 202.577 453.113 204.396 450.899 204.396Z" fill="#66B0F0"/>
<path d="M436.033 204.396H391.458C395.956 198.401 402.829 194.575 410.542 194.575H416.95C424.663 194.575 431.536 198.401 436.033 204.396Z" fill="#FFCF2D"/>
<path d="M411.381 202.389H412.383C416.741 202.389 420.282 198.843 420.282 194.481V188.859C420.282 188.836 420.259 188.812 420.236 188.812H405.579C405.556 188.812 405.533 188.836 405.533 188.859V196.581C405.556 199.8 408.166 202.389 411.381 202.389Z" fill="white"/>
<path d="M405.556 188.812V196.394C405.556 196.487 405.556 196.604 405.556 196.697C405.766 201.036 416.554 199.333 419.793 188.812H405.556Z" fill="#FFCF2D"/>
<path d="M424.546 185.43C424.546 186.363 424.174 187.203 423.544 187.833C422.939 188.44 422.1 188.813 421.144 188.813H417.952C416.81 191.845 413.874 193.992 410.449 193.992H407.956C404.484 193.992 401.688 191.169 401.688 187.716V177.919C405.276 178.222 408.306 175.329 408.422 175.213C408.375 175.376 406.558 180.508 410.682 180.788C414.783 181.068 416.135 178.105 416.181 177.989C416.181 178.105 416.205 182.071 419.443 182.281H421.144C423.032 182.281 424.546 183.564 424.546 185.43Z" fill="white"/>
<path d="M419.746 182.281H419.676C419.606 182.281 419.536 182.281 419.466 182.281C416.227 182.071 416.204 178.128 416.204 177.988C416.157 178.105 414.783 181.068 410.705 180.788C406.604 180.508 408.398 175.376 408.445 175.212C408.328 175.306 405.299 178.222 401.711 177.918C400.918 177.848 400.126 177.639 399.311 177.195C394.068 174.349 397.447 168.494 402.596 168.424C406.697 168.377 408.445 170.617 408.445 170.617C408.445 170.617 409.33 166.021 414.363 166.814C419.396 167.608 418.487 172.063 418.487 172.063C418.487 172.063 422.705 170.104 425.035 173.719C427.785 177.965 423.66 182.281 419.746 182.281Z" fill="#FE5244"/>
<path d="M405.975 186.55C405.952 186.55 405.928 186.55 405.882 186.55C405.695 186.503 405.579 186.317 405.625 186.13C405.625 186.107 406.185 183.797 405.183 181.908C404.087 179.902 402.2 180.228 402.13 180.228C401.944 180.251 401.757 180.135 401.734 179.948C401.688 179.762 401.827 179.575 402.014 179.552C402.037 179.552 404.484 179.108 405.812 181.581C406.954 183.704 406.348 186.2 406.324 186.293C406.255 186.433 406.115 186.55 405.975 186.55Z" fill="#FFCF2D"/>
<path d="M407.21 189.256C406.721 189.256 406.278 189.186 405.952 189.093C405.766 189.046 405.649 188.86 405.696 188.673C405.742 188.486 405.929 188.37 406.115 188.416C406.232 188.44 408.888 189.139 409.867 187.087C409.96 186.923 410.146 186.83 410.333 186.923C410.519 187.017 410.589 187.203 410.496 187.39C409.82 188.86 408.399 189.256 407.21 189.256Z" fill="#FFCF2D"/>
<path d="M410.588 183.75C410.859 183.75 411.078 183.26 411.078 182.654C411.078 182.048 410.859 181.558 410.588 181.558C410.318 181.558 410.099 182.048 410.099 182.654C410.099 183.26 410.318 183.75 410.588 183.75Z" fill="#FFCF2D"/>
<path d="M403.342 183.564C403.573 183.564 403.761 183.157 403.761 182.654C403.761 182.152 403.573 181.744 403.342 181.744C403.11 181.744 402.922 182.152 402.922 182.654C402.922 183.157 403.11 183.564 403.342 183.564Z" fill="#FFCF2D"/>
<path d="M419.396 186.713C419.21 186.713 419.047 186.55 419.047 186.363C419.047 184.87 420.259 183.657 421.75 183.657C421.936 183.657 422.099 183.82 422.099 184.007C422.099 184.194 421.936 184.357 421.75 184.357C420.655 184.357 419.746 185.243 419.746 186.363C419.746 186.55 419.583 186.713 419.396 186.713Z" fill="#FFCF2D"/>
<path d="M358.766 204.396H285.74C283.503 204.396 281.709 202.577 281.709 200.361V161.216C281.709 158.977 283.526 157.181 285.74 157.181H358.766C361.003 157.181 362.797 159 362.797 161.216V200.361C362.82 202.577 361.003 204.396 358.766 204.396Z" fill="#FFCF2D"/>
<path d="M341.126 204.396H295.829C300.396 197.561 307.386 193.198 315.216 193.198H321.74C329.569 193.198 336.536 197.561 341.126 204.396Z" fill="white"/>
<path d="M341.126 204.396H295.829C295.969 204.186 296.109 203.999 296.248 203.789C296.272 203.742 296.295 203.696 296.342 203.672H340.637C340.66 203.719 340.684 203.742 340.73 203.789C340.847 203.976 340.987 204.186 341.126 204.396Z" fill="#FEB040"/>
<path d="M339.216 201.853H297.74C297.949 201.596 298.159 201.363 298.369 201.13H338.587C338.796 201.363 339.006 201.596 339.216 201.853Z" fill="#FEB040"/>
<path d="M336.652 199.193H300.303C300.582 198.937 300.862 198.703 301.142 198.47H335.814C336.093 198.703 336.373 198.937 336.652 199.193Z" fill="#FEB040"/>
<path d="M332.738 196.277H304.194C304.614 196.021 305.056 195.787 305.499 195.554H331.41C331.876 195.787 332.295 196.021 332.738 196.277Z" fill="#FEB040"/>
<path d="M325.701 184.474V194.902C325.701 195.975 322.393 196.838 318.338 196.838C314.377 196.838 311.138 196.021 310.975 194.972C310.975 194.948 310.975 194.925 310.975 194.902V184.474H325.701Z" fill="#E57281"/>
<path d="M325.607 184.474V184.707C325.607 189.839 319.246 195.718 314.656 196.394C313.933 196.511 311.697 196.068 310.998 194.948C310.998 194.925 310.998 194.901 310.998 194.878V184.45H325.607V184.474Z" fill="#9A3B82"/>
<path d="M329.709 181.185V181.418C329.709 183.214 328.241 184.684 326.447 184.684H323.627C322.719 187.95 319.736 190.329 316.194 190.329H313.189C309.857 190.329 307.13 187.623 307.13 184.264V170.99C312.723 172.553 322.719 171.084 322.719 171.084C322.719 171.084 321.81 174.35 323.534 177.896H326.47C328.241 177.919 329.709 179.389 329.709 181.185Z" fill="#E57281"/>
<path d="M326.331 177.499H323.674C321.414 173.674 322.696 171.131 322.696 171.131C322.696 171.131 312.699 172.577 307.107 171.038C304.567 170.338 302.936 169.008 303.542 166.652C305.476 159.094 326.307 167.142 327.752 169.871C329.22 172.601 326.331 177.499 326.331 177.499Z" fill="white" stroke="#FEB040" stroke-miterlimit="10"/>
<path d="M315.985 184.661C315.915 184.731 315.845 184.754 315.752 184.754C315.658 184.754 315.565 184.707 315.495 184.637L315.169 184.287C314.167 185.174 313.212 185.617 312.326 185.617C312.233 185.617 312.14 185.617 312.07 185.594C311.091 185.5 310.602 184.847 310.579 184.824C310.462 184.661 310.485 184.451 310.649 184.334C310.812 184.217 311.021 184.241 311.138 184.404C311.161 184.427 311.487 184.847 312.163 184.917C312.909 184.987 313.771 184.591 314.703 183.774L314.517 183.564C314.377 183.424 314.4 183.191 314.54 183.074C314.68 182.934 314.913 182.958 315.029 183.098L316.008 184.171C316.148 184.311 316.124 184.521 315.985 184.661Z" fill="#9A3B82"/>
<path d="M319.526 177.709C319.433 177.709 319.34 177.686 319.27 177.616C317.22 175.609 314.61 176.006 314.587 176.006C314.4 176.029 314.214 175.913 314.19 175.726C314.167 175.539 314.284 175.353 314.47 175.33C314.587 175.306 317.453 174.84 319.759 177.126C319.899 177.266 319.899 177.476 319.759 177.616C319.713 177.686 319.62 177.709 319.526 177.709Z" fill="#9A3B82"/>
<path d="M311.581 182.608C311.557 182.608 311.511 182.608 311.488 182.585C311.301 182.538 311.208 182.328 311.255 182.141C311.255 182.118 311.977 179.739 310.812 177.709C309.81 175.959 307.55 176.496 307.526 176.519C307.34 176.566 307.154 176.449 307.107 176.263C307.06 176.076 307.177 175.889 307.363 175.843C308.319 175.609 310.416 175.609 311.418 177.382C312.746 179.692 311.977 182.258 311.93 182.375C311.86 182.515 311.744 182.608 311.581 182.608Z" fill="#9A3B82"/>
<path d="M308.971 179.878C309.202 179.878 309.39 179.471 309.39 178.968C309.39 178.466 309.202 178.059 308.971 178.059C308.739 178.059 308.551 178.466 308.551 178.968C308.551 179.471 308.739 179.878 308.971 179.878Z" fill="#9A3B82"/>
<path d="M316.218 180.065C316.488 180.065 316.707 179.574 316.707 178.968C316.707 178.363 316.488 177.872 316.218 177.872C315.948 177.872 315.729 178.363 315.729 178.968C315.729 179.574 315.948 180.065 316.218 180.065Z" fill="#9A3B82"/>
<path d="M324.629 182.374C324.442 182.374 324.279 182.211 324.279 182.024C324.279 180.508 325.514 179.272 327.029 179.272C327.215 179.272 327.378 179.435 327.378 179.622C327.378 179.808 327.215 179.972 327.029 179.972C325.887 179.972 324.978 180.881 324.978 182.024C324.978 182.211 324.839 182.374 324.629 182.374Z" fill="#9A3B82"/>
<path d="M444.584 622.455C443.955 622.268 443.605 622.175 443.605 622.175L435.986 647.159L407.302 639.624C407.069 639.414 406.952 639.298 406.952 639.298C406.952 639.298 290.797 548.156 284.692 504.416C278.61 460.676 327.263 419.176 327.263 419.176C327.263 419.176 431.022 615.527 443.861 621.942C444.118 622.082 444.374 622.245 444.584 622.455Z" fill="#A0505A"/>
<path d="M351.822 465.108C348.187 484.587 335.418 524.034 322.206 562.199C302.633 541.087 286.835 519.789 284.692 504.392C280.824 476.679 298.975 449.828 312.769 433.919C317.826 429.86 323.278 426.127 329.173 422.791C332.785 429.58 341.15 445.303 351.822 465.108Z" fill="#73325A"/>
<path d="M509.781 639.274L467.116 666.684L454.743 664.818L443.349 672.05L447.031 679.608L428.273 691.668C403.411 669.017 406.93 639.554 406.93 639.554L435.963 647.182L443.582 622.198C443.582 622.198 469.656 629.826 488.903 629.173C508.196 628.52 509.781 639.274 509.781 639.274Z" fill="white" stroke="#FE5244" stroke-width="2" stroke-miterlimit="10"/>
<path d="M461.29 625.534C461.29 625.534 459.496 606.545 454.999 607.735C450.502 608.948 456.141 627.89 461.197 625.814C466.254 623.737 471.31 610.277 471.31 610.277" stroke="#FE5244" stroke-width="2" stroke-miterlimit="10"/>
<path d="M411.38 666.661L439.97 667.104L454.161 658.613L467.629 660.782L508.009 635.542" stroke="#FE5244" stroke-width="2" stroke-miterlimit="10"/>
<path d="M455.372 624.461L452.716 636.848" stroke="#FE5244" stroke-width="2" stroke-miterlimit="10"/>
<path d="M461.151 625.861L458.495 638.248" stroke="#FE5244" stroke-width="2" stroke-miterlimit="10"/>
<path d="M467.186 626.864L464.53 639.251" stroke="#FE5244" stroke-width="2" stroke-miterlimit="10"/>
<path d="M317.407 409.635C317.407 409.635 334.487 417.613 334.487 446.866C334.487 475.139 269.29 648.279 269.29 648.279L249.228 665.308L228.863 642.983C238.812 633.512 210.245 462.286 317.407 409.635Z" fill="#A0505A"/>
<path d="M315.59 698.481L264.886 698.528L255.473 690.27L241.981 690.2L241.003 698.551L221.127 698.574C210.315 664.889 228.956 642.961 228.956 642.961L249.182 665.262L269.384 648.256C269.384 648.256 286.906 668.831 303.45 678.676C320.04 688.543 315.59 698.481 315.59 698.481Z" fill="white" stroke="#FE5244" stroke-width="2" stroke-miterlimit="10"/>
<path d="M280.941 660.246C280.941 660.246 300.84 647.393 295.178 642.471C289.516 637.548 278.122 658.917 281.221 660.62C284.32 662.323 305.78 655.861 305.78 655.861" stroke="#FE5244" stroke-width="2" stroke-miterlimit="10"/>
<path d="M218.447 668.784L242.238 683.807H258.758L269.22 692.602H315.986" stroke="#FE5244" stroke-width="2" stroke-miterlimit="10"/>
<path d="M276.514 655.394L267.566 664.352" stroke="#FE5244" stroke-width="2" stroke-miterlimit="10"/>
<path d="M280.615 659.71L271.667 668.668" stroke="#FE5244" stroke-width="2" stroke-miterlimit="10"/>
<path d="M285.135 663.815L276.188 672.773" stroke="#FE5244" stroke-width="2" stroke-miterlimit="10"/>
<path d="M317.407 409.635C277.119 429.417 256.008 465.995 244.847 504.416H122.586C91.2929 504.416 67.9686 475.513 74.5628 444.884L83.5337 403.173H296.11C303.985 403.173 311.302 405.553 317.407 409.635Z" fill="#FE5244"/>
<path d="M226.626 449.619L270.642 449.526L264.117 460.233L226.626 449.619Z" fill="#A0505A"/>
<path d="M317.64 409.402C297.601 419.246 282.316 433.243 270.618 449.549H159.076C138.967 449.549 123.961 431.05 128.062 411.338L129.763 403.173" stroke="white" stroke-width="3" stroke-miterlimit="10" stroke-linecap="round"/>
<path d="M245.011 504.393C249.461 489.066 255.473 474.02 263.651 460.233L226.626 449.596" stroke="white" stroke-width="3" stroke-miterlimit="10" stroke-linecap="round"/>
<path d="M54.9664 291.129L77.3587 379.075H35.5799C11.2535 379.075 -4.4048 353.204 6.87292 331.626L38.9585 270.204C48.0459 252.824 66.0111 241.93 85.6073 241.93H93.1802C67.4558 241.907 48.6052 266.168 54.9664 291.129Z" fill="#3FB1B5"/>
<path d="M312.816 268.314C325.981 268.314 336.933 266.564 339.589 264.115L298.742 352.761C291.356 368.81 275.302 379.074 257.663 379.074C252.49 379.074 247.41 378.188 242.61 376.485C237.81 374.782 233.29 372.286 229.259 369.02L203.511 348.212C203.511 348.212 200.948 363.305 182.656 367.154V403.125H83.5103L54.9665 291.105C48.6053 266.144 67.4559 241.86 93.1803 241.86H162.594C168.722 241.86 174.757 242.63 180.583 244.123C196.521 248.182 210.827 257.56 220.94 270.996L254.867 316.066L285.344 262.738C285.344 262.785 285.321 262.855 285.321 262.902C285.344 266.004 297.671 268.314 312.816 268.314Z" fill="#3FB1B5"/>
<path d="M54.7334 291.129L76.6597 379.775" stroke="white" stroke-width="3" stroke-miterlimit="10" stroke-linecap="round"/>
<path d="M203.744 349.402L184.264 328.64" stroke="white" stroke-width="3" stroke-miterlimit="10" stroke-linecap="round"/>
<path d="M340.194 262.808L339.589 264.115C336.932 266.587 325.981 268.314 312.816 268.314C297.67 268.314 285.344 266.004 285.344 262.948C285.344 262.902 285.344 262.832 285.367 262.785C285.786 259.799 297.95 257.233 312.839 257.233C327.705 257.233 339.775 259.799 340.194 262.808C340.194 262.785 340.194 262.785 340.194 262.808Z" fill="#FE5244"/>
<path d="M352.405 218.02C352.405 219.35 352.078 220.656 351.473 221.799C350.867 222.942 349.981 223.945 348.886 224.715L348.35 225.088L344.179 247.366C343.504 250.982 341.36 254.178 338.261 256.161L332.552 259.8L328.032 262.693L325.935 267.708C322.043 268.105 317.593 268.338 312.839 268.338C308.039 268.338 303.519 268.105 299.581 267.685V233.136C299.581 231.643 299.907 230.174 300.536 228.821L308.133 212.445C308.133 212.445 316.428 214.497 312.606 224.692C309.135 233.953 317.057 231.573 321.507 229.917C325.492 228.424 342.898 219.56 349.702 216.317C350.96 215.71 352.405 216.644 352.405 218.02Z" fill="#A0505A"/>
<path d="M345.134 238.899C344.459 242.515 342.315 245.687 339.216 247.67L328.987 254.202" stroke="#73325A" stroke-width="2" stroke-miterlimit="10" stroke-linecap="round"/>
<path d="M346.812 229.451C346.136 233.067 343.993 236.239 340.894 238.222L330.665 244.754" stroke="#73325A" stroke-width="2" stroke-miterlimit="10" stroke-linecap="round"/>
<path d="M347.604 225.345L331.154 235.796" stroke="#73325A" stroke-width="2" stroke-miterlimit="10" stroke-linecap="round"/>
<path d="M333.437 259.217L332.529 259.8L328.008 262.693L325.911 267.708C322.02 268.105 317.569 268.338 312.816 268.338C308.016 268.338 303.496 268.105 299.558 267.685V257.981C303.496 257.514 308.016 257.258 312.816 257.258C321.041 257.234 328.404 258.004 333.437 259.217Z" fill="#73325A"/>
<path d="M178.416 243.587C175.037 248.136 162.454 258.844 120.093 258.844C65.5918 258.844 100.474 241.954 100.474 241.954L123.588 203.3L148.381 218.533V230.78C148.381 236.962 153.39 241.954 159.542 241.954H161.15C166.928 241.931 172.893 242.188 178.416 243.587Z" fill="#A0505A"/>
<path d="M148.357 218.509V221.635L100.45 241.931L123.564 203.276L148.357 218.509Z" fill="#73325A"/>
<path d="M149.662 220.026H154.928C159.775 220.026 163.712 216.084 163.712 211.232V181.862H132.279V202.624C132.279 212.235 140.062 220.026 149.662 220.026Z" fill="#A0505A"/>
<path d="M163.037 209.529C159.658 209.529 158.307 207.196 158.307 207.196" stroke="#73325A" stroke-width="2" stroke-miterlimit="10" stroke-linecap="round"/>
<path d="M159.984 200.128C160.601 200.128 161.102 199.156 161.102 197.958C161.102 196.76 160.601 195.789 159.984 195.789C159.366 195.789 158.865 196.76 158.865 197.958C158.865 199.156 159.366 200.128 159.984 200.128Z" fill="#73325A"/>
<path d="M138.268 184.917C138.268 184.917 164.202 200.594 172.637 186.947C180.047 174.98 147.216 168.821 135.752 168.774C123.286 168.728 106.765 174.257 107.045 192.616C107.278 207.732 107.907 229.847 98.9592 225.998C67.1299 212.328 38.8424 226.604 38.7492 253.805C38.656 281.005 70.1824 283.548 70.9746 276.526C71.7902 269.528 51.4017 271.137 54.1512 289.31C56.8775 307.482 69.0406 330.203 96.8155 330.203C130.369 330.227 151.736 285.997 130.975 281.495C115.06 278.042 147.192 308.788 156.723 276.829C166.975 242.421 129.926 231.153 129.018 210.368C128.109 189.583 138.268 184.917 138.268 184.917Z" fill="#FFCF2D" stroke="white" stroke-width="2" stroke-miterlimit="10"/>
<path d="M136.45 197.397H154.998" stroke="#FE5244" stroke-width="2" stroke-miterlimit="10"/>
<path d="M160.706 204.863C163.614 204.863 165.972 201.834 165.972 198.098C165.972 194.361 163.614 191.333 160.706 191.333C157.798 191.333 155.44 194.361 155.44 198.098C155.44 201.834 157.798 204.863 160.706 204.863Z" stroke="#FE5244" stroke-width="2" stroke-miterlimit="10"/>
<path d="M126.618 189.07V169.428C126.618 166.488 128.994 164.086 131.954 164.086H137.779C140.715 164.086 143.115 166.465 143.115 169.428" stroke="#66B0F0" stroke-width="2" stroke-miterlimit="10"/>
<path d="M132.233 210.695H121.025C118.159 210.695 115.829 208.362 115.829 205.493V194.272C115.829 191.403 118.159 189.07 121.025 189.07H132.233C135.099 189.07 137.429 191.403 137.429 194.272V205.493C137.406 208.362 135.099 210.695 132.233 210.695Z" fill="white" stroke="#66B0F0" stroke-width="2" stroke-miterlimit="10"/>
<path d="M129.321 206.986H123.845C121.492 206.986 119.558 205.073 119.558 202.694V197.212C119.558 194.855 121.468 192.919 123.845 192.919H129.321C131.674 192.919 133.608 194.832 133.608 197.212V202.694C133.608 205.073 131.697 206.986 129.321 206.986Z" fill="white" stroke="#66B0F0" stroke-width="2" stroke-miterlimit="10"/>
<path d="M131.488 193.479L121.748 206.449" stroke="#66B0F0" stroke-width="2" stroke-miterlimit="10"/>
<path d="M128.272 193.036L119.837 204.233" stroke="#66B0F0" stroke-width="2" stroke-miterlimit="10"/>
<path d="M133.375 195.788L124.94 206.985" stroke="#66B0F0" stroke-width="2" stroke-miterlimit="10"/>
<path d="M133.608 199.964L128.319 206.986" stroke="#66B0F0" stroke-width="2" stroke-miterlimit="10"/>
<path d="M124.847 193.036L119.581 200.011" stroke="#66B0F0" stroke-width="2" stroke-miterlimit="10"/>
<path d="M118.322 517.69V530.544C118.322 536.749 113.289 541.788 107.091 541.788H78.2905" stroke="#66B0F0" stroke-width="3" stroke-miterlimit="10"/>
<path d="M129.063 517.83V635.752" stroke="#66B0F0" stroke-width="3" stroke-miterlimit="10"/>
<path d="M76.9155 673.566C76.9155 652.688 97.6302 635.752 123.168 635.752H134.772C160.31 635.752 181.025 652.688 181.025 673.566" stroke="#66B0F0" stroke-width="3" stroke-miterlimit="10"/>
<path d="M241.119 519.626H71.9527C63.4711 519.626 56.6206 512.745 56.6206 504.277H245.126L241.119 519.626Z" fill="#FFCF2D"/>
<path d="M75.8907 698.574C82.7884 698.574 88.3801 692.976 88.3801 686.071C88.3801 679.165 82.7884 673.567 75.8907 673.567C68.993 673.567 63.4014 679.165 63.4014 686.071C63.4014 692.976 68.993 698.574 75.8907 698.574Z" fill="#FFCF2D"/>
<path d="M69.5291 544.983H94.6011C96.6516 544.983 98.3059 543.327 98.3059 541.274V540.994C98.3059 538.941 96.6516 537.285 94.6011 537.285H69.5291C67.4786 537.285 65.8242 538.941 65.8242 540.994V541.274C65.8242 543.327 67.4786 544.983 69.5291 544.983Z" fill="#FFCF2D"/>
<path d="M56.6206 504.743H176.645L136.497 392.116C133.701 384.301 126.314 379.076 118.019 379.076H29.7778C21.0166 379.076 14.9117 387.754 17.8476 396.012L56.6206 504.743Z" stroke="#FFCF2D" stroke-width="3" stroke-miterlimit="10"/>
<path d="M62.5624 504.743H166.905L128.108 395.849C125.405 388.29 118.275 383.251 110.26 383.251H20.9233" stroke="#FFCF2D" stroke-width="3" stroke-miterlimit="10"/>
<path d="M180.816 698.574C187.713 698.574 193.305 692.976 193.305 686.071C193.305 679.165 187.713 673.567 180.816 673.567C173.918 673.567 168.326 679.165 168.326 686.071C168.326 692.976 173.918 698.574 180.816 698.574Z" fill="#FFCF2D"/>
</svg>
