<svg width="800" height="722" viewBox="0 0 800 722" fill="none" xmlns="http://www.w3.org/2000/svg">
<path d="M691.993 320.071V497.576H111V246.384C118.655 -20.1296 349.938 31.7538 511.326 89.6568C644.724 137.517 692.033 197.861 691.993 320.071Z" fill="#3C68FF"/>
<path d="M691.919 507.167L691.717 651.39C691.665 688.382 660.609 718.341 622.344 718.341H413.797C356.293 718.338 299.119 709.941 244.211 693.432C233.938 690.344 225.139 687.627 219.604 685.775C154.556 664.005 111.759 662.17 111.759 551.202H273.077C305.766 551.201 338.347 547.57 370.178 540.38L442.458 524.055L465.56 518.836C502.89 510.404 541.134 506.34 579.467 506.731L691.919 507.167Z" fill="#4059B1"/>
<path d="M596.397 497.575H438.931C439.951 453.083 474.81 417.356 517.664 417.356C560.518 417.356 595.376 453.09 596.397 497.575Z" fill="#4059B1"/>
<path d="M209.858 498.432C243.331 498.432 270.466 453.224 270.466 397.457C270.466 341.691 243.331 296.483 209.858 296.483C176.385 296.483 149.25 341.691 149.25 397.457C149.25 453.224 176.385 498.432 209.858 498.432Z" fill="#4059B1"/>
<path d="M691.993 497.576V507.145L579.467 506.731C541.133 506.34 502.89 510.404 465.56 518.836L442.458 524.055L370.178 540.38C338.347 547.57 305.766 551.201 273.077 551.203H111.766C111.766 551.203 111.532 529.507 111.532 497.571L691.993 497.576Z" fill="#4059B1"/>
<path d="M268.59 497.576H111V396.777C159.665 397.063 173.465 446.828 173.465 446.828C173.465 446.828 203.199 429.992 234.411 446.551C265.624 463.109 268.59 497.576 268.59 497.576Z" fill="#4059B1"/>
<path d="M728.036 720.14C728.036 682.04 703.443 658.37 658.912 658.37C614.38 658.37 525.33 710.734 525.33 720.14H728.036Z" fill="#1E2833" stroke="white" stroke-width="2" stroke-miterlimit="10"/>
<path d="M114.29 720.14C114.29 682.04 153.319 651.155 201.459 651.155C249.599 651.155 288.628 682.04 288.628 720.14H114.29Z" fill="#1E2833" stroke="white" stroke-width="2" stroke-miterlimit="10"/>
<path d="M264.919 720.14C264.919 709.839 274.52 686.975 304.274 686.975C326.008 686.975 404.962 717.759 404.962 720.14H264.919Z" fill="#1E2833" stroke="white" stroke-width="2" stroke-miterlimit="10"/>
<path d="M241.212 162.411C261.829 162.411 278.542 146.259 278.542 126.335C278.542 106.412 261.829 90.2603 241.212 90.2603C220.596 90.2603 203.883 106.412 203.883 126.335C203.883 146.259 220.596 162.411 241.212 162.411Z" fill="white"/>
<path d="M306.108 124.012C306.121 133.95 303.76 143.757 299.208 152.668" stroke="white" stroke-width="3" stroke-miterlimit="10" stroke-linecap="round"/>
<path d="M204.455 162.593C202.756 161.009 201.168 159.316 199.702 157.526" stroke="white" stroke-width="3" stroke-miterlimit="10" stroke-linecap="round"/>
<path d="M291.125 140.999C284.52 161.737 264.548 176.81 240.906 176.81C229.851 176.828 219.073 173.46 210.122 167.19" stroke="white" stroke-width="3" stroke-miterlimit="10" stroke-linecap="round"/>
<path d="M291.338 111.783C292.737 116.415 293.445 121.217 293.441 126.042" stroke="white" stroke-width="3" stroke-miterlimit="10" stroke-linecap="round"/>
<path d="M673 213.017H348.796C348.796 213.017 342.574 184.212 388.863 192.574C447.209 203.108 528.067 215.018 533.619 162.901C538.728 114.955 596.669 110.232 638.122 130.811C691.918 157.526 673 213.017 673 213.017Z" fill="white"/>
</svg>
