<svg width="48" height="48" viewBox="0 0 48 48" fill="none" xmlns="http://www.w3.org/2000/svg">
<path d="M21.5548 9.04538V41.7005C21.5541 42.7138 21.1959 43.6942 20.5432 44.4692C19.8905 45.2441 18.9853 45.7639 17.9869 45.9368C16.9886 46.1098 15.9613 45.9249 15.086 45.4147C14.2107 44.9045 13.5435 44.1017 13.2019 43.1478L7.95356 28.1134M38.6665 26.4461C40.6114 26.4461 42.4767 25.6735 43.8521 24.2981C45.2274 22.9227 46 21.0574 46 19.1123C46 17.1672 45.2274 15.3019 43.8521 13.9265C42.4767 12.5511 40.6114 11.7785 38.6665 11.7785M7.95356 28.1158C5.8787 27.2336 4.17235 25.6616 3.12328 23.6658C2.0742 21.67 1.74683 19.3731 2.19657 17.1637C2.64632 14.9543 3.84554 12.9681 5.59131 11.5413C7.33708 10.1145 9.52217 9.3347 11.7768 9.33384H16.2551C26.2777 9.33384 34.8946 6.31719 38.6665 2V36.2246C34.8946 31.9074 26.2801 28.8908 16.2551 28.8908H11.7768C10.4632 28.8927 9.16275 28.6291 7.95356 28.1158V28.1158Z" stroke="#171717" stroke-width="3" stroke-linecap="round" stroke-linejoin="round"/>
</svg>
