<svg width="800" height="597" viewBox="0 0 800 597" fill="none" xmlns="http://www.w3.org/2000/svg">
<path d="M690.677 425.589C688.871 485.012 682.282 541.706 667.117 593.12L128.573 594.38C113.412 542.965 105.013 485.07 105.013 425.589C105.013 190.533 236.119 0 397.843 0C559.567 0 698.109 180.447 690.677 425.589Z" fill="#FDFDFD"/>
<path d="M799.635 595.318L102.012 595.734C129.643 569.661 171.984 587.034 171.984 587.034C171.984 587.034 159.403 533.359 214.023 517.212C234.449 511.177 250.876 511.989 263.74 515.821C273.403 518.686 283.751 518.533 293.319 515.386C302.887 512.238 311.189 506.254 317.049 498.282C330.099 480.676 354.202 464.791 398.711 464.791C436.699 464.791 466.05 485.054 498.523 504.983C507.603 493.738 523.04 486.366 540.524 486.366C568.482 486.366 591.114 505.2 591.114 528.432C591.115 532.953 590.25 537.436 588.564 541.652C614.138 545.171 643.765 543.26 679.598 532.147C779.475 501.151 799.635 595.318 799.635 595.318Z" fill="#B6FDF1"/>
<path d="M748.632 595.446L512.602 595.857C483.672 596.052 452.939 596.15 421.066 596.15C343.484 596.15 272.568 595.524 218.331 594.487H0C0 556.808 42.4449 573.359 53.6368 580.01C66.6505 587.738 49.8928 546.596 76.4609 546.596C99.205 546.596 112.219 557.767 112.219 557.767C112.219 557.767 112.839 536.051 134.402 535.738C155.965 535.425 169.66 553.991 186.678 569.27C193.705 575.569 202.154 580.578 210.142 584.393C265.341 583.258 339.499 582.554 421.066 582.554C459.707 582.554 496.666 582.71 530.762 583.003C591.346 583.003 646.825 551.878 662.561 544.072C701.442 524.743 683.023 570.815 683.023 570.815C683.023 570.815 712.995 558.49 734.077 558.588C763.848 558.706 748.632 595.446 748.632 595.446Z" fill="#95E6D8"/>
<path d="M626.163 593.824C626.163 593.824 632.129 541.355 593.288 524.471C593.288 524.471 587.562 581.558 606.943 577.821C614.21 576.412 598.614 562.561 573.187 561.974C573.187 561.974 592.668 593.961 616.333 594.411" stroke="#FFCF2D" stroke-width="3" stroke-miterlimit="10"/>
<path d="M616.412 594.332C616.412 594.332 618.655 570.328 642.6 562.855C664.223 556.125 626.383 593.746 626.383 593.746" stroke="#FFCF2D" stroke-width="3" stroke-miterlimit="10"/>
<path d="M78.7234 592.142C78.7234 592.142 44.387 569.155 34.7168 531.651C34.7168 531.651 65.109 540.533 78.0026 559.431C78.0026 559.431 83.2882 516.411 96.0617 501.934C96.0617 501.934 102.969 511.638 103.83 547.596C103.83 547.596 119.487 521.537 131.139 513.125C131.139 513.125 129.537 547.028 121.208 564.342C121.208 564.342 133.241 555.186 141.37 564.166C149.498 573.146 133.561 586.292 133.561 586.292" stroke="#FE5244" stroke-width="2" stroke-miterlimit="10"/>
<path d="M96.0815 503.206C96.0815 503.206 96.4218 581.578 92.778 591.731" stroke="#FE5244" stroke-width="2" stroke-miterlimit="10"/>
<path d="M130.017 515.101C130.017 515.101 106.072 575.219 92.778 591.731" stroke="#FE5244" stroke-width="2" stroke-miterlimit="10"/>
<path d="M120.848 564.616C119.967 567.765 113.9 576.452 112.699 572.715C111.518 568.978 122.429 562.933 125.172 561.936" stroke="#FE5244" stroke-width="2" stroke-miterlimit="10"/>
<path d="M78.0223 559.451C79.6441 562.503 85.1299 571.072 79.584 570.857C75.9602 570.72 79.0034 552.741 79.0034 552.741" stroke="#FE5244" stroke-width="2" stroke-miterlimit="10"/>
<path d="M512.663 527.719C499.049 534.233 500.33 546.734 500.21 555.127C500.07 564.067 482.611 568.743 482.611 568.743C487.256 554.442 483.952 539.711 483.952 539.711L512.663 527.719Z" fill="#A0505A"/>
<path d="M527.098 560.644L523.995 562.288L517.488 547.752C517.148 546.989 516.387 546.539 515.606 546.539C515.346 546.539 515.065 546.598 514.805 546.695C514.144 546.969 513.664 547.576 513.584 548.28L510.721 569.35L473.061 589.383C471.94 586.761 478.927 580.188 482.631 568.743C482.631 568.743 500.11 564.068 500.23 555.127C500.35 546.734 499.089 534.214 512.683 527.719L515.546 526.525C531.162 533.549 527.098 560.644 527.098 560.644Z" fill="#FFCF2D"/>
<path d="M515.526 423.308V526.525L484.373 539.731L461.028 436.103C471.479 436.494 488.898 434.342 515.526 423.308Z" fill="white" stroke="#9A3B82" stroke-width="2" stroke-miterlimit="10"/>
<path d="M492.622 432.386L498.768 533.588" stroke="#9A3B82" stroke-width="2" stroke-miterlimit="10"/>
<path d="M515.526 423.308V450.326L462.51 442.833L461.028 436.103C471.479 436.494 488.898 434.342 515.526 423.308Z" fill="#9A3B82"/>
<path d="M672.532 353.271L652.391 357.418C651.71 357.555 651.029 357.34 650.549 356.851C650.208 356.479 650.028 356.029 650.028 355.56C650.028 355.051 650.228 354.543 650.649 354.171L661.861 343.9L659.378 341.729C659.378 341.729 633.35 346.717 631.869 362.583L633.851 364.696C644.082 374.517 655.114 369.45 662.822 366.907C670.189 364.481 678.979 375.652 680.721 377.96C680.741 377.96 680.781 377.96 680.801 377.96C692.413 377.588 700.642 381.619 702.664 379.799L672.532 353.271Z" fill="#FFCF2D"/>
<path d="M633.871 364.696C644.102 374.517 655.133 369.45 662.842 366.906C671.05 364.207 680.841 377.96 680.841 377.96C666.305 378.41 653.912 385.942 653.912 385.942L633.871 364.696Z" fill="#A0505A"/>
<path d="M509.5 424.189C509.5 424.189 514.565 457.623 553.426 456.997C592.287 456.371 653.492 385.746 653.492 385.746L631.969 362.7L509.5 424.189Z" fill="white" stroke="#9A3B82" stroke-width="2" stroke-miterlimit="10"/>
<path d="M531.903 415.111C533.184 423.915 539.231 432.209 557.67 431.916C585.059 431.486 623.76 396.369 644.222 375.671" stroke="#9A3B82" stroke-width="2" stroke-miterlimit="10"/>
<path d="M679.119 294.502C675.575 293.191 667.146 297.691 660.799 305.516C653.972 313.909 651.209 322.83 654.212 325.158L558.051 275.193C553.326 272.747 547.88 276.934 549.221 281.981L578.332 389.737C479.728 452.262 448.114 433.52 448.114 433.52V79.4206C448.114 79.4402 448.114 79.4402 448.134 79.4598C448.975 81.5531 458.005 80.0858 468.316 76.1535C477.806 72.5539 485.053 68.1325 485.514 65.824L485.534 65.8044V177.375C485.534 184.379 489.398 190.815 495.645 194.239L679.119 294.502Z" fill="#FE5244"/>
<path d="M679.119 294.502C675.575 293.191 667.146 297.691 660.799 305.516C653.972 313.909 651.209 322.83 654.212 325.158L558.051 275.193C553.326 272.747 547.88 276.934 549.221 281.981L578.332 390.168C553.266 406.073 532.524 416.285 515.526 423.328C488.897 434.342 471.479 436.514 461.028 436.122C451.918 435.79 448.114 433.52 448.114 433.52V79.4206C448.114 79.4402 448.114 79.4402 448.134 79.4598C448.975 81.5531 458.005 80.0858 468.316 76.1536C477.806 72.5539 485.053 68.1325 485.514 65.824L485.534 65.8044V177.375C485.534 184.379 489.398 190.815 495.645 194.239L679.119 294.502Z" fill="#FE5244"/>
<path d="M541.193 266.507L654.213 326.41" stroke="white" stroke-width="3" stroke-miterlimit="10" stroke-linecap="round"/>
<path d="M498.328 195.687L485.654 267.661L550.343 224.132L498.328 195.687Z" fill="#FFCF2D"/>
<path d="M498.328 195.687L485.654 267.661L550.343 224.132" stroke="white" stroke-width="3" stroke-miterlimit="10" stroke-linecap="round"/>
<path d="M497.807 56.7664L414.299 73.4932C411.215 74.1192 408.032 71.439 407.211 67.5068C406.39 63.5745 408.232 59.8965 411.316 59.2705L494.824 42.5437L497.807 56.7664Z" fill="white" stroke="#3FB1B5" stroke-width="2" stroke-miterlimit="10" stroke-linecap="round"/>
<path d="M497.777 56.7779C500.864 56.1596 502.699 52.4751 501.875 48.5483C501.052 44.6216 497.881 41.9396 494.794 42.5579C491.707 43.1762 489.872 46.8607 490.696 50.7875C491.52 54.7142 494.69 57.3962 497.777 56.7779Z" fill="white" stroke="#3FB1B5" stroke-width="2" stroke-miterlimit="10" stroke-linecap="round"/>
<path d="M450.157 63.8876C450.157 63.8876 423.148 93.5459 426.091 100.08C429.935 103.817 433.058 105.46 432.598 106.849C432.097 108.356 425.631 117.453 425.631 117.453L424.99 110.703L418.803 112.699C418.803 112.699 425.33 103.386 425.751 100.53C423.068 98.5346 417.602 94.3872 417.782 91.4918C417.983 88.4203 427.553 77.5038 434.5 69.9719L424.029 73.3564L421.967 63.9072L440.807 60.5227L450.157 63.8876Z" fill="#FE5244"/>
<path d="M446.493 65.1787C449.633 65.1787 452.179 62.6912 452.179 59.6227C452.179 56.5542 449.633 54.0667 446.493 54.0667C443.353 54.0667 440.807 56.5542 440.807 59.6227C440.807 62.6912 443.353 65.1787 446.493 65.1787Z" fill="white" stroke="#FE5244" stroke-width="2" stroke-miterlimit="10"/>
<path d="M485.514 65.8242C485.054 68.1327 477.806 72.5541 468.316 76.1538C458.005 80.0665 448.975 81.5533 448.134 79.46C448.134 79.4404 448.134 79.4404 448.114 79.4209C447.394 77.308 455.042 72.4758 465.293 68.5827C475.604 64.67 484.633 63.1832 485.474 65.2764C485.534 65.433 485.554 65.609 485.514 65.8242Z" fill="#9A3B82"/>
<path d="M478.567 49.3907L477.466 64.9241L476.945 72.3582C474.442 73.6494 471.499 74.9406 468.316 76.1536C462.91 78.2077 457.865 79.5772 454.161 80.1445V65.9414L469.357 62.8895C469.357 62.8895 470.198 57.5878 471.8 53.1469C473.381 48.6864 478.567 49.3907 478.567 49.3907Z" fill="#A0505A"/>
<path d="M469.777 62.2439C469.557 63.1243 462.95 65.1784 462.95 69.8737" stroke="#73325A" stroke-miterlimit="10" stroke-linecap="round"/>
<path d="M477.466 64.9243L476.945 72.3585C474.442 73.6496 471.499 74.9408 468.316 76.1538C462.91 78.208 457.865 79.5774 454.161 80.1447V73.7279C457.124 72.0259 460.988 70.226 465.293 68.5827C469.777 66.8611 474.022 65.609 477.466 64.9243Z" fill="#73325A"/>
<path d="M467.515 57.1576L450.557 60.9529C449.656 61.1485 448.815 60.4442 448.815 59.4661V49.4104C448.815 48.0605 449.656 46.8867 450.877 46.4955L467.635 41.1546C468.696 40.822 469.757 41.6437 469.757 42.798V54.2622C469.737 55.6512 468.816 56.8641 467.515 57.1576Z" fill="#A0505A"/>
<path d="M454.821 59.3879C453.9 59.5835 453.02 58.8988 453.02 57.9597V48.3149C453.02 47.0237 453.88 45.889 455.142 45.5173" stroke="#73325A" stroke-miterlimit="10" stroke-linecap="round"/>
<path d="M459.707 58.3507C458.786 58.5463 457.905 57.8421 457.905 56.8834V46.9452C457.905 45.6149 458.766 44.441 460.027 44.0693" stroke="#73325A" stroke-miterlimit="10" stroke-linecap="round"/>
<path d="M465.172 57.2158C464.251 57.4114 463.37 56.6876 463.37 55.7094V45.419C463.37 44.0495 464.231 42.8366 465.493 42.4453" stroke="#73325A" stroke-miterlimit="10" stroke-linecap="round"/>
<path d="M671.671 313.948C664.844 322.361 657.196 327.467 654.192 325.139C651.189 322.811 653.952 313.909 660.779 305.497C667.146 297.671 675.555 293.172 679.099 294.483L679.8 294.874C682.823 297.221 678.498 305.556 671.671 313.948Z" fill="#9A3B82"/>
<path d="M702.564 328.092L698.019 330.44C696.217 331.379 693.974 330.714 693.013 328.953L688.228 320.267L680.981 317.841C681.782 318.135 684.905 319.7 683.924 325.393L666.906 319.191L661.06 317.059L655.514 313.596C656.815 311.013 658.597 308.235 660.819 305.516C662.681 303.227 664.704 301.232 666.726 299.588L672.512 303.54L678.438 304.166L688.068 305.164C689.61 305.32 691.091 305.829 692.393 306.631L700.081 311.972C701.202 312.755 701.943 313.928 702.123 315.259L703.685 325.94C703.825 326.821 703.364 327.682 702.564 328.092Z" fill="#A0505A"/>
<path d="M691.372 310.7L698.039 315.337C699 316.002 699.641 317.039 699.821 318.193L701.182 326.821C701.282 327.584 700.902 328.327 700.201 328.679" stroke="#73325A" stroke-miterlimit="10" stroke-linecap="round"/>
<path d="M687.247 312.246L693.914 316.883C694.875 317.548 695.516 318.585 695.696 319.739L697.058 328.366C697.158 329.129 696.777 329.873 696.077 330.225" stroke="#73325A" stroke-miterlimit="10" stroke-linecap="round"/>
<path d="M680.981 317.822L676.136 316.217" stroke="#73325A" stroke-miterlimit="10" stroke-linecap="round"/>
<path d="M678.438 304.166C676.816 307.159 674.454 310.564 671.691 313.968C670.109 315.904 668.508 317.665 666.906 319.191L661.06 317.059L655.514 313.596C656.815 311.013 658.597 308.235 660.819 305.516C662.681 303.227 664.704 301.232 666.726 299.588L672.512 303.54L678.438 304.166Z" fill="#73325A"/>
<path d="M503.613 143.452L546.438 162.018L561.714 205.684L530.681 184.008L516.206 166.733L503.613 143.452Z" fill="#FE5244"/>
<path d="M516.206 166.733C516.206 166.733 530.221 169.081 535.867 184.34L538.85 181.406C538.85 181.406 533.424 166.557 519.089 162.742L516.206 166.733Z" fill="#9A3B82"/>
<path d="M599.735 185.69C594.929 183.029 590.485 181.562 589.063 182.09C589.163 181.856 589.223 181.582 589.203 181.308C589.123 180.447 588.403 179.801 587.542 179.801C587.502 179.801 587.462 179.801 587.401 179.801C586.48 179.88 585.8 180.662 585.86 181.562C585.86 181.621 585.88 181.68 585.88 181.719L580.794 184.908C579.653 185.631 578.252 185.671 577.051 185.025C575.849 184.379 575.148 183.206 575.148 181.875V174.735C575.148 171.624 573.567 168.748 570.904 167.027C568.241 165.305 564.898 165.031 561.975 166.244L552.284 170.47L548.6 159.925L505.555 141.281C505.295 141.164 504.974 141.281 504.854 141.555C504.734 141.809 504.854 142.122 505.134 142.24L547.74 160.707L562.936 204.158C563.016 204.373 563.216 204.51 563.436 204.51C563.496 204.51 563.556 204.491 563.616 204.491C563.897 204.393 564.037 204.099 563.957 203.825L552.645 171.467L562.415 167.203C565.018 166.107 567.981 166.361 570.323 167.887C572.686 169.413 574.087 171.957 574.087 174.735V181.875C574.087 183.597 575.008 185.123 576.55 185.944C577.271 186.336 578.052 186.531 578.832 186.531C579.713 186.531 580.594 186.277 581.375 185.788L586.42 182.638C586.721 182.912 587.121 183.069 587.542 183.069C587.582 183.069 587.642 183.069 587.682 183.069C588.042 183.049 588.362 182.912 588.603 182.697C588.603 184.086 592.247 187.196 597.252 189.975C598.333 190.581 599.414 191.129 600.435 191.598C601.056 191.09 601.576 190.483 601.997 189.759C602.417 189.055 602.678 188.292 602.798 187.51C601.837 186.923 600.816 186.297 599.735 185.69ZM587.582 182.247C587.121 182.286 586.741 181.953 586.701 181.523C586.661 181.093 587.001 180.701 587.442 180.662C587.882 180.623 588.282 180.956 588.322 181.386C588.362 181.817 588.022 182.208 587.582 182.247Z" fill="#FFCF2D"/>
<path d="M513.423 192.459L506.016 232.72L531.262 213.705V188.605L513.423 192.459Z" fill="#A0505A"/>
<path d="M513.423 192.459L512.502 197.506L523.674 219.417L531.262 213.705V188.605L513.423 192.459Z" fill="#73325A"/>
<path d="M516.627 167.144C516.627 167.144 503.993 164.073 500.049 171.233C496.105 178.393 507.637 180.369 508.118 177.865C508.338 176.769 487.356 176.789 490.88 192.303C494.543 208.462 511.061 202.906 511.061 202.906L512.983 192.459L516.627 167.144Z" fill="white" stroke="#9A3B82" stroke-miterlimit="10"/>
<path d="M531.062 190.307C531.062 190.307 512.202 214.331 528.779 224.543C542.073 232.721 545.497 221.198 541.933 219.613C538.069 217.892 529.2 250.367 556.509 250.269C583.878 250.172 575.509 216.777 561.714 205.704C555.127 200.422 533.144 185.651 533.144 185.651L531.062 190.307Z" fill="white" stroke="#9A3B82" stroke-miterlimit="10"/>
<path d="M530.501 184.281L531.923 185.162C533.304 186.022 533.705 187.803 532.844 189.153L532.564 189.563C531.683 190.913 529.861 191.324 528.479 190.463L526.958 189.524C525.276 190.698 515.165 197.291 508.919 190.737C502.852 184.379 516.867 165.774 516.867 165.774C528.76 169.413 533.404 179.743 533.404 179.743L530.501 184.281Z" fill="#A0505A"/>
<path d="M512.963 170C512.963 170 516.246 171.193 515.926 173.952C515.606 176.71 512.642 181.053 513.343 181.797C514.044 182.54 514.985 182.677 514.985 182.677" stroke="#73325A" stroke-miterlimit="10" stroke-linecap="round"/>
<path d="M512.162 184.34C512.162 184.34 514.605 185.671 517.928 185.162" stroke="#73325A" stroke-miterlimit="10" stroke-linecap="round"/>
<path d="M522.632 180.424C522.916 179.697 522.819 178.986 522.416 178.836C522.013 178.686 521.456 179.154 521.173 179.881C520.889 180.608 520.986 181.319 521.389 181.469C521.792 181.619 522.348 181.151 522.632 180.424Z" fill="#73325A"/>
<path d="M513.388 176.281C513.624 175.675 513.539 175.08 513.198 174.953C512.857 174.826 512.389 175.215 512.153 175.821C511.917 176.427 512.001 177.021 512.342 177.148C512.683 177.275 513.151 176.886 513.388 176.281Z" fill="#73325A"/>
<path d="M529.46 187.646C530.021 186.785 531.182 186.531 532.063 187.079" stroke="#73325A" stroke-miterlimit="10" stroke-linecap="round"/>
<path d="M522.073 175.263C522.073 175.263 524.515 175.908 525.776 178.745" stroke="#73325A" stroke-miterlimit="10" stroke-linecap="round"/>
<path d="M525.716 170.509C525.716 170.509 523.053 179.136 530.681 185.025C535.166 188.488 535.426 184.321 535.426 184.321C535.426 184.321 534.846 175.85 525.716 170.509Z" fill="white" stroke="#9A3B82" stroke-miterlimit="10"/>
<path d="M366.868 391.596C364.766 384.103 330.049 391.126 291.809 404.723C255.23 417.733 225.498 435.281 225.178 442.344L205.117 299.354C204.817 297.339 203.055 295.852 200.973 295.852C199.811 295.852 198.77 296.302 198.009 297.045C197.249 297.789 196.788 298.806 196.788 299.941V422.056C196.548 418.711 187.718 416.031 176.867 416.031C166.016 416.031 157.206 418.711 156.946 422.056V284.838C156.946 273.256 163.152 262.535 173.283 256.549L186.437 248.782L240.614 216.815L291.008 186.844V135.686C291.008 137.877 300.278 139.637 311.209 139.637C322.121 139.637 331.411 137.896 331.411 135.686V191.148C331.411 203.434 325.264 215.035 315.454 222.704L284.801 244.107C279.576 247.745 278.314 254.827 281.958 259.992C302.28 288.731 364.726 372.6 366.848 391.048C366.868 391.224 366.868 391.42 366.868 391.596Z" fill="#3FB1B5"/>
<path d="M290.407 182.462V197.526" stroke="white" stroke-width="3" stroke-miterlimit="10" stroke-linecap="round"/>
<path d="M186.477 248.782L253.288 292.448L240.654 216.815L226.179 225.189L229.583 256.197L200.872 239.979L186.477 248.782Z" stroke="white" stroke-width="3" stroke-miterlimit="10" stroke-linecap="round"/>
<path d="M364.726 393.474C362.323 386.999 330.489 394.472 292.229 408.069C253.968 421.665 224.597 438.862 227.02 445.337C229.423 451.813 262.718 445.122 300.978 431.525C339.239 417.929 367.148 399.95 364.726 393.474Z" stroke="#3FB1B5" stroke-width="2" stroke-miterlimit="10" stroke-linecap="round"/>
<path d="M277.594 528.56L275.391 532.316L272.949 536.503C251.826 539.085 248.102 525.586 248.102 525.586L251.286 519.404C259.815 524.53 270.626 527.249 277.594 528.56Z" fill="#E57281"/>
<path d="M353.674 430.331C338.658 455.627 284.661 529.655 284.661 529.655C284.661 529.655 281.838 529.362 277.594 528.56C270.626 527.229 259.815 524.529 251.266 519.404C249.284 518.21 247.442 516.9 245.78 515.432L284.921 437.765L294.812 417.4L300.298 406.092C300.958 405.857 301.619 405.642 302.26 405.427C302.58 405.309 302.9 405.212 303.241 405.094C304.222 404.762 305.183 404.449 306.144 404.136C306.945 403.881 307.726 403.627 308.506 403.353C310.889 402.57 313.231 401.847 315.514 401.142C330.85 396.408 343.964 393.219 352.813 392.241C354.775 394.921 357.018 398.775 358.299 403.607C360.161 410.67 359.941 419.786 353.674 430.331Z" fill="white" stroke="#9A3B82" stroke-width="2" stroke-miterlimit="10"/>
<path d="M288.125 586.295C287.444 589.21 283.74 590.247 281.578 588.134L233.186 541.006L248.322 525.57C248.322 525.57 251.826 539.049 272.969 536.486C290.047 561.684 290.007 578.176 288.125 586.295Z" fill="white" stroke="#FE5244" stroke-width="2" stroke-miterlimit="10"/>
<path d="M286.143 589.265C282.859 590.497 279.155 589.852 276.492 587.563L251.226 565.867C250.605 565.319 250.525 564.4 251.046 563.754C251.546 563.148 251.506 562.248 250.925 561.7L248.863 559.744C248.303 559.196 247.402 559.176 246.801 559.685L246.321 560.076C245.74 560.565 244.899 560.565 244.338 560.076L230.764 548.553C229.002 547.066 228.942 544.406 230.604 542.821L232.966 540.591L281.658 588.619C283.059 589.989 285.082 590.047 286.523 589.128L286.143 589.265Z" fill="#FE5244"/>
<path d="M279.556 542.782C279.556 542.782 283.66 546.343 273.849 550.666" stroke="#FE5244" stroke-width="2" stroke-miterlimit="10" stroke-linecap="round"/>
<path d="M282.138 547.067C282.138 547.067 286.243 550.627 276.432 554.951" stroke="#FE5244" stroke-width="2" stroke-miterlimit="10" stroke-linecap="round"/>
<path d="M284.721 551.351C284.721 551.351 288.825 554.911 279.015 559.235" stroke="#FE5244" stroke-width="2" stroke-miterlimit="10" stroke-linecap="round"/>
<path d="M358.299 403.607C345.285 403.588 331.951 405.798 319.098 409.281C318.077 405.759 316.635 402.962 315.514 401.142C330.85 396.408 343.964 393.219 352.813 392.241C354.796 394.941 357.038 398.795 358.299 403.607Z" fill="#9A3B82"/>
<path d="M222.596 526.583L218.732 531.416L215.689 535.211C194.406 534.8 192.704 520.93 192.704 520.93L197.329 514.454C205.358 520.754 216.209 524.666 222.596 526.583Z" fill="#E57281"/>
<path d="M319.538 425.108C318.377 429.94 315.895 435.144 311.33 440.505C292.59 462.553 227.881 528.012 227.881 528.012C227.881 528.012 202.615 522.456 191.823 509.153L235.389 448.682L251.466 426.36C262.558 420.589 276.653 414.466 292.23 408.91C300.358 406.014 308.186 403.412 315.514 401.143C316.615 402.962 318.077 405.779 319.098 409.281C320.379 413.624 321 419.063 319.538 425.108Z" fill="white" stroke="#9A3B82" stroke-width="2" stroke-miterlimit="10"/>
<path d="M223.377 586.624C222.276 589.422 218.472 589.931 216.63 587.524L175.646 534.096L192.885 520.93C192.885 520.93 194.366 534.8 215.669 535.211C228.903 562.542 226.44 578.858 223.377 586.624Z" fill="white" stroke="#FE5244" stroke-width="2" stroke-miterlimit="10"/>
<path d="M220.994 589.129C217.571 589.892 213.987 588.718 211.705 586.116L189.881 561.153C189.341 560.527 189.401 559.607 190.002 559.04C190.602 558.512 190.662 557.612 190.182 556.986L188.42 554.775C187.939 554.169 187.058 554.012 186.378 554.423L185.857 554.755C185.217 555.147 184.396 555.029 183.895 554.482L172.083 541.237C170.561 539.515 170.881 536.894 172.763 535.564L175.426 533.686L216.61 587.857C217.791 589.402 219.793 589.735 221.355 589.05L220.994 589.129Z" fill="#FE5244"/>
<path d="M221.715 542.489C221.715 542.489 225.259 546.578 214.908 549.493" stroke="#FE5244" stroke-width="2" stroke-miterlimit="10" stroke-linecap="round"/>
<path d="M224.058 547.086C224.058 547.086 227.601 551.175 217.25 554.09" stroke="#FE5244" stroke-width="2" stroke-miterlimit="10" stroke-linecap="round"/>
<path d="M225.98 551.684C225.98 551.684 229.523 555.773 219.172 558.688" stroke="#FE5244" stroke-width="2" stroke-miterlimit="10" stroke-linecap="round"/>
<path d="M319.118 409.281C310.749 411.55 302.581 414.348 294.832 417.38C261.377 430.546 235.73 448.427 235.409 448.643L251.486 426.321C262.578 420.549 276.673 414.426 292.25 408.87C294.972 407.911 297.655 406.972 300.318 406.053C300.979 405.818 301.64 405.603 302.28 405.388C302.601 405.27 302.921 405.173 303.261 405.055C304.242 404.723 305.203 404.41 306.164 404.096C306.965 403.842 307.746 403.588 308.527 403.314C310.909 402.531 313.252 401.808 315.534 401.103C316.635 402.981 318.077 405.779 319.118 409.281Z" fill="#9A3B82"/>
<path d="M196.35 424.694C196.35 428.098 187.64 430.876 176.889 430.876C166.138 430.876 157.428 428.117 157.428 424.694C157.428 424.654 157.428 424.596 157.428 424.557C157.669 421.211 166.298 418.531 176.889 418.531C187.48 418.531 196.109 421.211 196.35 424.557C196.35 424.596 196.35 424.654 196.35 424.694Z" fill="white" stroke="#3FB1B5" stroke-width="2" stroke-miterlimit="10" stroke-linecap="round"/>
<path d="M188.501 420.097V436.158C188.501 441.362 185.558 446.116 180.873 448.561L172.885 452.709C170.943 453.726 168.761 454.254 166.558 454.254C165.617 454.254 164.977 453.491 164.977 452.689C164.977 452.357 165.097 452.005 165.337 451.711L168.32 448.19C168.741 447.701 168.38 446.977 167.74 446.977H150.181L146.978 450.929C145.276 453.022 142.673 454.254 139.95 454.254H139.029C137.888 454.254 137.187 453.061 137.748 452.102L138.108 451.457C137.007 451.907 135.806 452.161 134.584 452.161H133.663C132.522 452.161 131.821 450.968 132.382 450.009L139.57 442.262L144.555 440.345V440.364L169.321 430.856V419.431C171.664 419.138 174.206 418.962 176.889 418.962C181.234 418.942 185.238 419.373 188.501 420.097Z" fill="#E57281"/>
<path d="M143.914 441.166L137.908 451.241" stroke="#9A3B82" stroke-miterlimit="10" stroke-linecap="round"/>
<path d="M166.798 449.95L170.482 445.548C171.203 444.688 170.582 443.416 169.441 443.416" stroke="#9A3B82" stroke-miterlimit="10" stroke-linecap="round"/>
<path d="M188.501 420.097V430.133C185.238 430.857 181.234 431.287 176.889 431.287C174.206 431.287 171.664 431.13 169.321 430.817V419.392C171.664 419.099 174.206 418.923 176.889 418.923C181.214 418.942 185.238 419.373 188.501 420.097Z" fill="#9A3B82"/>
<path d="M330.99 133.592C330.99 135.803 322.141 137.544 311.229 137.544C300.318 137.544 291.468 135.803 291.468 133.592C291.468 131.382 300.318 129.562 311.229 129.562C322.141 129.562 330.99 131.401 330.99 133.592Z" stroke="#3FB1B5" stroke-width="2" stroke-miterlimit="10" stroke-linecap="round"/>
<path d="M305.203 136.82C302.76 136.664 300.538 136.429 298.616 136.096V117.1C298.616 116.474 298.756 115.848 299.036 115.281L305.323 102.604C306.484 100.256 308.927 98.7693 311.59 98.7693H319.298L302.44 129.073C302.36 129.21 302.3 129.347 302.24 129.484C301.259 131.851 302.48 134.884 305.203 136.82Z" fill="#E57281"/>
<path d="M319.698 129.132L322.181 124.906V136.37C320.139 136.625 317.836 136.84 315.374 136.938L319.698 129.132Z" fill="#9A3B82"/>
<path d="M356.017 62.7916L314.973 136.585C313.452 139.324 309.287 139.97 305.643 138.033C302 136.096 300.298 132.32 301.819 129.601L342.863 55.8074L356.017 62.7916Z" fill="white" stroke="#FE5244" stroke-width="2" stroke-miterlimit="10"/>
<path d="M356.002 62.8187C357.523 60.0847 355.81 56.3042 352.176 54.3746C348.543 52.4451 344.365 53.0972 342.844 55.8312C341.324 58.5652 343.036 62.3457 346.67 64.2752C350.303 66.2048 354.481 65.5527 356.002 62.8187Z" fill="white" stroke="#FE5244" stroke-width="2" stroke-miterlimit="10"/>
<path d="M330.87 89.8677L350.271 74.1777L349.97 79.8903L356.177 81.3967L341.361 90.3372C352.733 87.9505 373.155 84.5855 376.258 90.4546C377.479 92.7631 375.177 97.4779 373.635 100.862C372.674 108.003 410.995 99.1604 411.435 99.0625L405.529 104.403L411.435 107.69C411.435 107.69 379.281 113.676 370.993 112.033C366.308 111.094 370.032 104.951 373.295 100.452C374.296 96.9888 366.328 95.8541 333.193 99.3755L330.87 89.8677Z" fill="#FE5244"/>
<path d="M331.15 99.297C334.313 99.297 336.876 96.792 336.876 93.7019C336.876 90.6117 334.313 88.1067 331.15 88.1067C327.988 88.1067 325.424 90.6117 325.424 93.7019C325.424 96.792 327.988 99.297 331.15 99.297Z" fill="white" stroke="#FE5244" stroke-width="2" stroke-miterlimit="10"/>
<path d="M335.635 112.444L333.793 116.67L331.631 121.6L330.47 124.28L328.688 128.369C328.648 128.486 328.588 128.584 328.527 128.701C328.527 128.701 328.528 128.721 328.507 128.721C327.927 129.68 326.826 130.286 325.624 130.286H311.489C309.788 130.286 308.606 128.701 309.247 127.234L310.268 124.887L312.531 119.702L314.473 115.242L316.174 111.309C316.675 110.155 317.896 109.412 319.238 109.412H333.373C335.114 109.392 336.276 110.977 335.635 112.444Z" fill="#E57281"/>
<path d="M314.973 115.222C315.554 114.576 316.415 114.205 317.336 114.205H330.83C332.252 114.205 333.273 115.398 333.132 116.67" stroke="#9A3B82" stroke-miterlimit="10" stroke-linecap="round"/>
<path d="M313.131 119.702C313.712 119.135 314.513 118.802 315.374 118.802H328.868C330.41 118.802 331.491 120.211 331.09 121.601" stroke="#9A3B82" stroke-miterlimit="10" stroke-linecap="round"/>
<path d="M311.009 124.867C311.59 124.339 312.371 124.026 313.191 124.026H326.686C328.287 124.026 329.389 125.533 328.868 126.961" stroke="#9A3B82" stroke-miterlimit="10" stroke-linecap="round"/>
<path d="M327.046 98.7495V99.1017C327.046 102.682 324.083 105.597 320.399 105.597H313.432V98.7495H327.046Z" fill="#E57281"/>
<path d="M157.847 251.795C157.206 252.734 156.545 253.614 155.885 254.417C155.164 254.24 154.463 253.947 153.823 253.517C153.182 253.086 152.641 252.578 152.201 251.971C152.721 251.091 153.302 250.152 153.963 249.213C157.206 244.517 160.69 241.289 161.771 241.994C162.852 242.698 161.09 247.1 157.847 251.795Z" fill="#FFCF2D"/>
<path d="M187.358 181.308L162.352 217.383C162.051 217.813 162.472 218.341 162.972 218.204L174.925 214.448C173.463 216.15 172.562 218.361 172.562 220.748V232.114C172.562 236.555 168.939 240.174 164.414 240.292C164.133 239.783 163.573 239.431 162.912 239.431C162.452 239.431 162.031 239.607 161.711 239.92C161.391 240.233 161.21 240.644 161.23 241.094C161.23 241.994 161.991 242.737 162.932 242.737C163.773 242.737 164.474 242.111 164.594 241.328C169.599 241.113 173.623 237.064 173.623 232.114V220.748C173.623 217.891 175.065 215.289 177.227 213.724L201.273 206.173L232.145 181.308H187.358ZM163.373 241.485C163.253 241.602 163.092 241.661 162.932 241.661C162.772 241.661 162.612 241.602 162.492 241.485C162.372 241.368 162.312 241.211 162.312 241.055C162.312 240.898 162.372 240.742 162.492 240.624C162.612 240.507 162.772 240.448 162.932 240.448C163.112 240.448 163.253 240.507 163.373 240.624C163.493 240.742 163.553 240.879 163.553 241.055C163.573 241.231 163.493 241.368 163.373 241.485Z" fill="#3FB1B5"/>
<path d="M160.17 217.304C160.069 217.304 159.969 217.285 159.869 217.207C159.629 217.05 159.569 216.717 159.729 216.483L185.797 178.882H233.007C233.307 178.882 233.547 179.116 233.547 179.41C233.547 179.703 233.307 179.938 233.007 179.938H186.357L160.61 217.07C160.51 217.226 160.35 217.304 160.17 217.304Z" fill="#3FB1B5"/>
<path d="M186.517 211.24L183.514 209.909L183.674 209.459C183.734 209.283 185.196 205.136 188.8 200.734C192.143 196.645 198.009 191.617 207.039 190.757L207.559 190.718L208.08 194.415L207.019 194.552L206.639 191.852C198.27 192.791 192.784 197.526 189.641 201.38C186.818 204.823 185.336 208.188 184.875 209.362L186.978 210.301L186.517 211.24Z" fill="white"/>
<path d="M201.733 239.763L195.667 220.395L209.862 213.607L215.708 217.95L225.759 225.404L228.802 255.023L201.733 239.763Z" fill="#E57281"/>
<path d="M215.708 217.95L204.877 241.544L201.733 239.763L195.667 220.395L209.862 213.607L215.708 217.95Z" fill="#9A3B82"/>
<path d="M203.675 221.667C202.654 221.765 200.592 220.748 198.25 219.3L195.507 221.472C193.925 222.724 191.603 222.508 190.321 220.963C189.761 220.298 189.48 219.476 189.48 218.674C189.48 217.637 189.941 216.6 190.842 215.876L191.963 214.976C189.02 212.824 186.717 210.966 186.717 210.966C186.717 210.966 191.823 195.98 208.14 194.454C208.14 194.454 216.789 211.925 217.37 213.587C217.95 215.27 209.441 221.1 203.675 221.667Z" fill="#E57281"/>
<path d="M191.963 214.976C189.02 212.824 186.717 210.966 186.717 210.966C186.717 210.966 188.599 205.429 193.765 200.734C188.359 205.996 196.428 211.866 191.963 214.976Z" fill="#FFCF2D"/>
<path d="M194.806 204.882C194.806 204.882 195.667 202.613 197.849 201.439" stroke="#9A3B82" stroke-miterlimit="10" stroke-linecap="round"/>
<path d="M210.423 199.13C210.423 199.13 207.399 198.719 205.898 199.619C204.396 200.519 204.396 205.175 206.799 208.09" stroke="#9A3B82" stroke-miterlimit="10" stroke-linecap="round"/>
<path d="M208.24 211.005C208.24 211.005 206.378 212.63 203.215 211.436" stroke="#9A3B82" stroke-miterlimit="10" stroke-linecap="round"/>
<path d="M203.515 210.575C203.515 210.575 202.855 211.495 202.895 212.532" stroke="#9A3B82" stroke-miterlimit="10" stroke-linecap="round"/>
<path d="M199.6 207.81C199.92 207.726 200.043 207.159 199.873 206.543C199.704 205.927 199.307 205.496 198.987 205.58C198.666 205.664 198.544 206.231 198.713 206.847C198.882 207.463 199.279 207.894 199.6 207.81Z" fill="#9A3B82"/>
<path d="M208.55 203.981C208.839 203.906 208.945 203.379 208.787 202.805C208.629 202.231 208.267 201.826 207.979 201.902C207.691 201.978 207.585 202.504 207.743 203.079C207.9 203.653 208.262 204.057 208.55 203.981Z" fill="#9A3B82"/>
<path d="M199.291 220.474L194.666 216.952C194.145 216.561 193.425 216.6 192.944 217.03L192.664 217.285C192.123 217.793 192.123 218.615 192.664 219.124" stroke="#9A3B82" stroke-miterlimit="10" stroke-linecap="round"/>
</svg>
