<svg width="43" height="40" viewBox="0 0 43 40" fill="none" xmlns="http://www.w3.org/2000/svg">
<path fill-rule="evenodd" clip-rule="evenodd" d="M22.833 0.350903C22.427 0.12079 21.9676 -0.000244141 21.5 -0.000244141C21.0324 -0.000244141 20.573 0.12079 20.167 0.350903L1.3545 11.0178C0.840303 11.3097 0.437705 11.762 0.209304 12.3043C-0.0190982 12.8467 -0.0605048 13.4488 0.0915222 14.0169C0.243549 14.585 0.58049 15.0874 1.04996 15.4459C1.51942 15.8044 2.09511 15.9989 2.6875 15.9992V34.6663C1.97473 34.6663 1.29115 34.9473 0.78715 35.4474C0.283146 35.9475 0 36.6258 0 37.333C0 38.0403 0.283146 38.7186 0.78715 39.2187C1.29115 39.7188 1.97473 39.9998 2.6875 39.9998H40.3125C41.0253 39.9998 41.7088 39.7188 42.2129 39.2187C42.7169 38.7186 43 38.0403 43 37.333C43 36.6258 42.7169 35.9475 42.2129 35.4474C41.7088 34.9473 41.0253 34.6663 40.3125 34.6663V15.9992C40.9049 15.9989 41.4806 15.8044 41.95 15.4459C42.4195 15.0874 42.7565 14.585 42.9085 14.0169C43.0605 13.4488 43.0191 12.8467 42.7907 12.3043C42.5623 11.762 42.1597 11.3097 41.6455 11.0178L22.833 0.350903V0.350903ZM10.75 18.666C10.0372 18.666 9.35366 18.9469 8.84965 19.447C8.34565 19.9471 8.0625 20.6254 8.0625 21.3327V29.3329C8.0625 30.0401 8.34565 30.7184 8.84965 31.2185C9.35366 31.7186 10.0372 31.9996 10.75 31.9996C11.4628 31.9996 12.1463 31.7186 12.6503 31.2185C13.1544 30.7184 13.4375 30.0401 13.4375 29.3329V21.3327C13.4375 20.6254 13.1544 19.9471 12.6503 19.447C12.1463 18.9469 11.4628 18.666 10.75 18.666ZM18.8125 21.3327C18.8125 20.6254 19.0956 19.9471 19.5997 19.447C20.1037 18.9469 20.7872 18.666 21.5 18.666C22.2128 18.666 22.8963 18.9469 23.4003 19.447C23.9044 19.9471 24.1875 20.6254 24.1875 21.3327V29.3329C24.1875 30.0401 23.9044 30.7184 23.4003 31.2185C22.8963 31.7186 22.2128 31.9996 21.5 31.9996C20.7872 31.9996 20.1037 31.7186 19.5997 31.2185C19.0956 30.7184 18.8125 30.0401 18.8125 29.3329V21.3327ZM32.25 18.666C31.5372 18.666 30.8537 18.9469 30.3497 19.447C29.8456 19.9471 29.5625 20.6254 29.5625 21.3327V29.3329C29.5625 30.0401 29.8456 30.7184 30.3497 31.2185C30.8537 31.7186 31.5372 31.9996 32.25 31.9996C32.9628 31.9996 33.6463 31.7186 34.1503 31.2185C34.6544 30.7184 34.9375 30.0401 34.9375 29.3329V21.3327C34.9375 20.6254 34.6544 19.9471 34.1503 19.447C33.6463 18.9469 32.9628 18.666 32.25 18.666Z" fill="#FDFDFD"/>
</svg>
