<svg width="44" height="46" viewBox="0 0 44 46" fill="none" xmlns="http://www.w3.org/2000/svg">
<path d="M3.3 21.9048C3.3 16.9667 5.27017 12.2309 8.7771 8.73911C12.284 5.24736 17.0405 3.28571 22 3.28571C26.9595 3.28571 31.716 5.24736 35.2229 8.73911C38.7298 12.2309 40.7 16.9667 40.7 21.9048V26.2857H35.75C35.3124 26.2857 34.8927 26.4588 34.5833 26.7669C34.2738 27.075 34.1 27.4929 34.1 27.9286V42.1667C34.1 43.0735 34.8392 43.8095 35.75 43.8095H37.4C39.1504 43.8095 40.8292 43.1172 42.0669 41.8848C43.3046 40.6524 44 38.9809 44 37.2381V21.9048C44 9.80676 34.1506 0 22 0C9.8494 0 0 9.80676 0 21.9048V37.2381C0 38.9809 0.695355 40.6524 1.9331 41.8848C3.17084 43.1172 4.84957 43.8095 6.6 43.8095H8.25C8.68761 43.8095 9.10729 43.6364 9.41673 43.3283C9.72616 43.0202 9.9 42.6024 9.9 42.1667V27.9286C9.9 27.4929 9.72616 27.075 9.41673 26.7669C9.10729 26.4588 8.68761 26.2857 8.25 26.2857H3.3V21.9048ZM23.65 21.3571C23.65 20.9214 23.4762 20.5036 23.1667 20.1955C22.8573 19.8874 22.4376 19.7143 22 19.7143C21.5624 19.7143 21.1427 19.8874 20.8333 20.1955C20.5238 20.5036 20.35 20.9214 20.35 21.3571V44.3571C20.35 44.7929 20.5238 45.2107 20.8333 45.5188C21.1427 45.8269 21.5624 46 22 46C22.4376 46 22.8573 45.8269 23.1667 45.5188C23.4762 45.2107 23.65 44.7929 23.65 44.3571V21.3571ZM14.85 26.2857C15.2876 26.2857 15.7073 26.4588 16.0167 26.7669C16.3262 27.075 16.5 27.4929 16.5 27.9286V37.7857C16.5 38.2214 16.3262 38.6393 16.0167 38.9474C15.7073 39.2555 15.2876 39.4286 14.85 39.4286C14.4124 39.4286 13.9927 39.2555 13.6833 38.9474C13.3738 38.6393 13.2 38.2214 13.2 37.7857V27.9286C13.2 27.4929 13.3738 27.075 13.6833 26.7669C13.9927 26.4588 14.4124 26.2857 14.85 26.2857V26.2857ZM30.8 27.9286C30.8 27.4929 30.6262 27.075 30.3167 26.7669C30.0073 26.4588 29.5876 26.2857 29.15 26.2857C28.7124 26.2857 28.2927 26.4588 27.9833 26.7669C27.6738 27.075 27.5 27.4929 27.5 27.9286V37.7857C27.5 38.2214 27.6738 38.6393 27.9833 38.9474C28.2927 39.2555 28.7124 39.4286 29.15 39.4286C29.5876 39.4286 30.0073 39.2555 30.3167 38.9474C30.6262 38.6393 30.8 38.2214 30.8 37.7857V27.9286Z" fill="#FDFDFD"/>
</svg>
