<svg width="43" height="42" viewBox="0 0 43 42" fill="none" xmlns="http://www.w3.org/2000/svg">
<path fill-rule="evenodd" clip-rule="evenodd" d="M13.6127 -0.000976562C13.0928 -0.000865724 12.5846 0.153148 12.1523 0.441594C11.7201 0.730041 11.3832 1.13997 11.1842 1.61955C10.9853 2.09914 10.9332 2.62686 11.0346 3.13598C11.136 3.64511 11.3863 4.11279 11.7539 4.4799L13.6127 6.33577V16.2005C13.6125 16.8967 13.3355 17.5642 12.8424 18.0564L2.3259 28.5564C-2.64314 33.5176 0.877252 41.999 7.90225 41.999H35.0952C42.1228 41.999 45.6432 33.5176 40.6742 28.5564L30.1577 18.0564C29.6646 17.5642 29.3875 16.8967 29.3874 16.2005V6.33577L31.2462 4.4799C31.6138 4.11279 31.8641 3.64511 31.9655 3.13598C32.0669 2.62686 32.0148 2.09914 31.8159 1.61955C31.6169 1.13997 31.28 0.730041 30.8478 0.441594C30.4155 0.153148 29.9073 -0.000865724 29.3874 -0.000976562H13.6127ZM18.8709 16.2005V5.24902H24.1292V16.2005C24.1303 18.288 24.9615 20.2897 26.4402 21.7655L29.1403 24.464C27.2494 24.0256 25.2738 24.1183 23.4324 24.7318L22.1968 25.1413C20.0379 25.8598 17.7039 25.8598 15.5451 25.1413L14.0649 24.6504C13.9659 24.6168 13.866 24.5862 13.7652 24.5585L16.5599 21.7681C18.0392 20.2916 18.8705 18.2889 18.8709 16.2005V16.2005Z" fill="#FDFDFD"/>
</svg>
