<svg width="36" height="46" viewBox="0 0 36 46" fill="none" xmlns="http://www.w3.org/2000/svg">
<path d="M33.4286 0C34.0584 8.25765e-05 34.6663 0.229902 35.137 0.645868C35.6076 1.06183 35.9083 1.63501 35.982 2.25669L36 2.55571V43.4471C35.9993 44.0985 35.7483 44.7251 35.2984 45.1987C34.8485 45.6724 34.2335 45.9574 33.5793 45.9956C32.925 46.0338 32.2807 45.8222 31.7781 45.4041C31.2756 44.986 30.9526 44.393 30.8751 43.7461L30.8571 43.4471V30.6686H28.2857C27.6559 30.6685 27.048 30.4387 26.5773 30.0227C26.1067 29.6067 25.806 29.0335 25.7323 28.4119L25.7143 28.1128V12.7786C25.7143 7.13044 29.5714 0 33.4286 0ZM18 0C18.6298 8.25765e-05 19.2377 0.229902 19.7084 0.645868C20.179 1.06183 20.4797 1.63501 20.5534 2.25669L20.5714 2.55571V15.3343C20.5711 17.6009 19.8133 19.8031 18.417 21.5952C17.0207 23.3873 15.065 24.6676 12.8571 25.2351V43.4471C12.8564 44.0985 12.6055 44.7251 12.1555 45.1987C11.7056 45.6724 11.0907 45.9574 10.4364 45.9956C9.78213 46.0338 9.13788 45.8222 8.63529 45.4041C8.13269 44.986 7.80969 44.393 7.73229 43.7461L7.71429 43.4471V25.2351C5.59402 24.6903 3.70391 23.4875 2.31882 21.8015C0.93374 20.1156 0.125923 18.0344 0.0128574 15.8608L0 15.3343V2.55571C0.000726962 1.90431 0.251689 1.27777 0.701609 0.804108C1.15153 0.330442 1.76645 0.0454022 2.42073 0.00722726C3.07501 -0.0309477 3.71926 0.180624 4.22185 0.598714C4.72445 1.0168 5.04745 1.60985 5.12486 2.25669L5.14286 2.55571V15.3343C5.14288 16.2315 5.38052 17.1129 5.8319 17.8899C6.28328 18.6669 6.93249 19.3122 7.71429 19.7608V2.55571C7.71501 1.90431 7.96597 1.27777 8.4159 0.804108C8.86582 0.330442 9.48074 0.0454022 10.135 0.00722726C10.7893 -0.0309477 11.4335 0.180624 11.9361 0.598714C12.4387 1.0168 12.7617 1.60985 12.8391 2.25669L12.8571 2.55571L12.8597 19.7608C13.5773 19.3485 14.184 18.77 14.6282 18.0745C15.0723 17.3789 15.3407 16.587 15.4106 15.7662L15.4286 15.3343V2.55571C15.4286 1.8779 15.6995 1.22784 16.1817 0.748551C16.664 0.269262 17.318 0 18 0V0Z" fill="#FDFDFD"/>
</svg>
