<svg width="60" height="43" viewBox="0 0 60 43" fill="none" xmlns="http://www.w3.org/2000/svg">
<path d="M30 2H56.32C56.5406 2 56.7591 2.04323 56.9629 2.12723C57.1667 2.21123 57.3519 2.33434 57.5079 2.48955C57.6639 2.64476 57.7877 2.82901 57.8721 3.0318C57.9565 3.23459 58 3.45193 58 3.67143V39.3286C58 39.5481 57.9565 39.7654 57.8721 39.9682C57.7877 40.171 57.6639 40.3552 57.5079 40.5105C57.3519 40.6657 57.1667 40.7888 56.9629 40.8728C56.7591 40.9568 56.5406 41 56.32 41H30M30 2H3.68C3.23444 2 2.80712 2.1761 2.49206 2.48955C2.177 2.803 2 3.22814 2 3.67143V39.3286C2 39.7719 2.177 40.197 2.49206 40.5105C2.80712 40.8239 3.23444 41 3.68 41H30M30 2V41Z" fill="#FDFDFD"/>
<path d="M30 2H56.32C56.5406 2 56.7591 2.04323 56.9629 2.12723C57.1667 2.21123 57.3519 2.33434 57.5079 2.48955C57.6639 2.64476 57.7877 2.82901 57.8721 3.0318C57.9565 3.23459 58 3.45193 58 3.67143V39.3286C58 39.5481 57.9565 39.7654 57.8721 39.9682C57.7877 40.171 57.6639 40.3552 57.5079 40.5105C57.3519 40.6657 57.1667 40.7888 56.9629 40.8728C56.7591 40.9568 56.5406 41 56.32 41H30M30 2H3.68C3.23444 2 2.80712 2.1761 2.49206 2.48955C2.177 2.803 2 3.22814 2 3.67143V39.3286C2 39.7719 2.177 40.197 2.49206 40.5105C2.80712 40.8239 3.23444 41 3.68 41H30M30 2V41" stroke="#6E86FF" stroke-width="3"/>
<path d="M2 35C5.71303 35 9.27399 33.5777 11.8995 31.0459C14.525 28.5142 16 25.0804 16 21.5C16 17.9196 14.525 14.4858 11.8995 11.9541C9.27399 9.42232 5.71303 8 2 8M58 35C54.287 35 50.726 33.5777 48.1005 31.0459C45.475 28.5142 44 25.0804 44 21.5C44 17.9196 45.475 14.4858 48.1005 11.9541C50.726 9.42232 54.287 8 58 8M30 29.6C27.7722 29.6 25.6356 28.7466 24.0603 27.2276C22.485 25.7085 21.6 23.6483 21.6 21.5C21.6 19.3517 22.485 17.2915 24.0603 15.7724C25.6356 14.2534 27.7722 13.4 30 13.4C32.2278 13.4 34.3644 14.2534 35.9397 15.7724C37.515 17.2915 38.4 19.3517 38.4 21.5C38.4 23.6483 37.515 25.7085 35.9397 27.2276C34.3644 28.7466 32.2278 29.6 30 29.6Z" stroke="#6E86FF" stroke-width="3" stroke-linecap="round" stroke-linejoin="round"/>
</svg>
