<svg width="19" height="19" viewBox="0 0 19 19" fill="none" xmlns="http://www.w3.org/2000/svg">
<path fill-rule="evenodd" clip-rule="evenodd" d="M0 2.53333C0 1.86145 0.285968 1.21709 0.794996 0.741996C1.30402 0.266904 1.99441 0 2.71429 0H16.2857C17.0056 0 17.696 0.266904 18.205 0.741996C18.714 1.21709 19 1.86145 19 2.53333V12.6667C19 13.3385 18.714 13.9829 18.205 14.458C17.696 14.9331 17.0056 15.2 16.2857 15.2H13.2729L13.4398 15.8194L14.5309 16.8378C14.7207 17.0149 14.8499 17.2406 14.9022 17.4863C14.9546 17.732 14.9277 17.9866 14.825 18.218C14.7223 18.4494 14.5484 18.6473 14.3253 18.7864C14.1021 18.9256 13.8398 18.9999 13.5714 19H5.42857C5.1602 18.9999 4.89786 18.9256 4.67473 18.7864C4.45161 18.6473 4.2777 18.4494 4.17501 18.218C4.07231 17.9866 4.04544 17.732 4.09778 17.4863C4.15012 17.2406 4.27933 17.0149 4.46907 16.8378L5.56021 15.8194L5.72714 15.2H2.71429C1.99441 15.2 1.30402 14.9331 0.794996 14.458C0.285968 13.9829 0 13.3385 0 12.6667V2.53333ZM7.83207 11.4H2.71429V2.53333H16.2857V11.4H7.83207Z" fill="#FDFDFD"/>
</svg>
