<svg width="50" height="39" viewBox="0 0 50 39" fill="none" xmlns="http://www.w3.org/2000/svg">
<path d="M0 36.5623C0 37.9082 1.11953 38.9998 2.5 38.9998H7.5C8.88047 38.9998 10 37.9082 10 36.5623V12.1873H0V36.5623ZM45.2469 21.9373C46.6422 20.6126 47.5 19.093 47.5 17.45C47.5 13.4235 44.2352 10.3058 40.6313 8.08845C37.3547 6.07218 34.332 3.688 31.8844 0.759189L31.25 -0.000244141L30.6156 0.759189C28.168 3.688 25.1461 6.07294 21.8688 8.08845C18.2648 10.3058 15 13.4235 15 17.45C15 19.093 15.8578 20.6126 17.2531 21.9373H45.2469ZM47.5 24.3748H15C13.6195 24.3748 12.5 25.4663 12.5 26.8123V36.5623C12.5 37.9082 13.6195 38.9998 15 38.9998H17.5V34.1248C17.5 32.7788 18.6195 31.6873 20 31.6873C21.3805 31.6873 22.5 32.7788 22.5 34.1248V38.9998H27.5V33.5154C27.5 29.8591 31.25 28.031 31.25 28.031C31.25 28.031 35 29.8591 35 33.5154V38.9998H40V34.1248C40 32.7788 41.1195 31.6873 42.5 31.6873C43.8805 31.6873 45 32.7788 45 34.1248V38.9998H47.5C48.8805 38.9998 50 37.9082 50 36.5623V26.8123C50 25.4663 48.8805 24.3748 47.5 24.3748ZM5 -0.000244141C5 -0.000244141 0 2.43726 0 7.31226V9.74976H10V7.31226C10 2.43726 5 -0.000244141 5 -0.000244141Z" fill="#FDFDFD"/>
</svg>
