<svg width="42" height="49" viewBox="0 0 42 49" fill="none" xmlns="http://www.w3.org/2000/svg">
<path d="M23.8 0.735596H2C0.895432 0.735596 0 1.63103 0 2.7356V46.7356C0 47.8402 0.895431 48.7356 2 48.7356H9.2C10.3046 48.7356 11.2 47.8402 11.2 46.7356V37.4023C11.2 36.2977 12.0954 35.4023 13.2 35.4023H23.8C33.8352 35.4023 42 27.6263 42 18.0689C42 8.5116 33.8352 0.735596 23.8 0.735596ZM23.8 24.7356H13.2C12.0954 24.7356 11.2 23.8402 11.2 22.7356V13.4023C11.2 12.2977 12.0954 11.4023 13.2 11.4023H23.8C27.6612 11.4023 30.8 14.3916 30.8 18.0689C30.8 21.7463 27.6612 24.7356 23.8 24.7356Z" fill="#FDFDFD"/>
</svg>
