<svg width="24" height="24" viewBox="0 0 24 24" fill="none" xmlns="http://www.w3.org/2000/svg">
<path d="M9.6495 8.1267C9.882 7.9722 10.1685 7.8327 10.5 7.7262V10.2732C10.1996 10.179 9.91344 10.0443 9.6495 9.8727C9.105 9.5097 9 9.1707 9 8.9997C9 8.8287 9.105 8.4897 9.6495 8.1267ZM13.5 16.2732V13.7262C13.83 13.8327 14.118 13.9722 14.3505 14.1267C14.8965 14.4912 15 14.8287 15 14.9997C15 15.1707 14.895 15.5097 14.3505 15.8727C14.0866 16.0443 13.8004 16.179 13.5 16.2732Z" fill="#FDFDFD"/>
<path fill-rule="evenodd" clip-rule="evenodd" d="M12 24C15.1826 24 18.2348 22.7357 20.4853 20.4853C22.7357 18.2348 24 15.1826 24 12C24 8.8174 22.7357 5.76516 20.4853 3.51472C18.2348 1.26428 15.1826 0 12 0C8.8174 0 5.76516 1.26428 3.51472 3.51472C1.26428 5.76516 0 8.8174 0 12C0 15.1826 1.26428 18.2348 3.51472 20.4853C5.76516 22.7357 8.8174 24 12 24V24ZM13.5 4.5C13.5 4.10218 13.342 3.72064 13.0607 3.43934C12.7794 3.15804 12.3978 3 12 3C11.6022 3 11.2206 3.15804 10.9393 3.43934C10.658 3.72064 10.5 4.10218 10.5 4.5V4.638C9.60401 4.7975 8.74914 5.13516 7.986 5.631C6.903 6.351 6 7.5135 6 9C6 10.485 6.903 11.6475 7.986 12.369C8.706 12.849 9.567 13.1865 10.5 13.362V16.2735C9.9135 16.083 9.48 15.798 9.2355 15.5175C9.1086 15.3618 8.95172 15.2331 8.77417 15.1392C8.59661 15.0453 8.402 14.9879 8.20187 14.9706C8.00174 14.9534 7.80018 14.9764 7.60914 15.0385C7.41809 15.1006 7.24147 15.2004 7.08974 15.332C6.938 15.4637 6.81426 15.6244 6.72584 15.8048C6.63742 15.9852 6.58612 16.1815 6.575 16.382C6.56388 16.5826 6.59316 16.7834 6.6611 16.9724C6.72904 17.1614 6.83425 17.3349 6.9705 17.4825C7.8135 18.456 9.09 19.0965 10.5 19.362V19.5C10.5 19.8978 10.658 20.2794 10.9393 20.5607C11.2206 20.842 11.6022 21 12 21C12.3978 21 12.7794 20.842 13.0607 20.5607C13.342 20.2794 13.5 19.8978 13.5 19.5V19.362C14.396 19.2025 15.2509 18.8648 16.014 18.369C17.097 17.649 18 16.4865 18 15C18 13.515 17.097 12.3525 16.014 11.631C15.2509 11.1352 14.396 10.7975 13.5 10.638V7.7265C14.0865 7.917 14.52 8.202 14.7645 8.4825C14.8926 8.63447 15.0496 8.75947 15.2264 8.85024C15.4032 8.94101 15.5963 8.99573 15.7944 9.01124C15.9926 9.02675 16.1918 9.00273 16.3806 8.94057C16.5694 8.87842 16.7439 8.77937 16.8941 8.64918C17.0442 8.51899 17.167 8.36025 17.2553 8.1822C17.3436 8.00414 17.3956 7.81032 17.4084 7.61198C17.4211 7.41364 17.3943 7.21475 17.3295 7.02687C17.2647 6.83898 17.1633 6.66583 17.031 6.5175C16.1865 5.544 14.9115 4.9035 13.5 4.638V4.5Z" fill="#FDFDFD"/>
</svg>
