<svg width="22" height="20" viewBox="0 0 22 20" fill="none" xmlns="http://www.w3.org/2000/svg">
<path d="M2.75 0C2.02065 0 1.32118 0.31607 0.805456 0.87868C0.289731 1.44129 0 2.20435 0 3C0 3.79565 0.289731 4.55871 0.805456 5.12132C1.32118 5.68393 2.02065 6 2.75 6H19.25C19.9793 6 20.6788 5.68393 21.1945 5.12132C21.7103 4.55871 22 3.79565 22 3C22 2.20435 21.7103 1.44129 21.1945 0.87868C20.6788 0.31607 19.9793 0 19.25 0H2.75Z" fill="#FDFDFD"/>
<path fill-rule="evenodd" clip-rule="evenodd" d="M1 7H21V17.1111C21 17.8773 20.699 18.6121 20.1632 19.1539C19.6273 19.6956 18.9006 20 18.1429 20H3.85714C3.09938 20 2.37266 19.6956 1.83684 19.1539C1.30102 18.6121 1 17.8773 1 17.1111V7ZM8.14286 11.3333C8.14286 10.9502 8.29337 10.5828 8.56128 10.312C8.82919 10.0411 9.19255 9.88889 9.57143 9.88889H12.4286C12.8075 9.88889 13.1708 10.0411 13.4387 10.312C13.7066 10.5828 13.8571 10.9502 13.8571 11.3333C13.8571 11.7164 13.7066 12.0838 13.4387 12.3547C13.1708 12.6256 12.8075 12.7778 12.4286 12.7778H9.57143C9.19255 12.7778 8.82919 12.6256 8.56128 12.3547C8.29337 12.0838 8.14286 11.7164 8.14286 11.3333Z" fill="#FDFDFD"/>
</svg>
