<svg width="22" height="22" viewBox="0 0 22 22" fill="none" xmlns="http://www.w3.org/2000/svg">
<path fill-rule="evenodd" clip-rule="evenodd" d="M5.5 5.45454V4.0909C5.5 3.00593 5.9346 1.96539 6.70818 1.1982C7.48177 0.431005 8.53098 0 9.625 0H12.375C13.469 0 14.5182 0.431005 15.2918 1.1982C16.0654 1.96539 16.5 3.00593 16.5 4.0909V5.45454H19.25C19.9793 5.45454 20.6788 5.74187 21.1945 6.25334C21.7103 6.7648 22 7.45849 22 8.18181V13.05C18.4795 14.3437 14.7544 15.0041 11 15C7.24556 15.0041 3.5205 14.3438 0 13.05V8.18181C0 7.45849 0.289731 6.7648 0.805456 6.25334C1.32118 5.74187 2.02065 5.45454 2.75 5.45454H5.5ZM8.25 4.0909C8.25 3.72925 8.39487 3.3824 8.65273 3.12667C8.91059 2.87094 9.26033 2.72727 9.625 2.72727H12.375C12.7397 2.72727 13.0894 2.87094 13.3473 3.12667C13.6051 3.3824 13.75 3.72925 13.75 4.0909V5.45454H8.25V4.0909ZM9.625 10.9091C9.625 10.5474 9.76987 10.2006 10.0277 9.94484C10.2856 9.68911 10.6353 9.54544 11 9.54544H11.0138C11.3784 9.54544 11.7282 9.68911 11.986 9.94484C12.2439 10.2006 12.3888 10.5474 12.3888 10.9091C12.3888 11.2707 12.2439 11.6176 11.986 11.8733C11.7282 12.129 11.3784 12.2727 11.0138 12.2727H11C10.6353 12.2727 10.2856 12.129 10.0277 11.8733C9.76987 11.6176 9.625 11.2707 9.625 10.9091Z" fill="#FDFDFD"/>
<path d="M0 16V19.2145C0 19.9532 0.289731 20.6618 0.805456 21.1841C1.32118 21.7065 2.02065 22 2.75 22H19.25C19.9793 22 20.6788 21.7065 21.1945 21.1841C21.7103 20.6618 22 19.9532 22 19.2145V16C18.4557 17.21 14.7401 17.8253 11 17.8217C7.1555 17.8217 3.45538 17.1811 0 16Z" fill="#FDFDFD"/>
</svg>
