<svg width="47" height="33" viewBox="0 0 47 33" fill="none" xmlns="http://www.w3.org/2000/svg">
<path d="M20.5625 2.33021C17.3598 0.791548 13.8434 -0.00550442 10.2812 -0.000218015C6.59469 -0.000218015 3.10494 0.840361 0 2.33021V31.3157C3.20275 29.7771 6.71911 28.9801 10.2812 28.9853C15.1839 28.9853 19.7341 30.4635 23.5 32.9998C27.3953 30.3773 32.0031 28.9779 36.7188 28.9853C40.4053 28.9853 43.8951 29.8258 47 31.3157V2.33021C43.7973 0.791548 40.2809 -0.00550442 36.7188 -0.000218015C33.0322 -0.000218015 29.5424 0.840361 26.4375 2.33021V23.1882C26.4375 23.9569 26.128 24.6942 25.5771 25.2378C25.0262 25.7813 24.2791 26.0867 23.5 26.0867C22.7209 26.0867 21.9738 25.7813 21.4229 25.2378C20.872 24.6942 20.5625 23.9569 20.5625 23.1882V2.33021Z" fill="#FDFDFD"/>
</svg>
