<svg width="22" height="22" viewBox="0 0 22 22" fill="none" xmlns="http://www.w3.org/2000/svg">
<path d="M12.2288 0.758936C12.1145 0.530841 11.939 0.33905 11.7219 0.205018C11.5048 0.0709862 11.2547 0 10.9996 0C10.7445 0 10.4944 0.0709862 10.2773 0.205018C10.0602 0.33905 9.88466 0.530841 9.77035 0.758936L0.14534 20.0097C0.0259128 20.2483 -0.0214686 20.5166 0.00897579 20.7818C0.0394202 21.047 0.146374 21.2975 0.316791 21.5029C0.487208 21.7084 0.71372 21.8597 0.968696 21.9386C1.22367 22.0175 1.49609 22.0204 1.75272 21.9471L8.62772 19.9822C8.91506 19.9 9.1678 19.7264 9.34768 19.4877C9.52755 19.249 9.62476 18.9582 9.6246 18.6594V12.374C9.6246 12.0093 9.76946 11.6596 10.0273 11.4017C10.2852 11.1438 10.6349 10.9989 10.9996 10.9989C11.3643 10.9989 11.714 11.1438 11.9719 11.4017C12.2297 11.6596 12.3746 12.0093 12.3746 12.374V18.6594C12.3744 18.9582 12.4716 19.249 12.6515 19.4877C12.8314 19.7264 13.0841 19.9 13.3715 19.9822L20.2465 21.9457C20.503 22.0192 20.7754 22.0164 21.0304 21.9377C21.2854 21.859 21.512 21.7079 21.6825 21.5026C21.8531 21.2974 21.9602 21.0469 21.9909 20.7818C22.0216 20.5167 21.9744 20.2484 21.8552 20.0097L12.2302 0.758936H12.2288Z" fill="#FDFDFD"/>
</svg>
