<svg width="23" height="23" viewBox="0 0 23 23" fill="none" xmlns="http://www.w3.org/2000/svg">
<path fill-rule="evenodd" clip-rule="evenodd" d="M11.4995 0C11.8807 0 12.2464 0.15145 12.516 0.421034C12.7855 0.690617 12.937 1.05625 12.937 1.4375V3.33931L18.6208 5.61344L20.9194 4.46344C21.2606 4.29302 21.6555 4.26513 22.0173 4.3859C22.3791 4.50668 22.678 4.76622 22.8485 5.10744C23.0189 5.44866 23.0468 5.8436 22.926 6.20538C22.8052 6.56716 22.5457 6.86614 22.2045 7.03656L20.432 7.92206L22.9304 15.7133C23.0151 15.9776 23.0215 16.2608 22.9488 16.5286C22.8761 16.7964 22.7274 17.0375 22.5207 17.2227C21.4673 18.1672 20.1018 18.6889 18.6869 18.6875C17.2721 18.6889 15.9066 18.1672 14.8532 17.2227C14.6465 17.0375 14.4978 16.7964 14.4251 16.5286C14.3524 16.2608 14.3588 15.9776 14.4435 15.7133L16.9088 8.02413L12.937 6.43569V20.125H15.812C16.1932 20.125 16.5588 20.2764 16.8284 20.546C17.098 20.8156 17.2494 21.1813 17.2494 21.5625C17.2494 21.9437 17.098 22.3094 16.8284 22.579C16.5588 22.8486 16.1932 23 15.812 23H7.18703C6.80578 23 6.44015 22.8486 6.17057 22.579C5.90099 22.3094 5.74954 21.9437 5.74954 21.5625C5.74954 21.1813 5.90099 20.8156 6.17057 20.546C6.44015 20.2764 6.80578 20.125 7.18703 20.125H10.062V6.43569L6.09022 8.02413L8.55552 15.7133C8.64022 15.9776 8.6466 16.2608 8.57391 16.5286C8.50121 16.7964 8.35253 17.0375 8.14583 17.2227C7.09239 18.1672 5.72693 18.6889 4.31205 18.6875C2.89717 18.6889 1.53171 18.1672 0.478269 17.2227C0.271568 17.0375 0.122893 16.7964 0.0501952 16.5286C-0.0225029 16.2608 -0.0161156 15.9776 0.0685854 15.7133L2.56694 7.92206L0.794517 7.03513C0.465723 6.85782 0.218861 6.55949 0.106224 6.20332C-0.00641344 5.84715 0.0240201 5.46112 0.191078 5.127C0.358137 4.79288 0.648697 4.53691 1.00121 4.41332C1.35373 4.28973 1.74051 4.30822 2.07963 4.46487L4.37818 5.61344L10.062 3.33931V1.4375C10.062 1.05625 10.2135 0.690617 10.483 0.421034C10.7526 0.15145 11.1182 0 11.4995 0ZM4.31205 11.8939L3.13619 15.5624C3.49556 15.7234 3.8923 15.8125 4.31205 15.8125C4.7318 15.8125 5.12998 15.7234 5.48792 15.5624L4.31205 11.8939ZM18.6869 11.8939L17.5111 15.5624C17.8704 15.7234 18.2672 15.8125 18.6869 15.8125C19.1067 15.8125 19.5049 15.7234 19.8628 15.5624L18.6869 11.8939Z" fill="#FDFDFD"/>
</svg>
