<svg width="53" height="47" viewBox="0 0 53 47" fill="none" xmlns="http://www.w3.org/2000/svg">
<path d="M26.5004 10.5573L6.393 28.2472C6.24394 28.3812 6.05348 28.4436 5.8897 28.5547V45.5313C5.8897 45.9208 6.0448 46.2944 6.32089 46.5698C6.59698 46.8453 6.97144 47 7.36189 47H45.639C46.0294 47 46.4039 46.8453 46.68 46.5698C46.9561 46.2944 47.1112 45.9208 47.1112 45.5313V28.5584C46.9547 28.4519 46.7689 28.3913 46.6272 28.2646L26.5004 10.5573ZM35.3336 34.5159C35.3336 34.7106 35.2561 34.8974 35.118 35.0351C34.98 35.1729 34.7927 35.2502 34.5975 35.2502H29.4448V40.3908C29.4448 40.5855 29.3673 40.7723 29.2292 40.91C29.0912 41.0477 28.904 41.1251 28.7087 41.1251H24.2921C24.0969 41.1251 23.9097 41.0477 23.7716 40.91C23.6336 40.7723 23.556 40.5855 23.556 40.3908V35.2502H18.4034C18.2081 35.2502 18.0209 35.1729 17.8829 35.0351C17.7448 34.8974 17.6673 34.7106 17.6673 34.5159V30.1097C17.6673 29.9149 17.7448 29.7282 17.8829 29.5904C18.0209 29.4527 18.2081 29.3753 18.4034 29.3753H23.556V24.2348C23.556 24.0401 23.6336 23.8533 23.7716 23.7155C23.9097 23.5778 24.0969 23.5005 24.2921 23.5005H28.7087C28.904 23.5005 29.0912 23.5778 29.2292 23.7155C29.3673 23.8533 29.4448 24.0401 29.4448 24.2348V29.3753H34.5975C34.7927 29.3753 34.98 29.4527 35.118 29.5904C35.2561 29.7282 35.3336 29.9149 35.3336 30.1097V34.5159ZM52.5114 21.6903L28.9618 0.944566C28.2877 0.336609 27.4114 0 26.5027 0C25.5941 0 24.7177 0.336609 24.0437 0.944566L0.48858 21.6903C0.344692 21.8192 0.22767 21.9751 0.144199 22.1491C0.0607287 22.3231 0.0124446 22.5119 0.00210559 22.7045C-0.00823344 22.8972 0.0195751 23.09 0.0839427 23.2719C0.14831 23.4538 0.247976 23.6213 0.377245 23.7648L2.34723 25.9514C2.47643 26.0949 2.63272 26.2117 2.80717 26.295C2.98161 26.3782 3.17079 26.4264 3.3639 26.4367C3.55701 26.447 3.75026 26.4193 3.93262 26.3551C4.11498 26.2909 4.28287 26.1914 4.4267 26.0625L25.5269 7.49415C25.7959 7.25743 26.1422 7.1268 26.5009 7.1268C26.8596 7.1268 27.2059 7.25743 27.4748 7.49415L48.5751 26.0615C48.7189 26.1905 48.8868 26.2899 49.0692 26.3542C49.2515 26.4184 49.4448 26.4461 49.6379 26.4358C49.831 26.4255 50.0202 26.3773 50.1946 26.294C50.3691 26.2108 50.5254 26.094 50.6546 25.9505L52.6236 23.7639C52.8843 23.474 53.0189 23.0928 52.9979 22.7039C52.9768 22.315 52.8018 21.9504 52.5114 21.6903Z" fill="#FDFDFD"/>
</svg>
